<svg width="334" height="284" viewBox="0 0 334 284" fill="none" xmlns="http://www.w3.org/2000/svg">
<rect width="334" height="284" rx="10" fill="url(#paint0_linear_280_9026)"/>
<path d="M217 42.2019L169.102 42.2019L169.102 107.786L204.478 235.726H217L217 42.2019Z" fill="#B1060F"/>
<path d="M106.697 235.625H154.596V170.041L119.22 42.1011H106.697V235.625Z" fill="#B1060F"/>
<path d="M21.3672 153V124.816H32.1289C40.5664 124.816 45.5664 129.836 45.5664 138.762V138.801C45.5664 147.746 40.5859 153 32.1289 153H21.3672ZM27.2656 148.117H31.4258C36.6992 148.117 39.5508 144.914 39.5508 138.82V138.781C39.5508 132.902 36.6016 129.68 31.4258 129.68H27.2656V148.117ZM58.418 153.43C52.0117 153.43 48.125 149.27 48.125 142.57V142.551C48.125 135.891 52.0508 131.633 58.1836 131.633C64.3164 131.633 68.1641 135.793 68.1641 142.121V143.879H53.75C53.8086 147.219 55.625 149.172 58.5352 149.172C60.8789 149.172 62.3047 147.883 62.7148 146.711L62.7539 146.594H67.9883L67.9297 146.809C67.2852 149.895 64.3945 153.43 58.418 153.43ZM58.2812 135.891C55.9375 135.891 54.1797 137.453 53.8086 140.285H62.6953C62.3438 137.395 60.6445 135.891 58.2812 135.891ZM79.7266 153.43C73.9258 153.43 70.7031 150.754 70.2539 146.789L70.2344 146.613H75.8008L75.8398 146.789C76.2109 148.43 77.4414 149.387 79.7266 149.387C81.875 149.387 83.1836 148.547 83.1836 147.199V147.18C83.1836 146.066 82.4805 145.422 80.4297 144.973L76.875 144.23C72.8125 143.371 70.7617 141.34 70.7617 138.215V138.195C70.7617 134.211 74.1992 131.633 79.5312 131.633C85.0977 131.633 88.2031 134.582 88.3398 138.254V138.449H83.0859L83.0664 138.293C82.8711 136.789 81.6406 135.656 79.5312 135.656C77.5586 135.656 76.3281 136.535 76.3281 137.883V137.902C76.3281 138.977 77.0508 139.68 79.1602 140.129L82.7148 140.891C87.0898 141.809 88.8867 143.527 88.8867 146.613V146.633C88.8867 150.734 85.1172 153.43 79.7266 153.43ZM94.668 129.367C92.9492 129.367 91.6211 128.02 91.6211 126.398C91.6211 124.777 92.9492 123.43 94.668 123.43C96.3867 123.43 97.7148 124.777 97.7148 126.398C97.7148 128.02 96.3867 129.367 94.668 129.367ZM91.8164 153V132.062H97.5195V153H91.8164ZM111.133 160.266C105.371 160.266 101.738 157.668 101.191 154.309L101.172 154.133H106.719L106.777 154.27C107.227 155.305 108.75 156.203 111.133 156.203C114.082 156.203 115.645 154.68 115.645 152.336V149.133H115.527C114.434 151.32 112.09 152.707 109.062 152.707C103.828 152.707 100.586 148.801 100.586 142.297V142.277C100.586 135.598 103.867 131.633 109.16 131.633C112.109 131.633 114.395 133.195 115.527 135.637H115.645V132.062H121.348V152.414C121.348 157.082 117.422 160.266 111.133 160.266ZM111.035 148.527C113.828 148.527 115.664 146.184 115.664 142.434V142.414C115.664 138.684 113.809 136.359 111.035 136.359C108.203 136.359 106.387 138.664 106.387 142.414V142.434C106.387 146.203 108.184 148.527 111.035 148.527ZM125.098 153V132.062H130.801V135.5H130.918C131.992 133.098 134.141 131.633 137.305 131.633C141.914 131.633 144.531 134.582 144.531 139.484V153H138.828V140.656C138.828 137.922 137.539 136.359 134.98 136.359C132.422 136.359 130.801 138.234 130.801 140.969V153H125.098ZM190.645 153.488C183.945 153.488 179.629 150.422 179.297 145.227L179.277 144.914H184.844L184.883 145.129C185.254 147.316 187.578 148.684 190.801 148.684C194.062 148.684 196.113 147.258 196.113 145.109V145.09C196.113 143.176 194.727 142.219 191.23 141.496L188.262 140.91C182.695 139.797 179.883 137.141 179.883 132.902V132.883C179.883 127.727 184.375 124.328 190.625 124.328C197.148 124.328 201.152 127.59 201.426 132.531L201.445 132.902H195.879L195.859 132.668C195.566 130.461 193.535 129.113 190.625 129.113C187.598 129.133 185.781 130.52 185.781 132.531V132.551C185.781 134.328 187.227 135.363 190.469 136.008L193.457 136.613C199.355 137.785 202.012 140.188 202.012 144.621V144.641C202.012 150.051 197.754 153.488 190.645 153.488ZM208.418 159.895C207.305 159.895 206.172 159.758 205.508 159.641V155.402C205.918 155.48 206.582 155.598 207.422 155.598C209.121 155.598 210.059 155.109 210.566 153.684L210.82 153L203.418 132.062H209.688L214.102 148.43H214.258L218.691 132.062H224.707L217.52 153.371C215.879 158.312 213.066 159.895 208.418 159.895ZM235.195 153.43C229.395 153.43 226.172 150.754 225.723 146.789L225.703 146.613H231.27L231.309 146.789C231.68 148.43 232.91 149.387 235.195 149.387C237.344 149.387 238.652 148.547 238.652 147.199V147.18C238.652 146.066 237.949 145.422 235.898 144.973L232.344 144.23C228.281 143.371 226.23 141.34 226.23 138.215V138.195C226.23 134.211 229.668 131.633 235 131.633C240.566 131.633 243.672 134.582 243.809 138.254V138.449H238.555L238.535 138.293C238.34 136.789 237.109 135.656 235 135.656C233.027 135.656 231.797 136.535 231.797 137.883V137.902C231.797 138.977 232.52 139.68 234.629 140.129L238.184 140.891C242.559 141.809 244.355 143.527 244.355 146.613V146.633C244.355 150.734 240.586 153.43 235.195 153.43ZM255.488 153.43C250.84 153.43 248.652 151.633 248.652 147.141V136.359H245.742V132.062H248.652V126.945H254.414V132.062H258.242V136.359H254.414V146.516C254.414 148.469 255.293 149.133 257.012 149.133C257.52 149.133 257.891 149.074 258.242 149.035V153.215C257.598 153.312 256.68 153.43 255.488 153.43ZM270.605 153.43C264.199 153.43 260.312 149.27 260.312 142.57V142.551C260.312 135.891 264.238 131.633 270.371 131.633C276.504 131.633 280.352 135.793 280.352 142.121V143.879H265.938C265.996 147.219 267.812 149.172 270.723 149.172C273.066 149.172 274.492 147.883 274.902 146.711L274.941 146.594H280.176L280.117 146.809C279.473 149.895 276.582 153.43 270.605 153.43ZM270.469 135.891C268.125 135.891 266.367 137.453 265.996 140.285H274.883C274.531 137.395 272.832 135.891 270.469 135.891ZM283.301 153V132.062H289.004V135.578H289.121C289.98 133.195 292.168 131.633 294.98 131.633C297.91 131.633 300.039 133.195 300.742 135.949H300.859C301.797 133.312 304.297 131.633 307.363 131.633C311.465 131.633 314.219 134.465 314.219 138.684V153H308.516V140.109C308.516 137.688 307.305 136.359 305.098 136.359C302.93 136.359 301.504 137.941 301.504 140.266V153H296.016V139.934C296.016 137.688 294.746 136.359 292.637 136.359C290.469 136.359 289.004 138 289.004 140.363V153H283.301Z" fill="white"/>
<g filter="url(#filter0_d_280_9026)">
<path d="M107 42L168.181 236H216L154.585 42H107Z" fill="#E50914"/>
</g>
<defs>
<filter id="filter0_d_280_9026" x="82.7843" y="27.4706" width="157.431" height="242.431" filterUnits="userSpaceOnUse" color-interpolation-filters="sRGB">
<feFlood flood-opacity="0" result="BackgroundImageFix"/>
<feColorMatrix in="SourceAlpha" type="matrix" values="0 0 0 0 0 0 0 0 0 0 0 0 0 0 0 0 0 0 127 0" result="hardAlpha"/>
<feOffset dy="9.68627"/>
<feGaussianBlur stdDeviation="12.1078"/>
<feComposite in2="hardAlpha" operator="out"/>
<feColorMatrix type="matrix" values="0 0 0 0 0 0 0 0 0 0 0 0 0 0 0 0 0 0 0.25 0"/>
<feBlend mode="normal" in2="BackgroundImageFix" result="effect1_dropShadow_280_9026"/>
<feBlend mode="normal" in="SourceGraphic" in2="effect1_dropShadow_280_9026" result="shape"/>
</filter>
<linearGradient id="paint0_linear_280_9026" x1="167" y1="0" x2="167" y2="284" gradientUnits="userSpaceOnUse">
<stop offset="0.104167" stop-opacity="0.85"/>
<stop offset="0.744792" stop-color="#980A0A"/>
<stop offset="1" stop-color="#880414"/>
</linearGradient>
</defs>
</svg>
