<svg width="400" height="120" viewBox="0 0 400 120" fill="none" xmlns="http://www.w3.org/2000/svg">
<rect x="0.5" y="0.5" width="399" height="119" rx="13.5" fill="#181818"/>
<rect x="0.5" y="0.5" width="399" height="119" rx="13.5" stroke="#282326"/>
<path d="M99.8828 27.125C99.8828 26.8594 99.8411 26.625 99.7578 26.4219C99.6797 26.2135 99.5391 26.026 99.3359 25.8594C99.138 25.6927 98.862 25.5339 98.5078 25.3828C98.1589 25.2318 97.7161 25.0781 97.1797 24.9219C96.6172 24.7552 96.1094 24.5703 95.6562 24.3672C95.2031 24.1589 94.8151 23.9219 94.4922 23.6562C94.1693 23.3906 93.9219 23.0859 93.75 22.7422C93.5781 22.3984 93.4922 22.0052 93.4922 21.5625C93.4922 21.1198 93.5833 20.7109 93.7656 20.3359C93.9479 19.9609 94.2083 19.6354 94.5469 19.3594C94.8906 19.0781 95.2995 18.8594 95.7734 18.7031C96.2474 18.5469 96.776 18.4688 97.3594 18.4688C98.2135 18.4688 98.9375 18.6328 99.5312 18.9609C100.13 19.2839 100.586 19.7083 100.898 20.2344C101.211 20.7552 101.367 21.3125 101.367 21.9062H99.8672C99.8672 21.4792 99.776 21.1016 99.5938 20.7734C99.4115 20.4401 99.1354 20.1797 98.7656 19.9922C98.3958 19.7995 97.9271 19.7031 97.3594 19.7031C96.8229 19.7031 96.3802 19.7839 96.0312 19.9453C95.6823 20.1068 95.4219 20.3255 95.25 20.6016C95.0833 20.8776 95 21.1927 95 21.5469C95 21.7865 95.0495 22.0052 95.1484 22.2031C95.2526 22.3958 95.4115 22.5755 95.625 22.7422C95.8438 22.9089 96.1198 23.0625 96.4531 23.2031C96.7917 23.3438 97.1953 23.4792 97.6641 23.6094C98.3099 23.7917 98.8672 23.9948 99.3359 24.2188C99.8047 24.4427 100.19 24.6953 100.492 24.9766C100.799 25.2526 101.026 25.5677 101.172 25.9219C101.323 26.2708 101.398 26.6667 101.398 27.1094C101.398 27.5729 101.305 27.9922 101.117 28.3672C100.93 28.7422 100.661 29.0625 100.312 29.3281C99.9635 29.5938 99.5443 29.7995 99.0547 29.9453C98.5703 30.0859 98.0286 30.1562 97.4297 30.1562C96.9036 30.1562 96.3854 30.0833 95.875 29.9375C95.3698 29.7917 94.9089 29.5729 94.4922 29.2812C94.0807 28.9896 93.75 28.6302 93.5 28.2031C93.2552 27.7708 93.1328 27.2708 93.1328 26.7031H94.6328C94.6328 27.0938 94.7083 27.4297 94.8594 27.7109C95.0104 27.987 95.2161 28.2161 95.4766 28.3984C95.7422 28.5807 96.0417 28.7161 96.375 28.8047C96.7135 28.888 97.0651 28.9297 97.4297 28.9297C97.9557 28.9297 98.401 28.8568 98.7656 28.7109C99.1302 28.5651 99.4062 28.3568 99.5938 28.0859C99.7865 27.8151 99.8828 27.4948 99.8828 27.125ZM104.672 18V30H103.219V18H104.672ZM108.562 21.5469V30H107.109V21.5469H108.562ZM107 19.3047C107 19.0703 107.07 18.8724 107.211 18.7109C107.357 18.5495 107.57 18.4688 107.852 18.4688C108.128 18.4688 108.339 18.5495 108.484 18.7109C108.635 18.8724 108.711 19.0703 108.711 19.3047C108.711 19.5286 108.635 19.7214 108.484 19.8828C108.339 20.0391 108.128 20.1172 107.852 20.1172C107.57 20.1172 107.357 20.0391 107.211 19.8828C107.07 19.7214 107 19.5286 107 19.3047ZM114.266 28.9688C114.609 28.9688 114.927 28.8984 115.219 28.7578C115.51 28.6172 115.75 28.4245 115.938 28.1797C116.125 27.9297 116.232 27.6458 116.258 27.3281H117.633C117.607 27.8281 117.438 28.2943 117.125 28.7266C116.818 29.1536 116.414 29.5 115.914 29.7656C115.414 30.026 114.865 30.1562 114.266 30.1562C113.63 30.1562 113.076 30.0443 112.602 29.8203C112.133 29.5964 111.742 29.2891 111.43 28.8984C111.122 28.5078 110.891 28.0599 110.734 27.5547C110.583 27.0443 110.508 26.5052 110.508 25.9375V25.6094C110.508 25.0417 110.583 24.5052 110.734 24C110.891 23.4896 111.122 23.0391 111.43 22.6484C111.742 22.2578 112.133 21.9505 112.602 21.7266C113.076 21.5026 113.63 21.3906 114.266 21.3906C114.927 21.3906 115.505 21.526 116 21.7969C116.495 22.0625 116.883 22.4271 117.164 22.8906C117.451 23.349 117.607 23.8698 117.633 24.4531H116.258C116.232 24.1042 116.133 23.7891 115.961 23.5078C115.794 23.2266 115.565 23.0026 115.273 22.8359C114.987 22.6641 114.651 22.5781 114.266 22.5781C113.823 22.5781 113.451 22.6667 113.148 22.8438C112.852 23.0156 112.615 23.25 112.438 23.5469C112.266 23.8385 112.141 24.1641 112.062 24.5234C111.99 24.8776 111.953 25.2396 111.953 25.6094V25.9375C111.953 26.3073 111.99 26.6719 112.062 27.0312C112.135 27.3906 112.258 27.7161 112.43 28.0078C112.607 28.2995 112.844 28.5339 113.141 28.7109C113.443 28.8828 113.818 28.9688 114.266 28.9688ZM120.711 18V30H119.258V18H120.711ZM125.875 21.5469L122.188 25.4922L120.125 27.6328L120.008 26.0938L121.484 24.3281L124.109 21.5469H125.875ZM124.555 30L121.539 25.9688L122.289 24.6797L126.258 30H124.555Z" fill="white"/>
<circle cx="134.5" cy="24.5" r="2" fill="white"/>
<path d="M148.016 25.5391H144.977V24.3125H148.016C148.604 24.3125 149.081 24.2188 149.445 24.0312C149.81 23.8438 150.076 23.5833 150.242 23.25C150.414 22.9167 150.5 22.5365 150.5 22.1094C150.5 21.7188 150.414 21.3516 150.242 21.0078C150.076 20.6641 149.81 20.388 149.445 20.1797C149.081 19.9661 148.604 19.8594 148.016 19.8594H145.328V30H143.82V18.625H148.016C148.875 18.625 149.602 18.7734 150.195 19.0703C150.789 19.3672 151.24 19.7786 151.547 20.3047C151.854 20.8255 152.008 21.4219 152.008 22.0938C152.008 22.8229 151.854 23.4453 151.547 23.9609C151.24 24.4766 150.789 24.8698 150.195 25.1406C149.602 25.4062 148.875 25.5391 148.016 25.5391ZM158.617 27.7578C158.617 27.5495 158.57 27.3568 158.477 27.1797C158.388 26.9974 158.203 26.8333 157.922 26.6875C157.646 26.5365 157.229 26.4062 156.672 26.2969C156.203 26.1979 155.779 26.0807 155.398 25.9453C155.023 25.8099 154.703 25.6458 154.438 25.4531C154.177 25.2604 153.977 25.0339 153.836 24.7734C153.695 24.513 153.625 24.2083 153.625 23.8594C153.625 23.526 153.698 23.2109 153.844 22.9141C153.995 22.6172 154.206 22.3542 154.477 22.125C154.753 21.8958 155.083 21.7161 155.469 21.5859C155.854 21.4557 156.284 21.3906 156.758 21.3906C157.435 21.3906 158.013 21.5104 158.492 21.75C158.971 21.9896 159.339 22.3099 159.594 22.7109C159.849 23.1068 159.977 23.5469 159.977 24.0312H158.531C158.531 23.7969 158.461 23.5703 158.32 23.3516C158.185 23.1276 157.984 22.9427 157.719 22.7969C157.458 22.651 157.138 22.5781 156.758 22.5781C156.357 22.5781 156.031 22.6406 155.781 22.7656C155.536 22.8854 155.357 23.0391 155.242 23.2266C155.133 23.4141 155.078 23.612 155.078 23.8203C155.078 23.9766 155.104 24.1172 155.156 24.2422C155.214 24.362 155.312 24.474 155.453 24.5781C155.594 24.6771 155.792 24.7708 156.047 24.8594C156.302 24.9479 156.628 25.0365 157.023 25.125C157.716 25.2812 158.286 25.4688 158.734 25.6875C159.182 25.9062 159.516 26.1745 159.734 26.4922C159.953 26.8099 160.062 27.1953 160.062 27.6484C160.062 28.0182 159.984 28.3568 159.828 28.6641C159.677 28.9714 159.456 29.237 159.164 29.4609C158.878 29.6797 158.534 29.8516 158.133 29.9766C157.737 30.0964 157.292 30.1562 156.797 30.1562C156.052 30.1562 155.422 30.0234 154.906 29.7578C154.391 29.4922 154 29.1484 153.734 28.7266C153.469 28.3047 153.336 27.8594 153.336 27.3906H154.789C154.81 27.7865 154.924 28.1016 155.133 28.3359C155.341 28.5651 155.596 28.7292 155.898 28.8281C156.201 28.9219 156.5 28.9688 156.797 28.9688C157.193 28.9688 157.523 28.9167 157.789 28.8125C158.06 28.7083 158.266 28.5651 158.406 28.3828C158.547 28.2005 158.617 27.9922 158.617 27.7578ZM164.336 29.125L166.688 21.5469H168.234L164.844 31.3047C164.766 31.513 164.661 31.737 164.531 31.9766C164.406 32.2214 164.245 32.4531 164.047 32.6719C163.849 32.8906 163.609 33.0677 163.328 33.2031C163.052 33.3438 162.721 33.4141 162.336 33.4141C162.221 33.4141 162.076 33.3984 161.898 33.3672C161.721 33.3359 161.596 33.3099 161.523 33.2891L161.516 32.1172C161.557 32.1224 161.622 32.1276 161.711 32.1328C161.805 32.1432 161.87 32.1484 161.906 32.1484C162.234 32.1484 162.513 32.1042 162.742 32.0156C162.971 31.9323 163.164 31.7891 163.32 31.5859C163.482 31.388 163.62 31.1146 163.734 30.7656L164.336 29.125ZM162.609 21.5469L164.805 28.1094L165.18 29.6328L164.141 30.1641L161.031 21.5469H162.609ZM172.812 28.9688C173.156 28.9688 173.474 28.8984 173.766 28.7578C174.057 28.6172 174.297 28.4245 174.484 28.1797C174.672 27.9297 174.779 27.6458 174.805 27.3281H176.18C176.154 27.8281 175.984 28.2943 175.672 28.7266C175.365 29.1536 174.961 29.5 174.461 29.7656C173.961 30.026 173.411 30.1562 172.812 30.1562C172.177 30.1562 171.622 30.0443 171.148 29.8203C170.68 29.5964 170.289 29.2891 169.977 28.8984C169.669 28.5078 169.438 28.0599 169.281 27.5547C169.13 27.0443 169.055 26.5052 169.055 25.9375V25.6094C169.055 25.0417 169.13 24.5052 169.281 24C169.438 23.4896 169.669 23.0391 169.977 22.6484C170.289 22.2578 170.68 21.9505 171.148 21.7266C171.622 21.5026 172.177 21.3906 172.812 21.3906C173.474 21.3906 174.052 21.526 174.547 21.7969C175.042 22.0625 175.43 22.4271 175.711 22.8906C175.997 23.349 176.154 23.8698 176.18 24.4531H174.805C174.779 24.1042 174.68 23.7891 174.508 23.5078C174.341 23.2266 174.112 23.0026 173.82 22.8359C173.534 22.6641 173.198 22.5781 172.812 22.5781C172.37 22.5781 171.997 22.6667 171.695 22.8438C171.398 23.0156 171.161 23.25 170.984 23.5469C170.812 23.8385 170.688 24.1641 170.609 24.5234C170.536 24.8776 170.5 25.2396 170.5 25.6094V25.9375C170.5 26.3073 170.536 26.6719 170.609 27.0312C170.682 27.3906 170.805 27.7161 170.977 28.0078C171.154 28.2995 171.391 28.5339 171.688 28.7109C171.99 28.8828 172.365 28.9688 172.812 28.9688ZM179.25 18V30H177.805V18H179.25ZM178.906 25.4531L178.305 25.4297C178.31 24.8516 178.396 24.3177 178.562 23.8281C178.729 23.3333 178.964 22.9036 179.266 22.5391C179.568 22.1745 179.927 21.8932 180.344 21.6953C180.766 21.4922 181.232 21.3906 181.742 21.3906C182.159 21.3906 182.534 21.4479 182.867 21.5625C183.201 21.6719 183.484 21.849 183.719 22.0938C183.958 22.3385 184.141 22.6562 184.266 23.0469C184.391 23.4323 184.453 23.9036 184.453 24.4609V30H183V24.4453C183 24.0026 182.935 23.6484 182.805 23.3828C182.674 23.112 182.484 22.9167 182.234 22.7969C181.984 22.6719 181.677 22.6094 181.312 22.6094C180.953 22.6094 180.625 22.6849 180.328 22.8359C180.036 22.987 179.784 23.1953 179.57 23.4609C179.362 23.7266 179.198 24.0312 179.078 24.375C178.964 24.7135 178.906 25.0729 178.906 25.4531ZM186.234 25.8672V25.6875C186.234 25.0781 186.323 24.513 186.5 23.9922C186.677 23.4661 186.932 23.0104 187.266 22.625C187.599 22.2344 188.003 21.9323 188.477 21.7188C188.951 21.5 189.482 21.3906 190.07 21.3906C190.664 21.3906 191.198 21.5 191.672 21.7188C192.151 21.9323 192.557 22.2344 192.891 22.625C193.229 23.0104 193.487 23.4661 193.664 23.9922C193.841 24.513 193.93 25.0781 193.93 25.6875V25.8672C193.93 26.4766 193.841 27.0417 193.664 27.5625C193.487 28.0833 193.229 28.5391 192.891 28.9297C192.557 29.3151 192.154 29.6172 191.68 29.8359C191.211 30.0495 190.68 30.1562 190.086 30.1562C189.492 30.1562 188.958 30.0495 188.484 29.8359C188.01 29.6172 187.604 29.3151 187.266 28.9297C186.932 28.5391 186.677 28.0833 186.5 27.5625C186.323 27.0417 186.234 26.4766 186.234 25.8672ZM187.68 25.6875V25.8672C187.68 26.2891 187.729 26.6875 187.828 27.0625C187.927 27.4323 188.076 27.7604 188.273 28.0469C188.477 28.3333 188.729 28.5599 189.031 28.7266C189.333 28.888 189.685 28.9688 190.086 28.9688C190.482 28.9688 190.828 28.888 191.125 28.7266C191.427 28.5599 191.677 28.3333 191.875 28.0469C192.073 27.7604 192.221 27.4323 192.32 27.0625C192.424 26.6875 192.477 26.2891 192.477 25.8672V25.6875C192.477 25.2708 192.424 24.8776 192.32 24.5078C192.221 24.1328 192.07 23.8021 191.867 23.5156C191.669 23.224 191.419 22.9948 191.117 22.8281C190.82 22.6615 190.471 22.5781 190.07 22.5781C189.674 22.5781 189.326 22.6615 189.023 22.8281C188.727 22.9948 188.477 23.224 188.273 23.5156C188.076 23.8021 187.927 24.1328 187.828 24.5078C187.729 24.8776 187.68 25.2708 187.68 25.6875ZM197.312 18V30H195.859V18H197.312ZM199.25 25.8672V25.6875C199.25 25.0781 199.339 24.513 199.516 23.9922C199.693 23.4661 199.948 23.0104 200.281 22.625C200.615 22.2344 201.018 21.9323 201.492 21.7188C201.966 21.5 202.497 21.3906 203.086 21.3906C203.68 21.3906 204.214 21.5 204.688 21.7188C205.167 21.9323 205.573 22.2344 205.906 22.625C206.245 23.0104 206.503 23.4661 206.68 23.9922C206.857 24.513 206.945 25.0781 206.945 25.6875V25.8672C206.945 26.4766 206.857 27.0417 206.68 27.5625C206.503 28.0833 206.245 28.5391 205.906 28.9297C205.573 29.3151 205.169 29.6172 204.695 29.8359C204.227 30.0495 203.695 30.1562 203.102 30.1562C202.508 30.1562 201.974 30.0495 201.5 29.8359C201.026 29.6172 200.62 29.3151 200.281 28.9297C199.948 28.5391 199.693 28.0833 199.516 27.5625C199.339 27.0417 199.25 26.4766 199.25 25.8672ZM200.695 25.6875V25.8672C200.695 26.2891 200.745 26.6875 200.844 27.0625C200.943 27.4323 201.091 27.7604 201.289 28.0469C201.492 28.3333 201.745 28.5599 202.047 28.7266C202.349 28.888 202.701 28.9688 203.102 28.9688C203.497 28.9688 203.844 28.888 204.141 28.7266C204.443 28.5599 204.693 28.3333 204.891 28.0469C205.089 27.7604 205.237 27.4323 205.336 27.0625C205.44 26.6875 205.492 26.2891 205.492 25.8672V25.6875C205.492 25.2708 205.44 24.8776 205.336 24.5078C205.237 24.1328 205.086 23.8021 204.883 23.5156C204.685 23.224 204.435 22.9948 204.133 22.8281C203.836 22.6615 203.487 22.5781 203.086 22.5781C202.69 22.5781 202.341 22.6615 202.039 22.8281C201.742 22.9948 201.492 23.224 201.289 23.5156C201.091 23.8021 200.943 24.1328 200.844 24.5078C200.745 24.8776 200.695 25.2708 200.695 25.6875ZM214.234 21.5469H215.547V29.8203C215.547 30.5651 215.396 31.2005 215.094 31.7266C214.792 32.2526 214.37 32.651 213.828 32.9219C213.292 33.1979 212.672 33.3359 211.969 33.3359C211.677 33.3359 211.333 33.2891 210.938 33.1953C210.547 33.1068 210.161 32.9531 209.781 32.7344C209.406 32.5208 209.091 32.2318 208.836 31.8672L209.594 31.0078C209.948 31.4349 210.318 31.7318 210.703 31.8984C211.094 32.0651 211.479 32.1484 211.859 32.1484C212.318 32.1484 212.714 32.0625 213.047 31.8906C213.38 31.7188 213.638 31.4635 213.82 31.125C214.008 30.7917 214.102 30.3802 214.102 29.8906V23.4062L214.234 21.5469ZM208.414 25.8672V25.7031C208.414 25.0573 208.49 24.4714 208.641 23.9453C208.797 23.4141 209.018 22.9583 209.305 22.5781C209.596 22.1979 209.948 21.9062 210.359 21.7031C210.771 21.4948 211.234 21.3906 211.75 21.3906C212.281 21.3906 212.745 21.4844 213.141 21.6719C213.542 21.8542 213.88 22.1224 214.156 22.4766C214.438 22.8255 214.659 23.2474 214.82 23.7422C214.982 24.237 215.094 24.7969 215.156 25.4219V26.1406C215.099 26.7604 214.987 27.3177 214.82 27.8125C214.659 28.3073 214.438 28.7292 214.156 29.0781C213.88 29.4271 213.542 29.6953 213.141 29.8828C212.74 30.0651 212.271 30.1562 211.734 30.1562C211.229 30.1562 210.771 30.0495 210.359 29.8359C209.953 29.6224 209.604 29.3229 209.312 28.9375C209.021 28.5521 208.797 28.099 208.641 27.5781C208.49 27.0521 208.414 26.4818 208.414 25.8672ZM209.859 25.7031V25.8672C209.859 26.2891 209.901 26.6849 209.984 27.0547C210.073 27.4245 210.206 27.75 210.383 28.0312C210.565 28.3125 210.797 28.5339 211.078 28.6953C211.359 28.8516 211.695 28.9297 212.086 28.9297C212.565 28.9297 212.961 28.8281 213.273 28.625C213.586 28.4219 213.833 28.1536 214.016 27.8203C214.203 27.487 214.349 27.125 214.453 26.7344V24.8516C214.396 24.5651 214.307 24.2891 214.188 24.0234C214.073 23.7526 213.922 23.513 213.734 23.3047C213.552 23.0911 213.326 22.9219 213.055 22.7969C212.784 22.6719 212.466 22.6094 212.102 22.6094C211.706 22.6094 211.365 22.6927 211.078 22.8594C210.797 23.0208 210.565 23.2448 210.383 23.5312C210.206 23.8125 210.073 24.1406 209.984 24.5156C209.901 24.8854 209.859 25.2812 209.859 25.7031ZM219.312 21.5469V30H217.859V21.5469H219.312ZM217.75 19.3047C217.75 19.0703 217.82 18.8724 217.961 18.7109C218.107 18.5495 218.32 18.4688 218.602 18.4688C218.878 18.4688 219.089 18.5495 219.234 18.7109C219.385 18.8724 219.461 19.0703 219.461 19.3047C219.461 19.5286 219.385 19.7214 219.234 19.8828C219.089 20.0391 218.878 20.1172 218.602 20.1172C218.32 20.1172 218.107 20.0391 217.961 19.8828C217.82 19.7214 217.75 19.5286 217.75 19.3047ZM225.016 28.9688C225.359 28.9688 225.677 28.8984 225.969 28.7578C226.26 28.6172 226.5 28.4245 226.688 28.1797C226.875 27.9297 226.982 27.6458 227.008 27.3281H228.383C228.357 27.8281 228.188 28.2943 227.875 28.7266C227.568 29.1536 227.164 29.5 226.664 29.7656C226.164 30.026 225.615 30.1562 225.016 30.1562C224.38 30.1562 223.826 30.0443 223.352 29.8203C222.883 29.5964 222.492 29.2891 222.18 28.8984C221.872 28.5078 221.641 28.0599 221.484 27.5547C221.333 27.0443 221.258 26.5052 221.258 25.9375V25.6094C221.258 25.0417 221.333 24.5052 221.484 24C221.641 23.4896 221.872 23.0391 222.18 22.6484C222.492 22.2578 222.883 21.9505 223.352 21.7266C223.826 21.5026 224.38 21.3906 225.016 21.3906C225.677 21.3906 226.255 21.526 226.75 21.7969C227.245 22.0625 227.633 22.4271 227.914 22.8906C228.201 23.349 228.357 23.8698 228.383 24.4531H227.008C226.982 24.1042 226.883 23.7891 226.711 23.5078C226.544 23.2266 226.315 23.0026 226.023 22.8359C225.737 22.6641 225.401 22.5781 225.016 22.5781C224.573 22.5781 224.201 22.6667 223.898 22.8438C223.602 23.0156 223.365 23.25 223.188 23.5469C223.016 23.8385 222.891 24.1641 222.812 24.5234C222.74 24.8776 222.703 25.2396 222.703 25.6094V25.9375C222.703 26.3073 222.74 26.6719 222.812 27.0312C222.885 27.3906 223.008 27.7161 223.18 28.0078C223.357 28.2995 223.594 28.5339 223.891 28.7109C224.193 28.8828 224.568 28.9688 225.016 28.9688ZM234.992 28.5547V24.2031C234.992 23.8698 234.924 23.5807 234.789 23.3359C234.659 23.0859 234.461 22.8932 234.195 22.7578C233.93 22.6224 233.602 22.5547 233.211 22.5547C232.846 22.5547 232.526 22.6172 232.25 22.7422C231.979 22.8672 231.766 23.0312 231.609 23.2344C231.458 23.4375 231.383 23.6562 231.383 23.8906H229.938C229.938 23.5885 230.016 23.2891 230.172 22.9922C230.328 22.6953 230.552 22.4271 230.844 22.1875C231.141 21.9427 231.495 21.75 231.906 21.6094C232.323 21.4635 232.786 21.3906 233.297 21.3906C233.911 21.3906 234.453 21.4948 234.922 21.7031C235.396 21.9115 235.766 22.2266 236.031 22.6484C236.302 23.0651 236.438 23.5885 236.438 24.2188V28.1562C236.438 28.4375 236.461 28.737 236.508 29.0547C236.56 29.3724 236.635 29.6458 236.734 29.875V30H235.227C235.154 29.8333 235.096 29.612 235.055 29.3359C235.013 29.0547 234.992 28.7943 234.992 28.5547ZM235.242 24.875L235.258 25.8906H233.797C233.385 25.8906 233.018 25.9245 232.695 25.9922C232.372 26.0547 232.102 26.151 231.883 26.2812C231.664 26.4115 231.497 26.5755 231.383 26.7734C231.268 26.9661 231.211 27.1927 231.211 27.4531C231.211 27.7188 231.271 27.9609 231.391 28.1797C231.51 28.3984 231.69 28.5729 231.93 28.7031C232.174 28.8281 232.474 28.8906 232.828 28.8906C233.271 28.8906 233.661 28.7969 234 28.6094C234.339 28.4219 234.607 28.1927 234.805 27.9219C235.008 27.651 235.117 27.388 235.133 27.1328L235.75 27.8281C235.714 28.0469 235.615 28.2891 235.453 28.5547C235.292 28.8203 235.076 29.0755 234.805 29.3203C234.539 29.5599 234.221 29.7604 233.852 29.9219C233.487 30.0781 233.076 30.1562 232.617 30.1562C232.044 30.1562 231.542 30.0443 231.109 29.8203C230.682 29.5964 230.349 29.2969 230.109 28.9219C229.875 28.5417 229.758 28.1172 229.758 27.6484C229.758 27.1953 229.846 26.7969 230.023 26.4531C230.201 26.1042 230.456 25.8151 230.789 25.5859C231.122 25.3516 231.523 25.1745 231.992 25.0547C232.461 24.9349 232.984 24.875 233.562 24.875H235.242ZM240.281 18V30H238.828V18H240.281Z" fill="white"/>
<circle cx="249.5" cy="24.5" r="2" fill="white"/>
<path d="M263.023 18.625V30H261.539V18.625H263.023ZM266.68 18.625V19.8594H257.891V18.625H266.68ZM269.594 18V30H268.148V18H269.594ZM269.25 25.4531L268.648 25.4297C268.654 24.8516 268.74 24.3177 268.906 23.8281C269.073 23.3333 269.307 22.9036 269.609 22.5391C269.911 22.1745 270.271 21.8932 270.688 21.6953C271.109 21.4922 271.576 21.3906 272.086 21.3906C272.503 21.3906 272.878 21.4479 273.211 21.5625C273.544 21.6719 273.828 21.849 274.062 22.0938C274.302 22.3385 274.484 22.6562 274.609 23.0469C274.734 23.4323 274.797 23.9036 274.797 24.4609V30H273.344V24.4453C273.344 24.0026 273.279 23.6484 273.148 23.3828C273.018 23.112 272.828 22.9167 272.578 22.7969C272.328 22.6719 272.021 22.6094 271.656 22.6094C271.297 22.6094 270.969 22.6849 270.672 22.8359C270.38 22.987 270.128 23.1953 269.914 23.4609C269.706 23.7266 269.542 24.0312 269.422 24.375C269.307 24.7135 269.25 25.0729 269.25 25.4531ZM278.406 22.875V30H276.961V21.5469H278.367L278.406 22.875ZM281.047 21.5L281.039 22.8438C280.919 22.8177 280.805 22.8021 280.695 22.7969C280.591 22.7865 280.471 22.7812 280.336 22.7812C280.003 22.7812 279.708 22.8333 279.453 22.9375C279.198 23.0417 278.982 23.1875 278.805 23.375C278.628 23.5625 278.487 23.7865 278.383 24.0469C278.284 24.3021 278.219 24.5833 278.188 24.8906L277.781 25.125C277.781 24.6146 277.831 24.1354 277.93 23.6875C278.034 23.2396 278.193 22.8438 278.406 22.5C278.62 22.151 278.891 21.8802 279.219 21.6875C279.552 21.4896 279.948 21.3906 280.406 21.3906C280.51 21.3906 280.63 21.4036 280.766 21.4297C280.901 21.4505 280.995 21.474 281.047 21.5ZM283.953 21.5469V30H282.5V21.5469H283.953ZM282.391 19.3047C282.391 19.0703 282.461 18.8724 282.602 18.7109C282.747 18.5495 282.961 18.4688 283.242 18.4688C283.518 18.4688 283.729 18.5495 283.875 18.7109C284.026 18.8724 284.102 19.0703 284.102 19.3047C284.102 19.5286 284.026 19.7214 283.875 19.8828C283.729 20.0391 283.518 20.1172 283.242 20.1172C282.961 20.1172 282.747 20.0391 282.602 19.8828C282.461 19.7214 282.391 19.5286 282.391 19.3047ZM287.844 18V30H286.391V18H287.844ZM291.734 18V30H290.281V18H291.734ZM297.562 30.1562C296.974 30.1562 296.44 30.0573 295.961 29.8594C295.487 29.6562 295.078 29.3724 294.734 29.0078C294.396 28.6432 294.135 28.2109 293.953 27.7109C293.771 27.2109 293.68 26.6641 293.68 26.0703V25.7422C293.68 25.0547 293.781 24.4427 293.984 23.9062C294.188 23.3646 294.464 22.9062 294.812 22.5312C295.161 22.1562 295.557 21.8724 296 21.6797C296.443 21.487 296.901 21.3906 297.375 21.3906C297.979 21.3906 298.5 21.4948 298.938 21.7031C299.38 21.9115 299.742 22.2031 300.023 22.5781C300.305 22.9479 300.513 23.3854 300.648 23.8906C300.784 24.3906 300.852 24.9375 300.852 25.5312V26.1797H294.539V25H299.406V24.8906C299.385 24.5156 299.307 24.151 299.172 23.7969C299.042 23.4427 298.833 23.151 298.547 22.9219C298.26 22.6927 297.87 22.5781 297.375 22.5781C297.047 22.5781 296.745 22.6484 296.469 22.7891C296.193 22.9245 295.956 23.1276 295.758 23.3984C295.56 23.6693 295.406 24 295.297 24.3906C295.188 24.7812 295.133 25.2318 295.133 25.7422V26.0703C295.133 26.4714 295.188 26.849 295.297 27.2031C295.411 27.5521 295.576 27.8594 295.789 28.125C296.008 28.3906 296.271 28.599 296.578 28.75C296.891 28.901 297.245 28.9766 297.641 28.9766C298.151 28.9766 298.583 28.8724 298.938 28.6641C299.292 28.4557 299.602 28.1771 299.867 27.8281L300.742 28.5234C300.56 28.7995 300.328 29.0625 300.047 29.3125C299.766 29.5625 299.419 29.7656 299.008 29.9219C298.602 30.0781 298.12 30.1562 297.562 30.1562ZM303.984 22.875V30H302.539V21.5469H303.945L303.984 22.875ZM306.625 21.5L306.617 22.8438C306.497 22.8177 306.383 22.8021 306.273 22.7969C306.169 22.7865 306.049 22.7812 305.914 22.7812C305.581 22.7812 305.286 22.8333 305.031 22.9375C304.776 23.0417 304.56 23.1875 304.383 23.375C304.206 23.5625 304.065 23.7865 303.961 24.0469C303.862 24.3021 303.797 24.5833 303.766 24.8906L303.359 25.125C303.359 24.6146 303.409 24.1354 303.508 23.6875C303.612 23.2396 303.771 22.8438 303.984 22.5C304.198 22.151 304.469 21.8802 304.797 21.6875C305.13 21.4896 305.526 21.3906 305.984 21.3906C306.089 21.3906 306.208 21.4036 306.344 21.4297C306.479 21.4505 306.573 21.474 306.625 21.5Z" fill="white"/>
<rect x="45" y="54" width="149" height="42" rx="5" fill="white"/>
<path d="M106.75 74.5L87.25 64V86L106.75 74.5Z" fill="black" stroke="black" stroke-width="2" stroke-linecap="round" stroke-linejoin="round"/>
<path d="M122.911 76.7275H119.58V74.9785H122.911C123.491 74.9785 123.96 74.8848 124.317 74.6973C124.675 74.5098 124.936 74.252 125.1 73.9238C125.27 73.5898 125.354 73.209 125.354 72.7812C125.354 72.377 125.27 71.999 125.1 71.6475C124.936 71.29 124.675 71.0029 124.317 70.7861C123.96 70.5693 123.491 70.4609 122.911 70.4609H120.257V81.5H118.051V68.7031H122.911C123.901 68.7031 124.742 68.8789 125.434 69.2305C126.131 69.5762 126.661 70.0566 127.024 70.6719C127.388 71.2812 127.569 71.9785 127.569 72.7637C127.569 73.5898 127.388 74.2988 127.024 74.8906C126.661 75.4824 126.131 75.9365 125.434 76.2529C124.742 76.5693 123.901 76.7275 122.911 76.7275ZM131.604 68V81.5H129.477V68H131.604ZM139.285 79.5928V75.0576C139.285 74.7178 139.224 74.4248 139.101 74.1787C138.978 73.9326 138.79 73.7422 138.538 73.6074C138.292 73.4727 137.981 73.4053 137.606 73.4053C137.261 73.4053 136.962 73.4639 136.71 73.5811C136.458 73.6982 136.262 73.8564 136.121 74.0557C135.98 74.2549 135.91 74.4805 135.91 74.7324H133.801C133.801 74.3574 133.892 73.9941 134.073 73.6426C134.255 73.291 134.519 72.9775 134.864 72.7021C135.21 72.4268 135.623 72.21 136.104 72.0518C136.584 71.8936 137.123 71.8145 137.721 71.8145C138.436 71.8145 139.068 71.9346 139.619 72.1748C140.176 72.415 140.612 72.7783 140.929 73.2646C141.251 73.7451 141.412 74.3486 141.412 75.0752V79.3027C141.412 79.7363 141.441 80.126 141.5 80.4717C141.564 80.8115 141.655 81.1074 141.772 81.3594V81.5H139.602C139.502 81.2715 139.423 80.9814 139.364 80.6299C139.312 80.2725 139.285 79.9268 139.285 79.5928ZM139.593 75.7168L139.61 77.0264H138.09C137.697 77.0264 137.352 77.0645 137.053 77.1406C136.754 77.2109 136.505 77.3164 136.306 77.457C136.106 77.5977 135.957 77.7676 135.857 77.9668C135.758 78.166 135.708 78.3916 135.708 78.6436C135.708 78.8955 135.767 79.127 135.884 79.3379C136.001 79.543 136.171 79.7041 136.394 79.8213C136.622 79.9385 136.897 79.9971 137.22 79.9971C137.653 79.9971 138.031 79.9092 138.354 79.7334C138.682 79.5518 138.939 79.332 139.127 79.0742C139.314 78.8105 139.414 78.5615 139.426 78.3271L140.111 79.2676C140.041 79.5078 139.921 79.7656 139.751 80.041C139.581 80.3164 139.358 80.5801 139.083 80.832C138.813 81.0781 138.488 81.2803 138.107 81.4385C137.732 81.5967 137.299 81.6758 136.807 81.6758C136.186 81.6758 135.632 81.5527 135.146 81.3066C134.659 81.0547 134.278 80.7178 134.003 80.2959C133.728 79.8682 133.59 79.3848 133.59 78.8457C133.59 78.3418 133.684 77.8965 133.871 77.5098C134.064 77.1172 134.346 76.7891 134.715 76.5254C135.09 76.2617 135.547 76.0625 136.086 75.9277C136.625 75.7871 137.24 75.7168 137.932 75.7168H139.593ZM146.246 80.4629L148.83 71.9902H151.098L147.283 82.9502C147.195 83.1846 147.081 83.4395 146.94 83.7148C146.8 83.9902 146.615 84.251 146.387 84.4971C146.164 84.749 145.886 84.9512 145.552 85.1035C145.218 85.2617 144.813 85.3408 144.339 85.3408C144.151 85.3408 143.97 85.3232 143.794 85.2881C143.624 85.2588 143.463 85.2266 143.311 85.1914L143.302 83.5742C143.36 83.5801 143.431 83.5859 143.513 83.5918C143.601 83.5977 143.671 83.6006 143.724 83.6006C144.075 83.6006 144.368 83.5566 144.603 83.4688C144.837 83.3867 145.027 83.252 145.174 83.0645C145.326 82.877 145.455 82.625 145.561 82.3086L146.246 80.4629ZM144.787 71.9902L147.046 79.1094L147.424 81.3418L145.956 81.7197L142.502 71.9902H144.787Z" fill="black"/>
<rect x="206" y="54" width="149" height="41" rx="5" fill="#2B2B2D"/>
<path d="M236 76.25L241.5 81.75L256 67.25" stroke="white" stroke-width="2" stroke-linecap="square" stroke-linejoin="round"/>
<path d="M268.197 68.2031H270.166L273.866 78.0732L277.558 68.2031H279.526L274.64 81H273.075L268.197 68.2031ZM267.301 68.2031H269.173L269.498 76.7461V81H267.301V68.2031ZM278.551 68.2031H280.432V81H278.226V76.7461L278.551 68.2031ZM285.6 79.9629L288.184 71.4902H290.451L286.637 82.4502C286.549 82.6846 286.435 82.9395 286.294 83.2148C286.153 83.4902 285.969 83.751 285.74 83.9971C285.518 84.249 285.239 84.4512 284.905 84.6035C284.571 84.7617 284.167 84.8408 283.692 84.8408C283.505 84.8408 283.323 84.8232 283.147 84.7881C282.978 84.7588 282.816 84.7266 282.664 84.6914L282.655 83.0742C282.714 83.0801 282.784 83.0859 282.866 83.0918C282.954 83.0977 283.024 83.1006 283.077 83.1006C283.429 83.1006 283.722 83.0566 283.956 82.9688C284.19 82.8867 284.381 82.752 284.527 82.5645C284.68 82.377 284.809 82.125 284.914 81.8086L285.6 79.9629ZM284.141 71.4902L286.399 78.6094L286.777 80.8418L285.31 81.2197L281.855 71.4902H284.141ZM304.373 79.251V81H297.948V79.251H304.373ZM298.563 68.2031V81H296.357V68.2031H298.563ZM308.135 71.4902V81H306.008V71.4902H308.135ZM305.867 68.9941C305.867 68.6719 305.973 68.4053 306.184 68.1943C306.4 67.9775 306.699 67.8691 307.08 67.8691C307.455 67.8691 307.751 67.9775 307.968 68.1943C308.185 68.4053 308.293 68.6719 308.293 68.9941C308.293 69.3105 308.185 69.5742 307.968 69.7852C307.751 69.9961 307.455 70.1016 307.08 70.1016C306.699 70.1016 306.4 69.9961 306.184 69.7852C305.973 69.5742 305.867 69.3105 305.867 68.9941ZM315.79 78.4248C315.79 78.2139 315.737 78.0234 315.632 77.8535C315.526 77.6777 315.324 77.5195 315.025 77.3789C314.732 77.2383 314.299 77.1094 313.725 76.9922C313.221 76.8809 312.758 76.749 312.336 76.5967C311.92 76.4385 311.562 76.248 311.264 76.0254C310.965 75.8027 310.733 75.5391 310.569 75.2344C310.405 74.9297 310.323 74.5781 310.323 74.1797C310.323 73.793 310.408 73.4268 310.578 73.0811C310.748 72.7354 310.991 72.4307 311.308 72.167C311.624 71.9033 312.008 71.6953 312.459 71.543C312.916 71.3906 313.426 71.3145 313.988 71.3145C314.785 71.3145 315.468 71.4492 316.036 71.7188C316.61 71.9824 317.05 72.3428 317.354 72.7998C317.659 73.251 317.812 73.7607 317.812 74.3291H315.693C315.693 74.0771 315.629 73.8428 315.5 73.626C315.377 73.4033 315.189 73.2246 314.938 73.0898C314.686 72.9492 314.369 72.8789 313.988 72.8789C313.625 72.8789 313.323 72.9375 313.083 73.0547C312.849 73.166 312.673 73.3125 312.556 73.4941C312.444 73.6758 312.389 73.875 312.389 74.0918C312.389 74.25 312.418 74.3936 312.477 74.5225C312.541 74.6455 312.646 74.7598 312.793 74.8652C312.939 74.9648 313.139 75.0586 313.391 75.1465C313.648 75.2344 313.971 75.3193 314.357 75.4014C315.084 75.5537 315.708 75.75 316.229 75.9902C316.757 76.2246 317.161 76.5293 317.442 76.9043C317.724 77.2734 317.864 77.7422 317.864 78.3105C317.864 78.7324 317.773 79.1191 317.592 79.4707C317.416 79.8164 317.158 80.1182 316.818 80.376C316.479 80.6279 316.071 80.8242 315.597 80.9648C315.128 81.1055 314.601 81.1758 314.015 81.1758C313.153 81.1758 312.424 81.0234 311.826 80.7188C311.229 80.4082 310.774 80.0127 310.464 79.5322C310.159 79.0459 310.007 78.542 310.007 78.0205H312.055C312.078 78.4131 312.187 78.7266 312.38 78.9609C312.579 79.1895 312.825 79.3564 313.118 79.4619C313.417 79.5615 313.725 79.6113 314.041 79.6113C314.422 79.6113 314.741 79.5615 314.999 79.4619C315.257 79.3564 315.453 79.2158 315.588 79.04C315.723 78.8584 315.79 78.6533 315.79 78.4248ZM324.078 71.4902V73.0371H318.717V71.4902H324.078ZM320.264 69.1611H322.382V78.3721C322.382 78.665 322.423 78.8906 322.505 79.0488C322.593 79.2012 322.713 79.3037 322.865 79.3564C323.018 79.4092 323.196 79.4355 323.401 79.4355C323.548 79.4355 323.688 79.4268 323.823 79.4092C323.958 79.3916 324.066 79.374 324.148 79.3564L324.157 80.9736C323.981 81.0264 323.776 81.0732 323.542 81.1143C323.313 81.1553 323.05 81.1758 322.751 81.1758C322.265 81.1758 321.834 81.0908 321.459 80.9209C321.084 80.7451 320.791 80.4609 320.58 80.0684C320.369 79.6758 320.264 79.1543 320.264 78.5039V69.1611Z" fill="white"/>
</svg>
