<svg width="398" height="125" viewBox="0 0 398 125" fill="none" xmlns="http://www.w3.org/2000/svg">
<g filter="url(#filter0_b_241_6066)">
<rect width="398" height="125" rx="10" fill="#181818"/>
<path d="M28.4141 26.5273L23.5508 41H20.1406L26.5156 23.9375H28.6953L28.4141 26.5273ZM32.4805 41L27.5938 26.5273L27.3008 23.9375H29.4922L35.9023 41H32.4805ZM32.2578 34.6602V37.2031H23.1055V34.6602H32.2578ZM45.0312 38.3047V23H48.1484V41H45.3359L45.0312 38.3047ZM36.8867 34.8125V34.5664C36.8867 33.5977 36.9961 32.7188 37.2148 31.9297C37.4414 31.1328 37.7695 30.4492 38.1992 29.8789C38.6289 29.3086 39.1484 28.8672 39.7578 28.5547C40.375 28.2422 41.0742 28.0859 41.8555 28.0859C42.6133 28.0859 43.2734 28.2383 43.8359 28.543C44.4062 28.8477 44.8906 29.2812 45.2891 29.8438C45.6953 30.4062 46.0195 31.0742 46.2617 31.8477C46.5039 32.6133 46.6797 33.457 46.7891 34.3789V35.0469C46.6797 35.9453 46.5039 36.7695 46.2617 37.5195C46.0195 38.2695 45.6953 38.9258 45.2891 39.4883C44.8906 40.043 44.4062 40.4727 43.8359 40.7773C43.2656 41.082 42.5977 41.2344 41.832 41.2344C41.0586 41.2344 40.3633 41.0742 39.7461 40.7539C39.1367 40.4336 38.6172 39.9844 38.1875 39.4062C37.7656 38.8281 37.4414 38.1484 37.2148 37.3672C36.9961 36.5859 36.8867 35.7344 36.8867 34.8125ZM39.9922 34.5664V34.8125C39.9922 35.3594 40.0391 35.8711 40.1328 36.3477C40.2266 36.8242 40.3789 37.2461 40.5898 37.6133C40.8008 37.9727 41.0703 38.2539 41.3984 38.457C41.7344 38.6602 42.1406 38.7617 42.6172 38.7617C43.2266 38.7617 43.7266 38.6289 44.1172 38.3633C44.5156 38.0898 44.8242 37.7188 45.043 37.25C45.2617 36.7734 45.4023 36.2383 45.4648 35.6445V33.8047C45.4336 33.3359 45.3516 32.9023 45.2188 32.5039C45.0938 32.1055 44.9141 31.7617 44.6797 31.4727C44.4531 31.1836 44.1719 30.957 43.8359 30.793C43.5 30.6289 43.1016 30.5469 42.6406 30.5469C42.1641 30.5469 41.7578 30.6523 41.4219 30.8633C41.0859 31.0664 40.8125 31.3516 40.6016 31.7188C40.3906 32.0859 40.2344 32.5117 40.1328 32.9961C40.0391 33.4805 39.9922 34.0039 39.9922 34.5664ZM54.0312 30.9219V41H50.9375V28.3203H53.8555L54.0312 30.9219ZM53.5742 34.2031H52.625C52.625 33.3203 52.7305 32.5078 52.9414 31.7656C53.1602 31.0234 53.4805 30.3789 53.9023 29.832C54.3242 29.2773 54.8438 28.8477 55.4609 28.543C56.0859 28.2383 56.8086 28.0859 57.6289 28.0859C58.1992 28.0859 58.7227 28.1719 59.1992 28.3438C59.6758 28.5078 60.0859 28.7695 60.4297 29.1289C60.7812 29.4805 61.0508 29.9414 61.2383 30.5117C61.4258 31.0742 61.5195 31.75 61.5195 32.5391V41H58.4258V32.8555C58.4258 32.2617 58.3398 31.7969 58.168 31.4609C58.0039 31.125 57.7656 30.8906 57.4531 30.7578C57.1406 30.6172 56.7656 30.5469 56.3281 30.5469C55.8438 30.5469 55.4258 30.6445 55.0742 30.8398C54.7305 31.0273 54.4453 31.2891 54.2188 31.625C54 31.9609 53.8359 32.3477 53.7266 32.7852C53.625 33.2227 53.5742 33.6953 53.5742 34.2031ZM61.2852 33.6289L60.0078 33.8633C60.0156 33.0664 60.125 32.3203 60.3359 31.625C60.5469 30.9219 60.8555 30.3086 61.2617 29.7852C61.6758 29.2539 62.1875 28.8398 62.7969 28.543C63.4141 28.2383 64.125 28.0859 64.9297 28.0859C65.5547 28.0859 66.1172 28.1758 66.6172 28.3555C67.125 28.5273 67.5586 28.8047 67.918 29.1875C68.2773 29.5625 68.5508 30.0508 68.7383 30.6523C68.9336 31.2539 69.0312 31.9883 69.0312 32.8555V41H65.9141V32.8438C65.9141 32.2266 65.8281 31.7539 65.6562 31.4258C65.4922 31.0977 65.2539 30.8711 64.9414 30.7461C64.6289 30.6133 64.2617 30.5469 63.8398 30.5469C63.4102 30.5469 63.0352 30.6289 62.7148 30.793C62.4023 30.9492 62.1367 31.168 61.918 31.4492C61.707 31.7305 61.5469 32.0586 61.4375 32.4336C61.3359 32.8008 61.2852 33.1992 61.2852 33.6289ZM75.0898 28.3203V41H71.9844V28.3203H75.0898ZM71.7734 25.0039C71.7734 24.543 71.9297 24.1602 72.2422 23.8555C72.5625 23.5508 72.9922 23.3984 73.5312 23.3984C74.0703 23.3984 74.4961 23.5508 74.8086 23.8555C75.1289 24.1602 75.2891 24.543 75.2891 25.0039C75.2891 25.457 75.1289 25.8359 74.8086 26.1406C74.4961 26.4453 74.0703 26.5977 73.5312 26.5977C72.9922 26.5977 72.5625 26.4453 72.2422 26.1406C71.9297 25.8359 71.7734 25.457 71.7734 25.0039ZM81.0781 31.0273V41H77.9844V28.3203H80.8906L81.0781 31.0273ZM80.5859 34.2031H79.6719C79.6797 33.2812 79.8047 32.4453 80.0469 31.6953C80.2891 30.9453 80.6289 30.3008 81.0664 29.7617C81.5117 29.2227 82.0391 28.8086 82.6484 28.5195C83.2578 28.2305 83.9375 28.0859 84.6875 28.0859C85.2969 28.0859 85.8477 28.1719 86.3398 28.3438C86.832 28.5156 87.2539 28.7891 87.6055 29.1641C87.9648 29.5391 88.2383 30.0312 88.4258 30.6406C88.6211 31.2422 88.7188 31.9844 88.7188 32.8672V41H85.6016V32.8438C85.6016 32.2656 85.5156 31.8086 85.3438 31.4727C85.1797 31.1367 84.9375 30.8984 84.6172 30.7578C84.3047 30.6172 83.918 30.5469 83.457 30.5469C82.9805 30.5469 82.5625 30.6445 82.2031 30.8398C81.8516 31.0273 81.5547 31.2891 81.3125 31.625C81.0781 31.9609 80.8984 32.3477 80.7734 32.7852C80.6484 33.2227 80.5859 33.6953 80.5859 34.2031Z" fill="white"/>
<g clip-path="url(#clip0_241_6066)">
<path d="M327.625 22.375H307.375C306.137 22.375 305.125 23.3875 305.125 24.625V28H307.375V24.625H327.625V40.375H319.75V42.625H327.625C328.862 42.625 329.875 41.6125 329.875 40.375V24.625C329.875 23.3875 328.862 22.375 327.625 22.375ZM305.125 39.25V42.625H308.5C308.5 40.7575 306.992 39.25 305.125 39.25ZM305.125 34.75V37C308.23 37 310.75 39.52 310.75 42.625H313C313 38.2712 309.479 34.75 305.125 34.75ZM305.125 30.25V32.5C310.716 32.5 315.25 37.0338 315.25 42.625H317.5C317.5 35.785 311.954 30.25 305.125 30.25Z" fill="white"/>
</g>
<g clip-path="url(#clip1_241_6066)">
<circle cx="364.5" cy="32.5" r="8.5" stroke="white" stroke-width="2"/>
<path d="M371 39L375 43" stroke="white" stroke-width="2" stroke-linecap="round"/>
</g>
<rect x="20.5" y="67.5" width="64" height="38" rx="19" stroke="#615E65"/>
<path d="M37.1406 89.0703C37.1406 88.8359 37.1042 88.6276 37.0312 88.4453C36.9635 88.263 36.8411 88.0964 36.6641 87.9453C36.487 87.7943 36.237 87.6484 35.9141 87.5078C35.5964 87.362 35.1901 87.2135 34.6953 87.0625C34.1536 86.8958 33.6536 86.7109 33.1953 86.5078C32.7422 86.2995 32.3464 86.0599 32.0078 85.7891C31.6693 85.513 31.4062 85.1979 31.2188 84.8438C31.0312 84.4844 30.9375 84.0703 30.9375 83.6016C30.9375 83.138 31.0339 82.7161 31.2266 82.3359C31.4245 81.9557 31.7031 81.6276 32.0625 81.3516C32.4271 81.0703 32.8568 80.8542 33.3516 80.7031C33.8464 80.5469 34.3932 80.4688 34.9922 80.4688C35.8359 80.4688 36.5625 80.625 37.1719 80.9375C37.7865 81.25 38.2578 81.6693 38.5859 82.1953C38.9193 82.7214 39.0859 83.3021 39.0859 83.9375H37.1406C37.1406 83.5625 37.0599 83.2318 36.8984 82.9453C36.7422 82.6536 36.5026 82.4245 36.1797 82.2578C35.862 82.0911 35.4583 82.0078 34.9688 82.0078C34.5052 82.0078 34.1198 82.0781 33.8125 82.2188C33.5052 82.3594 33.276 82.5495 33.125 82.7891C32.974 83.0286 32.8984 83.2995 32.8984 83.6016C32.8984 83.8151 32.9479 84.0104 33.0469 84.1875C33.1458 84.3594 33.2969 84.5208 33.5 84.6719C33.7031 84.8177 33.9583 84.9557 34.2656 85.0859C34.5729 85.2161 34.9349 85.3411 35.3516 85.4609C35.9818 85.6484 36.5312 85.8568 37 86.0859C37.4688 86.3099 37.8594 86.5651 38.1719 86.8516C38.4844 87.138 38.7188 87.4635 38.875 87.8281C39.0312 88.1875 39.1094 88.5964 39.1094 89.0547C39.1094 89.5339 39.013 89.9661 38.8203 90.3516C38.6276 90.7318 38.3516 91.0573 37.9922 91.3281C37.638 91.5938 37.2109 91.7995 36.7109 91.9453C36.2161 92.0859 35.6641 92.1562 35.0547 92.1562C34.5078 92.1562 33.9688 92.0833 33.4375 91.9375C32.9115 91.7917 32.4323 91.5703 32 91.2734C31.5677 90.9714 31.224 90.5964 30.9688 90.1484C30.7135 89.6953 30.5859 89.1667 30.5859 88.5625H32.5469C32.5469 88.9323 32.6094 89.2474 32.7344 89.5078C32.8646 89.7682 33.0443 89.9818 33.2734 90.1484C33.5026 90.3099 33.7682 90.4297 34.0703 90.5078C34.3776 90.5859 34.7057 90.625 35.0547 90.625C35.513 90.625 35.8958 90.5599 36.2031 90.4297C36.5156 90.2995 36.75 90.1172 36.9062 89.8828C37.0625 89.6484 37.1406 89.3776 37.1406 89.0703ZM44.3828 92.1562C43.7578 92.1562 43.1927 92.0547 42.6875 91.8516C42.1875 91.6432 41.7604 91.3542 41.4062 90.9844C41.0573 90.6146 40.7891 90.1797 40.6016 89.6797C40.4141 89.1797 40.3203 88.6406 40.3203 88.0625V87.75C40.3203 87.0885 40.4167 86.4896 40.6094 85.9531C40.8021 85.4167 41.0703 84.9583 41.4141 84.5781C41.7578 84.1927 42.1641 83.8984 42.6328 83.6953C43.1016 83.4922 43.6094 83.3906 44.1562 83.3906C44.7604 83.3906 45.2891 83.4922 45.7422 83.6953C46.1953 83.8984 46.5703 84.1849 46.8672 84.5547C47.1693 84.9193 47.3932 85.3542 47.5391 85.8594C47.6901 86.3646 47.7656 86.9219 47.7656 87.5312V88.3359H41.2344V86.9844H45.9062V86.8359C45.8958 86.4974 45.8281 86.1797 45.7031 85.8828C45.5833 85.5859 45.3984 85.3464 45.1484 85.1641C44.8984 84.9818 44.5651 84.8906 44.1484 84.8906C43.8359 84.8906 43.5573 84.9583 43.3125 85.0938C43.0729 85.224 42.8724 85.4141 42.7109 85.6641C42.5495 85.9141 42.4245 86.2161 42.3359 86.5703C42.2526 86.9193 42.2109 87.3125 42.2109 87.75V88.0625C42.2109 88.4323 42.2604 88.776 42.3594 89.0938C42.4635 89.4062 42.6146 89.6797 42.8125 89.9141C43.0104 90.1484 43.25 90.3333 43.5312 90.4688C43.8125 90.599 44.1328 90.6641 44.4922 90.6641C44.9453 90.6641 45.349 90.5729 45.7031 90.3906C46.0573 90.2083 46.3646 89.9505 46.625 89.6172L47.6172 90.5781C47.4349 90.8438 47.1979 91.099 46.9062 91.3438C46.6146 91.5833 46.2578 91.7786 45.8359 91.9297C45.4193 92.0807 44.9349 92.1562 44.3828 92.1562ZM51.125 85.1562V92H49.2422V83.5469H51.0391L51.125 85.1562ZM53.7109 83.4922L53.6953 85.2422C53.5807 85.2214 53.4557 85.2057 53.3203 85.1953C53.1901 85.1849 53.0599 85.1797 52.9297 85.1797C52.6068 85.1797 52.3229 85.2266 52.0781 85.3203C51.8333 85.4089 51.6276 85.5391 51.4609 85.7109C51.2995 85.8776 51.1745 86.0807 51.0859 86.3203C50.9974 86.5599 50.9453 86.8281 50.9297 87.125L50.5 87.1562C50.5 86.625 50.5521 86.1328 50.6562 85.6797C50.7604 85.2266 50.9167 84.8281 51.125 84.4844C51.3385 84.1406 51.6042 83.8724 51.9219 83.6797C52.2448 83.487 52.6172 83.3906 53.0391 83.3906C53.1536 83.3906 53.276 83.401 53.4062 83.4219C53.5417 83.4427 53.6432 83.4661 53.7109 83.4922ZM56.9062 83.5469V92H55.0156V83.5469H56.9062ZM54.8906 81.3281C54.8906 81.0417 54.9844 80.8047 55.1719 80.6172C55.3646 80.4245 55.6302 80.3281 55.9688 80.3281C56.3021 80.3281 56.5651 80.4245 56.7578 80.6172C56.9505 80.8047 57.0469 81.0417 57.0469 81.3281C57.0469 81.6094 56.9505 81.8438 56.7578 82.0312C56.5651 82.2188 56.3021 82.3125 55.9688 82.3125C55.6302 82.3125 55.3646 82.2188 55.1719 82.0312C54.9844 81.8438 54.8906 81.6094 54.8906 81.3281ZM62.6953 92.1562C62.0703 92.1562 61.5052 92.0547 61 91.8516C60.5 91.6432 60.0729 91.3542 59.7188 90.9844C59.3698 90.6146 59.1016 90.1797 58.9141 89.6797C58.7266 89.1797 58.6328 88.6406 58.6328 88.0625V87.75C58.6328 87.0885 58.7292 86.4896 58.9219 85.9531C59.1146 85.4167 59.3828 84.9583 59.7266 84.5781C60.0703 84.1927 60.4766 83.8984 60.9453 83.6953C61.4141 83.4922 61.9219 83.3906 62.4688 83.3906C63.0729 83.3906 63.6016 83.4922 64.0547 83.6953C64.5078 83.8984 64.8828 84.1849 65.1797 84.5547C65.4818 84.9193 65.7057 85.3542 65.8516 85.8594C66.0026 86.3646 66.0781 86.9219 66.0781 87.5312V88.3359H59.5469V86.9844H64.2188V86.8359C64.2083 86.4974 64.1406 86.1797 64.0156 85.8828C63.8958 85.5859 63.7109 85.3464 63.4609 85.1641C63.2109 84.9818 62.8776 84.8906 62.4609 84.8906C62.1484 84.8906 61.8698 84.9583 61.625 85.0938C61.3854 85.224 61.1849 85.4141 61.0234 85.6641C60.862 85.9141 60.737 86.2161 60.6484 86.5703C60.5651 86.9193 60.5234 87.3125 60.5234 87.75V88.0625C60.5234 88.4323 60.5729 88.776 60.6719 89.0938C60.776 89.4062 60.9271 89.6797 61.125 89.9141C61.3229 90.1484 61.5625 90.3333 61.8438 90.4688C62.125 90.599 62.4453 90.6641 62.8047 90.6641C63.2578 90.6641 63.6615 90.5729 64.0156 90.3906C64.3698 90.2083 64.6771 89.9505 64.9375 89.6172L65.9297 90.5781C65.7474 90.8438 65.5104 91.099 65.2188 91.3438C64.9271 91.5833 64.5703 91.7786 64.1484 91.9297C63.7318 92.0807 63.2474 92.1562 62.6953 92.1562ZM72.2891 89.7109C72.2891 89.5234 72.2422 89.3542 72.1484 89.2031C72.0547 89.0469 71.875 88.9062 71.6094 88.7812C71.349 88.6562 70.9635 88.5417 70.4531 88.4375C70.0052 88.3385 69.5938 88.2214 69.2188 88.0859C68.849 87.9453 68.5312 87.776 68.2656 87.5781C68 87.3802 67.7943 87.1458 67.6484 86.875C67.5026 86.6042 67.4297 86.2917 67.4297 85.9375C67.4297 85.5938 67.5052 85.2682 67.6562 84.9609C67.8073 84.6536 68.0234 84.3828 68.3047 84.1484C68.5859 83.9141 68.9271 83.7292 69.3281 83.5938C69.7344 83.4583 70.1875 83.3906 70.6875 83.3906C71.3958 83.3906 72.0026 83.5104 72.5078 83.75C73.0182 83.9844 73.4089 84.3047 73.6797 84.7109C73.9505 85.112 74.0859 85.5651 74.0859 86.0703H72.2031C72.2031 85.8464 72.1458 85.638 72.0312 85.4453C71.9219 85.2474 71.7552 85.0885 71.5312 84.9688C71.3073 84.8438 71.026 84.7812 70.6875 84.7812C70.3646 84.7812 70.0964 84.8333 69.8828 84.9375C69.6745 85.0365 69.5182 85.1667 69.4141 85.3281C69.3151 85.4896 69.2656 85.6667 69.2656 85.8594C69.2656 86 69.2917 86.1276 69.3438 86.2422C69.401 86.3516 69.4948 86.4531 69.625 86.5469C69.7552 86.6354 69.9323 86.7188 70.1562 86.7969C70.3854 86.875 70.6719 86.9505 71.0156 87.0234C71.6615 87.1589 72.2161 87.3333 72.6797 87.5469C73.1484 87.7552 73.5078 88.026 73.7578 88.3594C74.0078 88.6875 74.1328 89.1042 74.1328 89.6094C74.1328 89.9844 74.0521 90.3281 73.8906 90.6406C73.7344 90.9479 73.5052 91.2161 73.2031 91.4453C72.901 91.6693 72.5391 91.8438 72.1172 91.9688C71.7005 92.0938 71.2318 92.1562 70.7109 92.1562C69.9453 92.1562 69.2969 92.0208 68.7656 91.75C68.2344 91.474 67.8307 91.1224 67.5547 90.6953C67.2839 90.263 67.1484 89.8151 67.1484 89.3516H68.9688C68.9896 89.7005 69.0859 89.9792 69.2578 90.1875C69.4349 90.3906 69.6536 90.5391 69.9141 90.6328C70.1797 90.7214 70.4531 90.7656 70.7344 90.7656C71.0729 90.7656 71.3568 90.7214 71.5859 90.6328C71.8151 90.5391 71.9896 90.4141 72.1094 90.2578C72.2292 90.0964 72.2891 89.9141 72.2891 89.7109Z" fill="white"/>
<rect x="102.5" y="67.5" width="59" height="38" rx="19" stroke="#615E65"/>
<path d="M115.117 80.625V92H113.156V80.625H115.117ZM119.758 85.6016V87.1562H114.617V85.6016H119.758ZM120.406 80.625V82.1875H114.617V80.625H120.406ZM123.797 83.5469V92H121.906V83.5469H123.797ZM121.781 81.3281C121.781 81.0417 121.875 80.8047 122.062 80.6172C122.255 80.4245 122.521 80.3281 122.859 80.3281C123.193 80.3281 123.456 80.4245 123.648 80.6172C123.841 80.8047 123.938 81.0417 123.938 81.3281C123.938 81.6094 123.841 81.8438 123.648 82.0312C123.456 82.2188 123.193 82.3125 122.859 82.3125C122.521 82.3125 122.255 82.2188 122.062 82.0312C121.875 81.8438 121.781 81.6094 121.781 81.3281ZM127.875 80V92H125.984V80H127.875ZM131.82 85.2656V92H129.938V83.5469H131.711L131.82 85.2656ZM131.516 87.4609L130.875 87.4531C130.875 86.8698 130.948 86.3307 131.094 85.8359C131.24 85.3411 131.453 84.9115 131.734 84.5469C132.016 84.1771 132.365 83.8932 132.781 83.6953C133.203 83.4922 133.69 83.3906 134.242 83.3906C134.628 83.3906 134.979 83.4479 135.297 83.5625C135.62 83.6719 135.898 83.8464 136.133 84.0859C136.372 84.3255 136.555 84.6328 136.68 85.0078C136.81 85.3828 136.875 85.8359 136.875 86.3672V92H134.992V86.5312C134.992 86.1198 134.93 85.7969 134.805 85.5625C134.685 85.3281 134.51 85.1615 134.281 85.0625C134.057 84.9583 133.789 84.9062 133.477 84.9062C133.122 84.9062 132.82 84.974 132.57 85.1094C132.326 85.2448 132.125 85.4297 131.969 85.6641C131.812 85.8984 131.698 86.1693 131.625 86.4766C131.552 86.7839 131.516 87.112 131.516 87.4609ZM136.758 86.9609L135.875 87.1562C135.875 86.6458 135.945 86.1641 136.086 85.7109C136.232 85.2526 136.443 84.8516 136.719 84.5078C137 84.1589 137.346 83.8854 137.758 83.6875C138.169 83.4896 138.641 83.3906 139.172 83.3906C139.604 83.3906 139.99 83.4505 140.328 83.5703C140.672 83.6849 140.964 83.8672 141.203 84.1172C141.443 84.3672 141.625 84.6927 141.75 85.0938C141.875 85.4896 141.938 85.9688 141.938 86.5312V92H140.047V86.5234C140.047 86.0964 139.984 85.7656 139.859 85.5312C139.74 85.2969 139.568 85.1354 139.344 85.0469C139.12 84.9531 138.852 84.9062 138.539 84.9062C138.247 84.9062 137.99 84.9609 137.766 85.0703C137.547 85.1745 137.362 85.3229 137.211 85.5156C137.06 85.7031 136.945 85.9193 136.867 86.1641C136.794 86.4089 136.758 86.6745 136.758 86.9609ZM148.617 89.7109C148.617 89.5234 148.57 89.3542 148.477 89.2031C148.383 89.0469 148.203 88.9062 147.938 88.7812C147.677 88.6562 147.292 88.5417 146.781 88.4375C146.333 88.3385 145.922 88.2214 145.547 88.0859C145.177 87.9453 144.859 87.776 144.594 87.5781C144.328 87.3802 144.122 87.1458 143.977 86.875C143.831 86.6042 143.758 86.2917 143.758 85.9375C143.758 85.5938 143.833 85.2682 143.984 84.9609C144.135 84.6536 144.352 84.3828 144.633 84.1484C144.914 83.9141 145.255 83.7292 145.656 83.5938C146.062 83.4583 146.516 83.3906 147.016 83.3906C147.724 83.3906 148.331 83.5104 148.836 83.75C149.346 83.9844 149.737 84.3047 150.008 84.7109C150.279 85.112 150.414 85.5651 150.414 86.0703H148.531C148.531 85.8464 148.474 85.638 148.359 85.4453C148.25 85.2474 148.083 85.0885 147.859 84.9688C147.635 84.8438 147.354 84.7812 147.016 84.7812C146.693 84.7812 146.424 84.8333 146.211 84.9375C146.003 85.0365 145.846 85.1667 145.742 85.3281C145.643 85.4896 145.594 85.6667 145.594 85.8594C145.594 86 145.62 86.1276 145.672 86.2422C145.729 86.3516 145.823 86.4531 145.953 86.5469C146.083 86.6354 146.26 86.7188 146.484 86.7969C146.714 86.875 147 86.9505 147.344 87.0234C147.99 87.1589 148.544 87.3333 149.008 87.5469C149.477 87.7552 149.836 88.026 150.086 88.3594C150.336 88.6875 150.461 89.1042 150.461 89.6094C150.461 89.9844 150.38 90.3281 150.219 90.6406C150.062 90.9479 149.833 91.2161 149.531 91.4453C149.229 91.6693 148.867 91.8438 148.445 91.9688C148.029 92.0938 147.56 92.1562 147.039 92.1562C146.273 92.1562 145.625 92.0208 145.094 91.75C144.562 91.474 144.159 91.1224 143.883 90.6953C143.612 90.263 143.477 89.8151 143.477 89.3516H145.297C145.318 89.7005 145.414 89.9792 145.586 90.1875C145.763 90.3906 145.982 90.5391 146.242 90.6328C146.508 90.7214 146.781 90.7656 147.062 90.7656C147.401 90.7656 147.685 90.7214 147.914 90.6328C148.143 90.5391 148.318 90.4141 148.438 90.2578C148.557 90.0964 148.617 89.9141 148.617 89.7109Z" fill="white"/>
<rect x="179.5" y="67.5" width="120" height="38" rx="19" stroke="#615E65"/>
<path d="M196.875 88.2969H198.828C198.766 89.0417 198.557 89.7057 198.203 90.2891C197.849 90.8672 197.352 91.3229 196.711 91.6562C196.07 91.9896 195.292 92.1562 194.375 92.1562C193.672 92.1562 193.039 92.0312 192.477 91.7812C191.914 91.526 191.432 91.1667 191.031 90.7031C190.63 90.2344 190.323 89.6693 190.109 89.0078C189.901 88.3464 189.797 87.6068 189.797 86.7891V85.8438C189.797 85.026 189.904 84.2865 190.117 83.625C190.336 82.9635 190.648 82.3984 191.055 81.9297C191.461 81.4557 191.948 81.0938 192.516 80.8438C193.089 80.5938 193.732 80.4688 194.445 80.4688C195.352 80.4688 196.117 80.6354 196.742 80.9688C197.367 81.3021 197.852 81.763 198.195 82.3516C198.544 82.9401 198.758 83.6146 198.836 84.375H196.883C196.831 83.8854 196.716 83.4661 196.539 83.1172C196.367 82.7682 196.112 82.5026 195.773 82.3203C195.435 82.1328 194.992 82.0391 194.445 82.0391C193.997 82.0391 193.607 82.1224 193.273 82.2891C192.94 82.4557 192.661 82.7005 192.438 83.0234C192.214 83.3464 192.044 83.7448 191.93 84.2188C191.82 84.6875 191.766 85.224 191.766 85.8281V86.7891C191.766 87.362 191.815 87.8828 191.914 88.3516C192.018 88.8151 192.174 89.2135 192.383 89.5469C192.596 89.8802 192.867 90.138 193.195 90.3203C193.523 90.5026 193.917 90.5938 194.375 90.5938C194.932 90.5938 195.383 90.5052 195.727 90.3281C196.076 90.151 196.339 89.8932 196.516 89.5547C196.698 89.2109 196.818 88.7917 196.875 88.2969ZM205.188 90.3047V86.2734C205.188 85.9714 205.133 85.7109 205.023 85.4922C204.914 85.2734 204.747 85.1042 204.523 84.9844C204.305 84.8646 204.029 84.8047 203.695 84.8047C203.388 84.8047 203.122 84.8568 202.898 84.9609C202.674 85.0651 202.5 85.2057 202.375 85.3828C202.25 85.5599 202.188 85.7604 202.188 85.9844H200.312C200.312 85.651 200.393 85.3281 200.555 85.0156C200.716 84.7031 200.951 84.4245 201.258 84.1797C201.565 83.9349 201.932 83.7422 202.359 83.6016C202.786 83.4609 203.266 83.3906 203.797 83.3906C204.432 83.3906 204.995 83.4974 205.484 83.7109C205.979 83.9245 206.367 84.2474 206.648 84.6797C206.935 85.1068 207.078 85.6432 207.078 86.2891V90.0469C207.078 90.4323 207.104 90.7786 207.156 91.0859C207.214 91.388 207.294 91.651 207.398 91.875V92H205.469C205.38 91.7969 205.31 91.5391 205.258 91.2266C205.211 90.9089 205.188 90.6016 205.188 90.3047ZM205.461 86.8594L205.477 88.0234H204.125C203.776 88.0234 203.469 88.0573 203.203 88.125C202.938 88.1875 202.716 88.2812 202.539 88.4062C202.362 88.5312 202.229 88.6823 202.141 88.8594C202.052 89.0365 202.008 89.237 202.008 89.4609C202.008 89.6849 202.06 89.8906 202.164 90.0781C202.268 90.2604 202.419 90.4036 202.617 90.5078C202.82 90.612 203.065 90.6641 203.352 90.6641C203.737 90.6641 204.073 90.5859 204.359 90.4297C204.651 90.2682 204.88 90.0729 205.047 89.8438C205.214 89.6094 205.302 89.388 205.312 89.1797L205.922 90.0156C205.859 90.2292 205.753 90.4583 205.602 90.7031C205.451 90.9479 205.253 91.1823 205.008 91.4062C204.768 91.625 204.479 91.8047 204.141 91.9453C203.807 92.0859 203.422 92.1562 202.984 92.1562C202.432 92.1562 201.94 92.0469 201.508 91.8281C201.076 91.6042 200.737 91.3047 200.492 90.9297C200.247 90.5495 200.125 90.1198 200.125 89.6406C200.125 89.1927 200.208 88.7969 200.375 88.4531C200.547 88.1042 200.797 87.8125 201.125 87.5781C201.458 87.3438 201.865 87.1667 202.344 87.0469C202.823 86.9219 203.37 86.8594 203.984 86.8594H205.461ZM212.922 83.5469V84.9219H208.156V83.5469H212.922ZM209.531 81.4766H211.414V89.6641C211.414 89.9245 211.451 90.125 211.523 90.2656C211.602 90.401 211.708 90.4922 211.844 90.5391C211.979 90.5859 212.138 90.6094 212.32 90.6094C212.451 90.6094 212.576 90.6016 212.695 90.5859C212.815 90.5703 212.911 90.5547 212.984 90.5391L212.992 91.9766C212.836 92.0234 212.654 92.0651 212.445 92.1016C212.242 92.138 212.008 92.1562 211.742 92.1562C211.31 92.1562 210.927 92.0807 210.594 91.9297C210.26 91.7734 210 91.5208 209.812 91.1719C209.625 90.8229 209.531 90.3594 209.531 89.7812V81.4766ZM218.102 92.1562C217.477 92.1562 216.911 92.0547 216.406 91.8516C215.906 91.6432 215.479 91.3542 215.125 90.9844C214.776 90.6146 214.508 90.1797 214.32 89.6797C214.133 89.1797 214.039 88.6406 214.039 88.0625V87.75C214.039 87.0885 214.135 86.4896 214.328 85.9531C214.521 85.4167 214.789 84.9583 215.133 84.5781C215.477 84.1927 215.883 83.8984 216.352 83.6953C216.82 83.4922 217.328 83.3906 217.875 83.3906C218.479 83.3906 219.008 83.4922 219.461 83.6953C219.914 83.8984 220.289 84.1849 220.586 84.5547C220.888 84.9193 221.112 85.3542 221.258 85.8594C221.409 86.3646 221.484 86.9219 221.484 87.5312V88.3359H214.953V86.9844H219.625V86.8359C219.615 86.4974 219.547 86.1797 219.422 85.8828C219.302 85.5859 219.117 85.3464 218.867 85.1641C218.617 84.9818 218.284 84.8906 217.867 84.8906C217.555 84.8906 217.276 84.9583 217.031 85.0938C216.792 85.224 216.591 85.4141 216.43 85.6641C216.268 85.9141 216.143 86.2161 216.055 86.5703C215.971 86.9193 215.93 87.3125 215.93 87.75V88.0625C215.93 88.4323 215.979 88.776 216.078 89.0938C216.182 89.4062 216.333 89.6797 216.531 89.9141C216.729 90.1484 216.969 90.3333 217.25 90.4688C217.531 90.599 217.852 90.6641 218.211 90.6641C218.664 90.6641 219.068 90.5729 219.422 90.3906C219.776 90.2083 220.083 89.9505 220.344 89.6172L221.336 90.5781C221.154 90.8438 220.917 91.099 220.625 91.3438C220.333 91.5833 219.977 91.7786 219.555 91.9297C219.138 92.0807 218.654 92.1562 218.102 92.1562ZM228.367 83.5469H230.078V91.7656C230.078 92.526 229.917 93.1719 229.594 93.7031C229.271 94.2344 228.82 94.638 228.242 94.9141C227.664 95.1953 226.995 95.3359 226.234 95.3359C225.911 95.3359 225.552 95.2891 225.156 95.1953C224.766 95.1016 224.385 94.9505 224.016 94.7422C223.651 94.5391 223.346 94.2708 223.102 93.9375L223.984 92.8281C224.286 93.1875 224.62 93.4505 224.984 93.6172C225.349 93.7839 225.732 93.8672 226.133 93.8672C226.565 93.8672 226.932 93.7865 227.234 93.625C227.542 93.4688 227.779 93.237 227.945 92.9297C228.112 92.6224 228.195 92.2474 228.195 91.8047V85.4609L228.367 83.5469ZM222.625 87.8672V87.7031C222.625 87.0625 222.703 86.4792 222.859 85.9531C223.016 85.4219 223.24 84.9661 223.531 84.5859C223.823 84.2005 224.177 83.9062 224.594 83.7031C225.01 83.4948 225.482 83.3906 226.008 83.3906C226.555 83.3906 227.021 83.4896 227.406 83.6875C227.797 83.8854 228.122 84.1693 228.383 84.5391C228.643 84.9036 228.846 85.3411 228.992 85.8516C229.143 86.3568 229.255 86.9193 229.328 87.5391V88.0625C229.26 88.6667 229.146 89.2188 228.984 89.7188C228.823 90.2188 228.609 90.651 228.344 91.0156C228.078 91.3802 227.75 91.6615 227.359 91.8594C226.974 92.0573 226.518 92.1562 225.992 92.1562C225.477 92.1562 225.01 92.0495 224.594 91.8359C224.182 91.6224 223.828 91.3229 223.531 90.9375C223.24 90.5521 223.016 90.099 222.859 89.5781C222.703 89.0521 222.625 88.4818 222.625 87.8672ZM224.508 87.7031V87.8672C224.508 88.2526 224.544 88.612 224.617 88.9453C224.695 89.2786 224.812 89.5729 224.969 89.8281C225.13 90.0781 225.333 90.276 225.578 90.4219C225.828 90.5625 226.122 90.6328 226.461 90.6328C226.904 90.6328 227.266 90.5391 227.547 90.3516C227.833 90.1641 228.052 89.9115 228.203 89.5938C228.359 89.2708 228.469 88.9115 228.531 88.5156V87.1016C228.5 86.7943 228.435 86.5078 228.336 86.2422C228.242 85.9766 228.115 85.7448 227.953 85.5469C227.792 85.3438 227.589 85.1875 227.344 85.0781C227.099 84.9635 226.81 84.9062 226.477 84.9062C226.138 84.9062 225.844 84.9792 225.594 85.125C225.344 85.2708 225.138 85.4714 224.977 85.7266C224.82 85.9818 224.703 86.2786 224.625 86.6172C224.547 86.9557 224.508 87.3177 224.508 87.7031ZM231.672 87.8672V87.6875C231.672 87.0781 231.76 86.513 231.938 85.9922C232.115 85.4661 232.37 85.0104 232.703 84.625C233.042 84.2344 233.453 83.9323 233.938 83.7188C234.427 83.5 234.979 83.3906 235.594 83.3906C236.214 83.3906 236.766 83.5 237.25 83.7188C237.74 83.9323 238.154 84.2344 238.492 84.625C238.831 85.0104 239.089 85.4661 239.266 85.9922C239.443 86.513 239.531 87.0781 239.531 87.6875V87.8672C239.531 88.4766 239.443 89.0417 239.266 89.5625C239.089 90.0833 238.831 90.5391 238.492 90.9297C238.154 91.3151 237.742 91.6172 237.258 91.8359C236.773 92.0495 236.224 92.1562 235.609 92.1562C234.99 92.1562 234.435 92.0495 233.945 91.8359C233.461 91.6172 233.049 91.3151 232.711 90.9297C232.372 90.5391 232.115 90.0833 231.938 89.5625C231.76 89.0417 231.672 88.4766 231.672 87.8672ZM233.555 87.6875V87.8672C233.555 88.2474 233.594 88.6068 233.672 88.9453C233.75 89.2839 233.872 89.5807 234.039 89.8359C234.206 90.0911 234.419 90.2917 234.68 90.4375C234.94 90.5833 235.25 90.6562 235.609 90.6562C235.958 90.6562 236.26 90.5833 236.516 90.4375C236.776 90.2917 236.99 90.0911 237.156 89.8359C237.323 89.5807 237.445 89.2839 237.523 88.9453C237.607 88.6068 237.648 88.2474 237.648 87.8672V87.6875C237.648 87.3125 237.607 86.9583 237.523 86.625C237.445 86.2865 237.32 85.987 237.148 85.7266C236.982 85.4661 236.768 85.263 236.508 85.1172C236.253 84.9661 235.948 84.8906 235.594 84.8906C235.24 84.8906 234.932 84.9661 234.672 85.1172C234.417 85.263 234.206 85.4661 234.039 85.7266C233.872 85.987 233.75 86.2865 233.672 86.625C233.594 86.9583 233.555 87.3125 233.555 87.6875ZM243 85.1562V92H241.117V83.5469H242.914L243 85.1562ZM245.586 83.4922L245.57 85.2422C245.456 85.2214 245.331 85.2057 245.195 85.1953C245.065 85.1849 244.935 85.1797 244.805 85.1797C244.482 85.1797 244.198 85.2266 243.953 85.3203C243.708 85.4089 243.503 85.5391 243.336 85.7109C243.174 85.8776 243.049 86.0807 242.961 86.3203C242.872 86.5599 242.82 86.8281 242.805 87.125L242.375 87.1562C242.375 86.625 242.427 86.1328 242.531 85.6797C242.635 85.2266 242.792 84.8281 243 84.4844C243.214 84.1406 243.479 83.8724 243.797 83.6797C244.12 83.487 244.492 83.3906 244.914 83.3906C245.029 83.3906 245.151 83.401 245.281 83.4219C245.417 83.4427 245.518 83.4661 245.586 83.4922ZM248.781 83.5469V92H246.891V83.5469H248.781ZM246.766 81.3281C246.766 81.0417 246.859 80.8047 247.047 80.6172C247.24 80.4245 247.505 80.3281 247.844 80.3281C248.177 80.3281 248.44 80.4245 248.633 80.6172C248.826 80.8047 248.922 81.0417 248.922 81.3281C248.922 81.6094 248.826 81.8438 248.633 82.0312C248.44 82.2188 248.177 82.3125 247.844 82.3125C247.505 82.3125 247.24 82.2188 247.047 82.0312C246.859 81.8438 246.766 81.6094 246.766 81.3281ZM254.57 92.1562C253.945 92.1562 253.38 92.0547 252.875 91.8516C252.375 91.6432 251.948 91.3542 251.594 90.9844C251.245 90.6146 250.977 90.1797 250.789 89.6797C250.602 89.1797 250.508 88.6406 250.508 88.0625V87.75C250.508 87.0885 250.604 86.4896 250.797 85.9531C250.99 85.4167 251.258 84.9583 251.602 84.5781C251.945 84.1927 252.352 83.8984 252.82 83.6953C253.289 83.4922 253.797 83.3906 254.344 83.3906C254.948 83.3906 255.477 83.4922 255.93 83.6953C256.383 83.8984 256.758 84.1849 257.055 84.5547C257.357 84.9193 257.581 85.3542 257.727 85.8594C257.878 86.3646 257.953 86.9219 257.953 87.5312V88.3359H251.422V86.9844H256.094V86.8359C256.083 86.4974 256.016 86.1797 255.891 85.8828C255.771 85.5859 255.586 85.3464 255.336 85.1641C255.086 84.9818 254.753 84.8906 254.336 84.8906C254.023 84.8906 253.745 84.9583 253.5 85.0938C253.26 85.224 253.06 85.4141 252.898 85.6641C252.737 85.9141 252.612 86.2161 252.523 86.5703C252.44 86.9193 252.398 87.3125 252.398 87.75V88.0625C252.398 88.4323 252.448 88.776 252.547 89.0938C252.651 89.4062 252.802 89.6797 253 89.9141C253.198 90.1484 253.438 90.3333 253.719 90.4688C254 90.599 254.32 90.6641 254.68 90.6641C255.133 90.6641 255.536 90.5729 255.891 90.3906C256.245 90.2083 256.552 89.9505 256.812 89.6172L257.805 90.5781C257.622 90.8438 257.385 91.099 257.094 91.3438C256.802 91.5833 256.445 91.7786 256.023 91.9297C255.607 92.0807 255.122 92.1562 254.57 92.1562ZM264.164 89.7109C264.164 89.5234 264.117 89.3542 264.023 89.2031C263.93 89.0469 263.75 88.9062 263.484 88.7812C263.224 88.6562 262.839 88.5417 262.328 88.4375C261.88 88.3385 261.469 88.2214 261.094 88.0859C260.724 87.9453 260.406 87.776 260.141 87.5781C259.875 87.3802 259.669 87.1458 259.523 86.875C259.378 86.6042 259.305 86.2917 259.305 85.9375C259.305 85.5938 259.38 85.2682 259.531 84.9609C259.682 84.6536 259.898 84.3828 260.18 84.1484C260.461 83.9141 260.802 83.7292 261.203 83.5938C261.609 83.4583 262.062 83.3906 262.562 83.3906C263.271 83.3906 263.878 83.5104 264.383 83.75C264.893 83.9844 265.284 84.3047 265.555 84.7109C265.826 85.112 265.961 85.5651 265.961 86.0703H264.078C264.078 85.8464 264.021 85.638 263.906 85.4453C263.797 85.2474 263.63 85.0885 263.406 84.9688C263.182 84.8438 262.901 84.7812 262.562 84.7812C262.24 84.7812 261.971 84.8333 261.758 84.9375C261.549 85.0365 261.393 85.1667 261.289 85.3281C261.19 85.4896 261.141 85.6667 261.141 85.8594C261.141 86 261.167 86.1276 261.219 86.2422C261.276 86.3516 261.37 86.4531 261.5 86.5469C261.63 86.6354 261.807 86.7188 262.031 86.7969C262.26 86.875 262.547 86.9505 262.891 87.0234C263.536 87.1589 264.091 87.3333 264.555 87.5469C265.023 87.7552 265.383 88.026 265.633 88.3594C265.883 88.6875 266.008 89.1042 266.008 89.6094C266.008 89.9844 265.927 90.3281 265.766 90.6406C265.609 90.9479 265.38 91.2161 265.078 91.4453C264.776 91.6693 264.414 91.8438 263.992 91.9688C263.576 92.0938 263.107 92.1562 262.586 92.1562C261.82 92.1562 261.172 92.0208 260.641 91.75C260.109 91.474 259.706 91.1224 259.43 90.6953C259.159 90.263 259.023 89.8151 259.023 89.3516H260.844C260.865 89.7005 260.961 89.9792 261.133 90.1875C261.31 90.3906 261.529 90.5391 261.789 90.6328C262.055 90.7214 262.328 90.7656 262.609 90.7656C262.948 90.7656 263.232 90.7214 263.461 90.6328C263.69 90.5391 263.865 90.4141 263.984 90.2578C264.104 90.0964 264.164 89.9141 264.164 89.7109Z" fill="white"/>
<path d="M277 83.25L283.5 89.75L290 83.25" stroke="white" stroke-width="2" stroke-linecap="round" stroke-linejoin="round"/>
</g>
<defs>
<filter id="filter0_b_241_6066" x="-30" y="-30" width="458" height="185" filterUnits="userSpaceOnUse" color-interpolation-filters="sRGB">
<feFlood flood-opacity="0" result="BackgroundImageFix"/>
<feGaussianBlur in="BackgroundImageFix" stdDeviation="15"/>
<feComposite in2="SourceAlpha" operator="in" result="effect1_backgroundBlur_241_6066"/>
<feBlend mode="normal" in="SourceGraphic" in2="effect1_backgroundBlur_241_6066" result="shape"/>
</filter>
<clipPath id="clip0_241_6066">
<rect width="27" height="27" fill="white" transform="translate(304 19)"/>
</clipPath>
<clipPath id="clip1_241_6066">
<rect width="27" height="27" fill="white" transform="translate(351 19)"/>
</clipPath>
</defs>
</svg>
