<svg width="1440" height="945" viewBox="0 0 1440 945" fill="none" xmlns="http://www.w3.org/2000/svg">
<path opacity="0.111111" d="M-27.9258 714.153C77.8161 693.319 194.854 669.736 418.377 643.923C641.899 618.109 719.596 607.931 852.556 578.1C985.516 548.27 1026.5 543.419 1316.52 527.39C1607.07 511.331 2015.71 420.671 2015.71 420.671" stroke="url(#paint0_linear_1_596)" stroke-width="1.11111"/>
<path opacity="0.222222" d="M-53.2883 681.985C53.2014 660.119 171.047 635.15 396.86 615.666C622.672 596.182 701.118 587.641 834.876 554.816C968.635 521.992 1010.04 518.246 1303.7 518.585C1597.91 518.924 2009.05 419.537 2009.05 419.537" stroke="url(#paint1_linear_1_596)" stroke-width="1.22222"/>
<path opacity="0.333333" d="M-78.3965 649.273C28.9091 626.395 147.645 600.061 375.595 586.979C603.545 573.896 682.706 567.015 817.408 531.216C952.111 495.418 993.901 492.791 1290.74 509.616C1588.12 526.473 2002.18 418.423 2002.18 418.423" stroke="url(#paint2_linear_1_596)" stroke-width="1.33333"/>
<path opacity="0.444444" d="M-103.237 616.017C4.95208 592.15 124.663 564.477 354.594 557.863C584.526 551.25 664.368 546.051 800.158 507.303C935.949 468.555 978.101 467.058 1277.62 500.478C1577.68 533.959 1995.09 417.323 1995.09 417.323" stroke="url(#paint3_linear_1_596)" stroke-width="1.44444"/>
<path opacity="0.555556" d="M-127.796 582.219C-18.6562 557.388 102.112 528.402 333.868 528.322C565.624 528.242 646.112 524.747 783.135 483.079C920.158 441.41 962.646 441.056 1264.35 491.165C1566.61 541.366 1987.8 416.233 1987.8 416.233" stroke="url(#paint4_linear_1_596)" stroke-width="1.55556"/>
<path opacity="0.666667" d="M-152.06 547.882C-41.9031 522.113 80.0047 491.844 313.427 498.359C546.849 504.873 627.948 503.103 766.346 458.546C904.744 413.99 947.541 414.789 1250.95 481.671C1554.91 548.675 1980.29 415.146 1980.29 415.146" stroke="url(#paint5_linear_1_596)" stroke-width="1.66667"/>
<path opacity="0.777778" d="M-176.015 513.007C-64.7761 486.33 58.3526 454.809 293.281 467.975C528.209 481.142 609.884 481.117 749.799 433.709C889.714 386.301 932.792 388.265 1237.4 471.99C1542.57 555.869 1972.58 414.058 1972.58 414.058" stroke="url(#paint6_linear_1_596)" stroke-width="1.77778"/>
<path opacity="0.888889" d="M-199.648 477.597C-87.2613 450.042 37.1688 417.305 273.441 437.176C509.714 457.048 591.928 458.788 733.502 408.57C875.076 358.352 918.408 361.49 1223.73 462.118C1529.6 562.93 1964.65 412.961 1964.65 412.961" stroke="url(#paint7_linear_1_596)" stroke-width="1.88889"/>
<path d="M-222.946 164.655C-109.347 136.255 -3.45355 60.9819 234 87.6092C471.455 114.237 549.084 210.732 723.542 187.694C898 164.655 910.473 139.033 1216 256.609C1522.09 374.401 1956.5 134.852 1956.5 134.852" stroke="url(#paint8_linear_1_596)"/>
<path opacity="0.111111" d="M-88.198 90.8648C21.9394 93.4792 144.071 95.2798 368.92 138.942C593.77 182.604 672.454 195.258 812.528 190.944C952.603 186.631 993.883 194.39 1277.99 287.578C1562.62 380.937 1992.68 369.813 1992.68 369.813" stroke="url(#paint9_linear_1_596)" stroke-width="1.11111"/>
<path opacity="0.222222" d="M-107.964 117.297C2.95797 116.109 125.96 113.528 352.395 155.213C578.83 196.899 658.07 208.465 799.146 198.163C940.221 187.861 981.793 195.218 1267.89 291.649C1554.51 388.255 1987.64 359.066 1987.64 359.066" stroke="url(#paint10_linear_1_596)" stroke-width="1.22222"/>
<path opacity="0.333333" d="M-126.916 144.165C-15.3086 139.15 108.448 132.157 336.468 171.824C564.487 211.491 644.269 221.954 786.18 205.628C928.09 189.301 969.951 196.249 1258.23 295.879C1547.04 395.69 1982.75 348.327 1982.75 348.327" stroke="url(#paint11_linear_1_596)" stroke-width="1.33333"/>
<path opacity="0.444444" d="M-145.043 171.456C-32.8501 162.588 91.5444 151.159 321.147 188.763C550.75 226.368 631.059 235.711 773.637 213.33C916.214 190.949 958.363 197.48 1249.03 300.258C1540.23 403.225 1978.01 337.592 1978.01 337.592" stroke="url(#paint12_linear_1_596)" stroke-width="1.44444"/>
<path opacity="0.555556" d="M-162.334 199.151C-49.6567 186.411 75.2584 170.52 306.441 206.018C537.624 241.517 618.446 249.726 761.522 221.263C904.598 192.8 947.034 198.905 1240.28 304.777C1534.07 410.844 1973.41 326.858 1973.41 326.858" stroke="url(#paint13_linear_1_596)" stroke-width="1.55556"/>
<path opacity="0.666667" d="M-178.78 227.236C-65.7187 210.603 59.5988 190.23 292.358 223.578C525.117 256.927 606.436 263.987 749.842 229.418C893.248 194.849 935.967 200.521 1232 309.426C1528.57 418.531 1968.96 316.121 1968.96 316.121" stroke="url(#paint14_linear_1_596)" stroke-width="1.66667"/>
<path opacity="0.777778" d="M-194.37 255.692C-81.0271 235.151 44.5743 210.277 278.905 241.431C513.235 272.584 595.036 278.48 738.602 237.787C882.167 197.094 925.168 202.323 1224.17 314.194C1523.72 426.27 1964.66 305.377 1964.66 305.377" stroke="url(#paint15_linear_1_596)" stroke-width="1.77778"/>
<path opacity="0.888889" d="M-209.095 284.505C-95.5726 260.04 30.1935 230.651 266.089 259.564C501.985 288.477 584.252 293.194 727.806 246.361C871.361 199.529 914.642 204.308 1216.81 319.072C1519.53 434.045 1960.51 294.622 1960.51 294.622" stroke="url(#paint16_linear_1_596)" stroke-width="1.88889"/>
<path d="M-222.946 313.655C-109.347 285.255 16.4647 251.338 253.919 277.965C491.373 304.592 574.089 308.115 717.462 255.133C860.836 202.15 904.393 206.471 1209.92 324.048C1516.01 441.84 1956.5 283.852 1956.5 283.852" stroke="url(#paint17_linear_1_596)" stroke-width="2"/>
<path d="M1258 395.826C1045.2 313.933 986.986 333.217 765.003 352.197C543.021 371.177 390.391 445.743 225.003 427.197C59.6154 408.651 55.012 478.245 -24.1106 498.026C-24.1106 585.197 -24.1106 720.008 -24.1106 720.008L1522.08 720.008V395.826C1522.08 395.826 1471.19 477.869 1258 395.826Z" fill="url(#paint18_linear_1_596)"/>
<path d="M141.624 762.29C-135.056 598.88 150.773 148.283 522.135 474.933C689.179 621.571 751.607 405.788 851.501 422.627C961.233 441.091 1017.39 269.726 1176.89 275.455C1275.52 279.026 1339.06 346.956 1346.87 355.435C1421.09 437.281 1416.99 563.481 1354.96 631.198C1000.33 1018.32 735.415 811.12 141.624 762.29Z" fill="url(#paint19_linear_1_596)"/>
<path d="M337.375 599.778C317.914 616.108 288.899 613.569 272.569 594.108C256.239 574.646 258.777 545.632 278.239 529.302L477.41 362.177C496.872 345.847 525.886 348.385 542.216 367.847C558.546 387.308 556.008 416.323 536.547 432.653L337.375 599.778Z" fill="url(#paint20_linear_1_596)"/>
<g style="mix-blend-mode:overlay">
<circle cx="1344.17" cy="490.78" r="42" transform="rotate(-130 1344.17 490.78)" fill="url(#paint21_linear_1_596)"/>
</g>
<g style="mix-blend-mode:overlay">
<rect x="1021.43" y="538.135" width="52" height="320" rx="26" transform="rotate(-130 1021.43 538.135)" fill="url(#paint22_linear_1_596)"/>
</g>
<path d="M1189 544.609C976.202 462.716 914.986 525.629 693.004 544.609C471.021 563.588 402.392 611.155 237.004 592.609C71.6156 574.063 57.979 656.217 -21.1436 675.997C-21.1436 763.93 -21.1436 897.98 -21.1436 897.98L1555.04 897.98L1555.04 573.797C1555.04 573.797 1402.19 626.652 1189 544.609Z" fill="url(#paint23_linear_1_596)"/>
<circle cx="49.5" cy="136.109" r="0.5" fill="white" fill-opacity="0.5"/>
<circle cx="79.5" cy="156.109" r="0.5" fill="white" fill-opacity="0.5"/>
<circle cx="119.5" cy="146.109" r="0.5" fill="white" fill-opacity="0.5"/>
<circle cx="139.5" cy="116.109" r="0.5" fill="white" fill-opacity="0.5"/>
<circle cx="189.5" cy="136.109" r="0.5" fill="white" fill-opacity="0.5"/>
<circle cx="248.5" cy="146.109" r="0.5" fill="white" fill-opacity="0.5"/>
<circle cx="278.5" cy="166.109" r="0.5" fill="white" fill-opacity="0.5"/>
<circle cx="318.5" cy="156.109" r="0.5" fill="white" fill-opacity="0.5"/>
<circle cx="338.5" cy="126.109" r="0.5" fill="white" fill-opacity="0.5"/>
<circle cx="388.5" cy="146.109" r="0.5" fill="white" fill-opacity="0.5"/>
<circle cx="47.5" cy="207.109" r="0.5" fill="white" fill-opacity="0.5"/>
<circle cx="77.5" cy="227.109" r="0.5" fill="white" fill-opacity="0.5"/>
<circle cx="117.5" cy="217.109" r="0.5" fill="white" fill-opacity="0.5"/>
<circle cx="137.5" cy="187.109" r="0.5" fill="white" fill-opacity="0.5"/>
<circle cx="187.5" cy="207.109" r="0.5" fill="white" fill-opacity="0.5"/>
<path d="M-0.0541993 170.609C147.164 142.857 178.946 108.609 357.946 108.609C536.946 108.609 754.946 254.609 958.946 234.609C1162.95 214.609 1250.95 293.609 1335.95 303.609C1420.95 313.609 1439.95 310.609 1439.95 310.609L1439.95 825.609L-0.0541996 825.609L-0.0541993 170.609Z" fill="url(#paint24_linear_1_596)"/>
<path opacity="0.111111" d="M-27.98 761.153C77.7619 740.319 194.8 716.736 418.323 690.923C641.845 665.109 719.541 654.931 852.501 625.1C985.461 595.27 1026.45 590.419 1316.46 574.39C1607.01 558.331 2015.65 467.671 2015.65 467.671" stroke="url(#paint25_linear_1_596)" stroke-width="1.11111"/>
<path opacity="0.222222" d="M-53.3425 728.985C53.1472 707.119 170.992 682.15 396.805 662.666C622.618 643.182 701.063 634.641 834.822 601.816C968.581 568.992 1009.98 565.246 1303.65 565.585C1597.86 565.924 2008.99 466.537 2008.99 466.537" stroke="url(#paint26_linear_1_596)" stroke-width="1.22222"/>
<path opacity="0.333333" d="M-78.4507 696.273C28.8549 673.395 147.591 647.061 375.541 633.979C603.491 620.896 682.651 614.015 817.354 578.216C952.056 542.418 993.846 539.791 1290.68 556.616C1588.06 573.473 2002.12 465.423 2002.12 465.423" stroke="url(#paint27_linear_1_596)" stroke-width="1.33333"/>
<path opacity="0.444444" d="M-103.291 663.017C4.89789 639.15 124.609 611.477 354.54 604.863C584.472 598.25 664.313 593.051 800.104 554.303C935.895 515.555 978.047 514.058 1277.56 547.478C1577.63 580.959 1995.04 464.323 1995.04 464.323" stroke="url(#paint28_linear_1_596)" stroke-width="1.44444"/>
<path opacity="0.555556" d="M-127.85 629.219C-18.7104 604.388 102.058 575.402 333.814 575.322C565.57 575.242 646.058 571.747 783.081 530.079C920.104 488.41 962.592 488.056 1264.3 538.165C1566.56 588.366 1987.75 463.233 1987.75 463.233" stroke="url(#paint29_linear_1_596)" stroke-width="1.55556"/>
<path opacity="0.666667" d="M-152.114 594.882C-41.9573 569.113 79.9505 538.844 313.373 545.359C546.795 551.873 627.894 550.103 766.292 505.546C904.69 460.99 947.487 461.789 1250.89 528.671C1554.85 595.675 1980.24 462.146 1980.24 462.146" stroke="#AD1C1C" stroke-width="1.66667"/>
<path opacity="0.777778" d="M-176.07 560.007C-64.8303 533.33 58.2984 501.809 293.227 514.975C528.155 528.142 609.829 528.117 749.745 480.709C889.66 433.301 932.738 435.265 1237.35 518.99C1542.52 602.869 1972.52 461.058 1972.52 461.058" stroke="url(#paint30_linear_1_596)" stroke-width="1.77778"/>
<path d="M-223 211.655C-109.401 183.255 -3.50775 107.982 233.946 134.609C471.4 161.237 549.03 257.732 723.488 234.694C897.946 211.655 910.419 186.033 1215.95 303.609C1522.03 421.401 1956.45 181.852 1956.45 181.852" stroke="url(#paint31_linear_1_596)"/>
<path opacity="0.111111" d="M-88.2522 137.865C21.8852 140.479 144.016 142.28 368.866 185.942C593.716 229.604 672.4 242.258 812.474 237.944C952.548 233.631 993.829 241.39 1277.94 334.578C1562.57 427.937 1992.63 416.813 1992.63 416.813" stroke="url(#paint32_linear_1_596)" stroke-width="1.11111"/>
<path opacity="0.222222" d="M-108.018 164.297C2.90377 163.109 125.906 160.528 352.341 202.213C578.776 243.899 658.016 255.465 799.092 245.163C940.167 234.861 981.739 242.218 1267.83 338.649C1554.45 435.255 1987.59 406.066 1987.59 406.066" stroke="url(#paint33_linear_1_596)" stroke-width="1.22222"/>
<path opacity="0.333333" d="M-126.97 191.165C-15.3628 186.15 108.394 179.157 336.413 218.824C564.433 258.491 644.215 268.954 786.126 252.628C928.036 236.301 969.897 243.249 1258.18 342.879C1546.99 442.69 1982.7 395.327 1982.7 395.327" stroke="url(#paint34_linear_1_596)" stroke-width="1.33333"/>
<path opacity="0.444444" d="M-145.097 218.456C-32.9043 209.588 91.4902 198.159 321.093 235.763C550.696 273.368 631.005 282.711 773.583 260.33C916.16 237.949 958.309 244.48 1248.98 347.258C1540.17 450.225 1977.95 384.592 1977.95 384.592" stroke="url(#paint35_linear_1_596)" stroke-width="1.44444"/>
<path opacity="0.555556" d="M-162.388 246.151C-49.7109 233.411 75.2042 217.52 306.387 253.018C537.57 288.517 618.392 296.726 761.468 268.263C904.544 239.8 946.979 245.905 1240.23 351.777C1534.01 457.844 1973.36 373.858 1973.36 373.858" stroke="url(#paint36_linear_1_596)" stroke-width="1.55556"/>
<path opacity="0.666667" d="M-178.834 274.236C-65.7729 257.603 59.5446 237.23 292.304 270.578C525.063 303.927 606.382 310.987 749.788 276.418C893.193 241.849 935.913 247.521 1231.94 356.426C1528.51 465.531 1968.91 363.121 1968.91 363.121" stroke="url(#paint37_linear_1_596)" stroke-width="1.66667"/>
<path opacity="0.777778" d="M-194.424 302.692C-81.0813 282.151 44.5201 257.277 278.851 288.431C513.181 319.584 594.982 325.48 738.547 284.787C882.113 244.094 925.114 249.323 1224.12 361.194C1523.66 473.27 1964.61 352.377 1964.61 352.377" stroke="url(#paint38_linear_1_596)" stroke-width="1.77778"/>
<path opacity="0.888889" d="M-209.149 331.505C-95.6268 307.04 30.1393 277.651 266.035 306.564C501.931 335.477 584.197 340.194 727.752 293.361C871.307 246.529 914.588 251.308 1216.76 366.072C1519.48 481.045 1960.46 341.622 1960.46 341.622" stroke="url(#paint39_linear_1_596)" stroke-width="1.88889"/>
<path d="M-223 360.655C-109.401 332.256 16.4105 298.338 253.865 324.965C491.319 351.593 574.034 355.115 717.408 302.133C860.781 249.15 904.339 253.471 1209.87 371.048C1515.95 488.84 1956.45 330.852 1956.45 330.852" stroke="url(#paint40_linear_1_596)" stroke-width="2"/>
<g style="mix-blend-mode:hard-light">
<circle cx="397.946" cy="513.609" r="192" fill="url(#paint41_linear_1_596)"/>
</g>
<g style="mix-blend-mode:hard-light">
<circle cx="216.946" cy="506.609" r="192" fill="url(#paint42_linear_1_596)"/>
</g>
<path d="M1188.95 591.609C976.148 509.716 914.932 572.629 692.95 591.609C470.967 610.588 402.338 658.155 236.949 639.609C71.5614 621.063 57.9248 703.217 -21.1978 722.997C-21.1978 810.93 -21.1978 944.98 -21.1978 944.98L1554.99 944.98L1554.99 620.797C1554.99 620.797 1402.14 673.652 1188.95 591.609Z" fill="url(#paint43_linear_1_596)"/>
<circle cx="49.4458" cy="183.109" r="0.5" fill="white" fill-opacity="0.5"/>
<circle cx="79.4458" cy="203.109" r="0.5" fill="white" fill-opacity="0.5"/>
<circle cx="119.446" cy="193.109" r="0.5" fill="white" fill-opacity="0.5"/>
<circle cx="139.446" cy="163.109" r="0.5" fill="white" fill-opacity="0.5"/>
<circle cx="189.446" cy="183.109" r="0.5" fill="white" fill-opacity="0.5"/>
<circle cx="248.446" cy="193.109" r="0.5" fill="white" fill-opacity="0.5"/>
<circle cx="278.446" cy="213.109" r="0.5" fill="white" fill-opacity="0.5"/>
<circle cx="318.446" cy="203.109" r="0.5" fill="white" fill-opacity="0.5"/>
<circle cx="338.446" cy="173.109" r="0.5" fill="white" fill-opacity="0.5"/>
<circle cx="388.446" cy="193.109" r="0.5" fill="white" fill-opacity="0.5"/>
<circle cx="47.4458" cy="254.109" r="0.5" fill="white" fill-opacity="0.5"/>
<circle cx="77.4458" cy="274.109" r="0.5" fill="white" fill-opacity="0.5"/>
<circle cx="117.446" cy="264.109" r="0.5" fill="white" fill-opacity="0.5"/>
<circle cx="137.446" cy="234.109" r="0.5" fill="white" fill-opacity="0.5"/>
<circle cx="187.446" cy="254.109" r="0.5" fill="white" fill-opacity="0.5"/>
<defs>
<linearGradient id="paint0_linear_1_596" x1="2013.93" y1="408.039" x2="2018.14" y2="437.962" gradientUnits="userSpaceOnUse">
<stop stop-color="#FF7373"/>
<stop offset="1" stop-color="#491EB8"/>
</linearGradient>
<linearGradient id="paint1_linear_1_596" x1="2006.75" y1="400.86" x2="2012.19" y2="445.102" gradientUnits="userSpaceOnUse">
<stop stop-color="#FF7373"/>
<stop offset="1" stop-color="#491EB8"/>
</linearGradient>
<linearGradient id="paint2_linear_1_596" x1="1999.58" y1="393.681" x2="2005.74" y2="452.29" gradientUnits="userSpaceOnUse">
<stop stop-color="#FF7373"/>
<stop offset="1" stop-color="#491EB8"/>
</linearGradient>
<linearGradient id="paint3_linear_1_596" x1="1992.4" y1="386.503" x2="1998.79" y2="459.513" gradientUnits="userSpaceOnUse">
<stop stop-color="#FF7373"/>
<stop offset="1" stop-color="#491EB8"/>
</linearGradient>
<linearGradient id="paint4_linear_1_596" x1="1985.22" y1="379.324" x2="1991.33" y2="466.757" gradientUnits="userSpaceOnUse">
<stop stop-color="#FF7373"/>
<stop offset="1" stop-color="#491EB8"/>
</linearGradient>
<linearGradient id="paint5_linear_1_596" x1="1978.04" y1="372.145" x2="1983.38" y2="474.01" gradientUnits="userSpaceOnUse">
<stop stop-color="#FF7373"/>
<stop offset="1" stop-color="#491EB8"/>
</linearGradient>
<linearGradient id="paint6_linear_1_596" x1="1970.86" y1="364.967" x2="1974.92" y2="481.257" gradientUnits="userSpaceOnUse">
<stop stop-color="#FF7373"/>
<stop offset="1" stop-color="#491EB8"/>
</linearGradient>
<linearGradient id="paint7_linear_1_596" x1="1963.68" y1="357.788" x2="1965.96" y2="488.487" gradientUnits="userSpaceOnUse">
<stop stop-color="#FF7373"/>
<stop offset="1" stop-color="#491EB8"/>
</linearGradient>
<linearGradient id="paint8_linear_1_596" x1="1956.5" y1="81.9998" x2="1956.5" y2="289.184" gradientUnits="userSpaceOnUse">
<stop stop-color="#FF7373"/>
<stop offset="1" stop-color="#491EB8"/>
</linearGradient>
<linearGradient id="paint9_linear_1_596" x1="1996.5" y1="342.609" x2="1987.45" y2="407.052" gradientUnits="userSpaceOnUse">
<stop stop-color="#FF7373"/>
<stop offset="1" stop-color="#491EB8"/>
</linearGradient>
<linearGradient id="paint10_linear_1_596" x1="1991.5" y1="327.609" x2="1982.35" y2="402.126" gradientUnits="userSpaceOnUse">
<stop stop-color="#FF7373"/>
<stop offset="1" stop-color="#491EB8"/>
</linearGradient>
<linearGradient id="paint11_linear_1_596" x1="1986.5" y1="312.609" x2="1977.61" y2="397.219" gradientUnits="userSpaceOnUse">
<stop stop-color="#FF7373"/>
<stop offset="1" stop-color="#491EB8"/>
</linearGradient>
<linearGradient id="paint12_linear_1_596" x1="1981.5" y1="297.609" x2="1973.22" y2="392.324" gradientUnits="userSpaceOnUse">
<stop stop-color="#FF7373"/>
<stop offset="1" stop-color="#491EB8"/>
</linearGradient>
<linearGradient id="paint13_linear_1_596" x1="1976.5" y1="282.609" x2="1969.17" y2="387.43" gradientUnits="userSpaceOnUse">
<stop stop-color="#FF7373"/>
<stop offset="1" stop-color="#491EB8"/>
</linearGradient>
<linearGradient id="paint14_linear_1_596" x1="1971.5" y1="267.609" x2="1965.48" y2="382.528" gradientUnits="userSpaceOnUse">
<stop stop-color="#FF7373"/>
<stop offset="1" stop-color="#491EB8"/>
</linearGradient>
<linearGradient id="paint15_linear_1_596" x1="1966.5" y1="252.609" x2="1962.14" y2="377.609" gradientUnits="userSpaceOnUse">
<stop stop-color="#FF7373"/>
<stop offset="1" stop-color="#491EB8"/>
</linearGradient>
<linearGradient id="paint16_linear_1_596" x1="1961.5" y1="237.609" x2="1959.15" y2="372.665" gradientUnits="userSpaceOnUse">
<stop stop-color="#FF7373"/>
<stop offset="1" stop-color="#491EB8"/>
</linearGradient>
<linearGradient id="paint17_linear_1_596" x1="1956.5" y1="222.609" x2="1956.5" y2="367.685" gradientUnits="userSpaceOnUse">
<stop stop-color="#FF7373"/>
<stop offset="1" stop-color="#491EB8"/>
</linearGradient>
<linearGradient id="paint18_linear_1_596" x1="808.754" y1="358.498" x2="808.754" y2="569.32" gradientUnits="userSpaceOnUse">
<stop stop-color="#554E9D"/>
<stop offset="1" stop-color="#5B3C87"/>
</linearGradient>
<linearGradient id="paint19_linear_1_596" x1="72.3098" y1="171.987" x2="15.1505" y2="784.333" gradientUnits="userSpaceOnUse">
<stop stop-color="#FF7373"/>
<stop offset="1" stop-color="#491EB8"/>
</linearGradient>
<linearGradient id="paint20_linear_1_596" x1="302.137" y1="629.346" x2="571.785" y2="403.085" gradientUnits="userSpaceOnUse">
<stop stop-color="#FF5252"/>
<stop offset="1" stop-color="#FF72B6"/>
</linearGradient>
<linearGradient id="paint21_linear_1_596" x1="1302.17" y1="448.78" x2="1302.17" y2="532.78" gradientUnits="userSpaceOnUse">
<stop stop-color="#FF5252"/>
<stop offset="1" stop-color="#FF72B6"/>
</linearGradient>
<linearGradient id="paint22_linear_1_596" x1="1021.43" y1="538.135" x2="1021.43" y2="858.135" gradientUnits="userSpaceOnUse">
<stop stop-color="#FF5252"/>
<stop offset="1" stop-color="#FF72B6"/>
</linearGradient>
<linearGradient id="paint23_linear_1_596" x1="827.881" y1="468.751" x2="827.881" y2="897.609" gradientUnits="userSpaceOnUse">
<stop stop-color="#C8D0F8"/>
<stop offset="1" stop-color="#F2F6FF"/>
</linearGradient>
<linearGradient id="paint24_linear_1_596" x1="719.946" y1="108.609" x2="719.946" y2="825.609" gradientUnits="userSpaceOnUse">
<stop stop-color="#4E0E10"/>
<stop offset="1" stop-color="#CA1F28"/>
</linearGradient>
<linearGradient id="paint25_linear_1_596" x1="2013.88" y1="455.039" x2="2018.08" y2="484.962" gradientUnits="userSpaceOnUse">
<stop/>
<stop offset="1" stop-color="#BF1921"/>
</linearGradient>
<linearGradient id="paint26_linear_1_596" x1="2006.7" y1="447.86" x2="2012.13" y2="492.102" gradientUnits="userSpaceOnUse">
<stop/>
<stop offset="1" stop-color="#BF1921"/>
</linearGradient>
<linearGradient id="paint27_linear_1_596" x1="1999.52" y1="440.681" x2="2005.68" y2="499.29" gradientUnits="userSpaceOnUse">
<stop/>
<stop offset="1" stop-color="#BF1921"/>
</linearGradient>
<linearGradient id="paint28_linear_1_596" x1="1992.34" y1="433.503" x2="1998.73" y2="506.513" gradientUnits="userSpaceOnUse">
<stop/>
<stop offset="1" stop-color="#BF1921"/>
</linearGradient>
<linearGradient id="paint29_linear_1_596" x1="1985.16" y1="426.324" x2="1991.28" y2="513.757" gradientUnits="userSpaceOnUse">
<stop/>
<stop offset="1" stop-color="#BF1921"/>
</linearGradient>
<linearGradient id="paint30_linear_1_596" x1="1970.81" y1="411.967" x2="1974.87" y2="528.257" gradientUnits="userSpaceOnUse">
<stop/>
<stop offset="1" stop-color="#BF1921"/>
</linearGradient>
<linearGradient id="paint31_linear_1_596" x1="1956.45" y1="129" x2="1956.45" y2="336.184" gradientUnits="userSpaceOnUse">
<stop/>
<stop offset="1" stop-color="#BF1921"/>
</linearGradient>
<linearGradient id="paint32_linear_1_596" x1="1996.45" y1="389.609" x2="1987.39" y2="454.052" gradientUnits="userSpaceOnUse">
<stop stop-color="#94181E"/>
<stop offset="1" stop-color="white"/>
</linearGradient>
<linearGradient id="paint33_linear_1_596" x1="1991.45" y1="374.609" x2="1982.3" y2="449.126" gradientUnits="userSpaceOnUse">
<stop stop-color="#94181E"/>
<stop offset="1" stop-color="white"/>
</linearGradient>
<linearGradient id="paint34_linear_1_596" x1="1986.45" y1="359.609" x2="1977.56" y2="444.219" gradientUnits="userSpaceOnUse">
<stop stop-color="#94181E"/>
<stop offset="1" stop-color="white"/>
</linearGradient>
<linearGradient id="paint35_linear_1_596" x1="1981.45" y1="344.609" x2="1973.16" y2="439.324" gradientUnits="userSpaceOnUse">
<stop stop-color="#94181E"/>
<stop offset="1" stop-color="white"/>
</linearGradient>
<linearGradient id="paint36_linear_1_596" x1="1976.45" y1="329.609" x2="1969.12" y2="434.43" gradientUnits="userSpaceOnUse">
<stop stop-color="#94181E"/>
<stop offset="1" stop-color="white"/>
</linearGradient>
<linearGradient id="paint37_linear_1_596" x1="1971.45" y1="314.609" x2="1965.43" y2="429.528" gradientUnits="userSpaceOnUse">
<stop stop-color="#94181E"/>
<stop offset="1" stop-color="white"/>
</linearGradient>
<linearGradient id="paint38_linear_1_596" x1="1966.45" y1="299.609" x2="1962.09" y2="424.609" gradientUnits="userSpaceOnUse">
<stop stop-color="#94181E"/>
<stop offset="1" stop-color="white"/>
</linearGradient>
<linearGradient id="paint39_linear_1_596" x1="1961.45" y1="284.609" x2="1959.09" y2="419.665" gradientUnits="userSpaceOnUse">
<stop stop-color="#94181E"/>
<stop offset="1" stop-color="white"/>
</linearGradient>
<linearGradient id="paint40_linear_1_596" x1="1956.45" y1="269.609" x2="1956.45" y2="414.686" gradientUnits="userSpaceOnUse">
<stop stop-color="#94181E"/>
<stop offset="1" stop-color="white"/>
</linearGradient>
<linearGradient id="paint41_linear_1_596" x1="397.946" y1="443.609" x2="397.946" y2="705.609" gradientUnits="userSpaceOnUse">
<stop stop-color="#E50914"/>
<stop offset="1"/>
</linearGradient>
<linearGradient id="paint42_linear_1_596" x1="216.946" y1="314.609" x2="216.946" y2="698.609" gradientUnits="userSpaceOnUse">
<stop stop-color="#350E0E"/>
<stop offset="1" stop-color="#E00202"/>
</linearGradient>
<linearGradient id="paint43_linear_1_596" x1="827.827" y1="515.751" x2="827.827" y2="944.609" gradientUnits="userSpaceOnUse">
<stop stop-color="#C8D0F8"/>
<stop offset="1" stop-color="#F2F6FF"/>
</linearGradient>
</defs>
</svg>
