<svg width="1217" height="402" viewBox="0 0 1217 402" fill="none" xmlns="http://www.w3.org/2000/svg">
<g style="mix-blend-mode:hard-light">
<path d="M-354.541 71.3558C-278.186 69.2268 -227.724 25.0804 -73.5505 56.6749C80.623 88.2694 148.825 145.928 304.168 157.715C459.512 169.502 521.931 211.251 650.792 261.681C844.256 337.395 1192.11 352.901 1192.11 352.901" stroke="url(#paint0_linear_1_748)" stroke-width="0.7"/>
<path d="M-372.535 94.5701C-295.651 90.4549 -245.31 42.1886 -89.6744 72.13C65.9609 102.071 135.29 161.868 291.886 170.673C448.482 179.477 511.812 222.459 642.158 273.085C837.853 349.094 1188.39 357.207 1188.39 357.207" stroke="url(#paint1_linear_1_748)" stroke-width="0.8"/>
<path d="M-389.959 118.16C-312.598 112.041 -262.517 59.6466 -105.435 87.8968C51.6474 116.147 122.204 178.061 279.988 183.846C437.772 189.632 502.077 233.828 633.956 284.618C831.952 360.87 1185 361.508 1185 361.508" stroke="url(#paint2_linear_1_748)" stroke-width="0.9"/>
<path d="M-406.804 142.117C-329.018 133.977 -279.335 77.4487 -120.823 103.969C37.6899 130.49 109.575 194.499 268.481 197.229C427.387 199.959 492.733 245.352 626.19 296.268C826.555 372.712 1181.94 365.796 1181.94 365.796" stroke="url(#paint3_linear_1_748)"/>
<path d="M-423.06 166.429C-344.9 156.253 -295.757 95.5891 -135.831 120.342C24.0955 145.095 97.4087 211.174 257.37 210.814C417.332 210.454 483.782 257.021 618.862 308.029C821.664 384.609 1179.22 370.063 1179.22 370.063" stroke="url(#paint4_linear_1_748)" stroke-width="1.1"/>
<path d="M-438.717 191.086C-360.236 178.86 -311.771 114.061 -150.45 137.008C10.8713 159.955 85.7118 228.076 246.662 224.593C407.611 221.11 475.23 268.828 611.976 319.889C817.28 396.548 1176.82 374.3 1176.82 374.3" stroke="url(#paint5_linear_1_748)" stroke-width="1.2"/>
<path d="M-453.765 216.077C-375.017 201.787 -327.37 132.859 -164.673 153.962C-1.97563 175.065 74.4908 245.197 236.36 238.558C398.23 231.92 467.079 280.766 605.536 331.839C813.406 408.519 1174.75 378.501 1174.75 378.501" stroke="url(#paint6_linear_1_748)" stroke-width="1.3"/>
<path d="M-468.196 241.392C-389.234 225.026 -342.545 151.977 -178.492 171.198C-14.4388 190.418 63.7515 262.528 226.471 252.703C389.191 242.878 459.335 292.825 599.543 343.872C810.043 420.51 1173.01 382.657 1173.01 382.657" stroke="url(#paint7_linear_1_748)" stroke-width="1.4"/>
<path d="M-482 267.019C-402.877 248.566 -357.287 171.406 -191.899 188.707C-26.5111 206.008 53.5002 280.059 217 267.019C380.5 253.978 452 304.999 594 355.975C807.192 432.509 1171.6 386.759 1171.6 386.759" stroke="url(#paint8_linear_1_748)" stroke-width="1.5"/>
</g>
<defs>
<linearGradient id="paint0_linear_1_748" x1="-263.996" y1="63.9933" x2="-264.458" y2="343.517" gradientUnits="userSpaceOnUse">
<stop stop-color="#0B180D"/>
<stop offset="0.0548279" stop-color="#7F0B0B"/>
<stop offset="0.848928" stop-color="#7F0B0B"/>
<stop offset="1" stop-color="#924A4A" stop-opacity="0"/>
</linearGradient>
<linearGradient id="paint1_linear_1_748" x1="-226.996" y1="75.1876" x2="-224.754" y2="362.215" gradientUnits="userSpaceOnUse">
<stop stop-color="#FC594F" stop-opacity="0"/>
<stop offset="0.0881905" stop-color="#462929"/>
<stop offset="0.891583" stop-color="#7F0B0B"/>
<stop offset="1" stop-color="#924A4A" stop-opacity="0"/>
</linearGradient>
<linearGradient id="paint2_linear_1_748" x1="-219.996" y1="111.569" x2="-208.028" y2="410.05" gradientUnits="userSpaceOnUse">
<stop stop-color="#FC594F" stop-opacity="0"/>
<stop offset="0.0582288" stop-color="#C10606"/>
<stop offset="0.891583" stop-color="#870A0A"/>
<stop offset="1" stop-color="#924A4A" stop-opacity="0"/>
</linearGradient>
<linearGradient id="paint3_linear_1_748" x1="-191.77" y1="135.749" x2="-173.195" y2="440.825" gradientUnits="userSpaceOnUse">
<stop stop-color="#FC594F" stop-opacity="0"/>
<stop offset="0.0001" stop-color="#FA0F1B"/>
<stop offset="0.135417" stop-color="#BF1921"/>
<stop offset="0.891583" stop-color="#54080C"/>
<stop offset="1" stop-color="#691116"/>
</linearGradient>
<linearGradient id="paint4_linear_1_748" x1="-206.749" y1="155.324" x2="-179.706" y2="476.558" gradientUnits="userSpaceOnUse">
<stop stop-color="#FC594F" stop-opacity="0"/>
<stop offset="0.0001" stop-color="#FA0F1B"/>
<stop offset="0.135417" stop-color="#BF1921"/>
<stop offset="0.891583" stop-color="#54080C"/>
<stop offset="1" stop-color="#691116"/>
</linearGradient>
<linearGradient id="paint5_linear_1_748" x1="-221.242" y1="175.201" x2="-185.005" y2="512.342" gradientUnits="userSpaceOnUse">
<stop stop-color="#FC594F" stop-opacity="0"/>
<stop offset="0.0001" stop-color="#FA0F1B"/>
<stop offset="0.135417" stop-color="#BF1921"/>
<stop offset="0.891583" stop-color="#54080C"/>
<stop offset="1" stop-color="#691116"/>
</linearGradient>
<linearGradient id="paint6_linear_1_748" x1="-235.24" y1="195.371" x2="-189.091" y2="548.145" gradientUnits="userSpaceOnUse">
<stop stop-color="#FC594F" stop-opacity="0"/>
<stop offset="0.0001" stop-color="#FA0F1B"/>
<stop offset="0.135417" stop-color="#BF1921"/>
<stop offset="0.891583" stop-color="#54080C"/>
<stop offset="1" stop-color="#691116"/>
</linearGradient>
<linearGradient id="paint7_linear_1_748" x1="-248.735" y1="215.826" x2="-191.968" y2="583.94" gradientUnits="userSpaceOnUse">
<stop stop-color="#FC594F" stop-opacity="0"/>
<stop offset="0.0001" stop-color="#FA0F1B"/>
<stop offset="0.135417" stop-color="#BF1921"/>
<stop offset="0.891583" stop-color="#54080C"/>
<stop offset="1" stop-color="#691116"/>
</linearGradient>
<linearGradient id="paint8_linear_1_748" x1="-261.718" y1="236.557" x2="-193.638" y2="619.694" gradientUnits="userSpaceOnUse">
<stop stop-color="#FC594F" stop-opacity="0"/>
<stop offset="0.0001" stop-color="#FA0F1B"/>
<stop offset="0.135417" stop-color="#BF1921"/>
<stop offset="0.891583" stop-color="#54080C"/>
<stop offset="1" stop-color="#691116"/>
</linearGradient>
</defs>
</svg>
