<svg width="1440" height="1108" viewBox="0 0 1440 1108" fill="none" xmlns="http://www.w3.org/2000/svg">
<path d="M1009.86 239.293C797.059 157.401 793.976 124.07 623.476 145.675C452.976 167.279 417.249 25.8397 251.861 7.29358C86.4725 -11.2525 17.9131 9.11702 -61.2095 28.8977C-61.2095 116.069 -63.3267 630 -63.3267 630L1482.86 630L1482.86 164.328C1482.86 164.328 1223.05 321.336 1009.86 239.293Z" fill="url(#paint0_linear_305_4251)"/>
<path d="M950.74 252.971C737.938 171.078 731.24 259.492 567.74 273.471C404.24 287.451 388.489 141.236 223.101 122.69C57.7127 104.144 12.1225 186.859 -67 206.639C-67 294.572 -67 1108 -67 1108L1586.6 1108L1586.6 176.289C1586.6 176.289 1163.93 335.014 950.74 252.971Z" fill="url(#paint1_linear_305_4251)"/>
<defs>
<linearGradient id="paint0_linear_305_4251" x1="739.384" y1="49.4848" x2="739.384" y2="335.485" gradientUnits="userSpaceOnUse">
<stop stop-color="#B1060F"/>
<stop offset="1" stop-color="#CBD8F1"/>
</linearGradient>
<linearGradient id="paint1_linear_305_4251" x1="763.836" y1="134.971" x2="763.836" y2="349.875" gradientUnits="userSpaceOnUse">
<stop stop-color="#B8CAEF" stop-opacity="0.24"/>
<stop offset="1" stop-color="#E5EEF4"/>
</linearGradient>
</defs>
</svg>
