<svg width="576" height="431" viewBox="0 0 576 431" fill="none" xmlns="http://www.w3.org/2000/svg">
<g filter="url(#filter0_bd_277_7121)">
<rect x="60" y="30" width="456" height="311" rx="27.2727" fill="url(#paint0_radial_277_7121)" fill-opacity="0.8"/>
<rect x="60.25" y="30.25" width="455.5" height="310.5" rx="27.0227" stroke="black" stroke-opacity="0.2" stroke-width="0.5"/>
</g>
<g filter="url(#filter1_bd_277_7121)">
<rect x="72" y="40" width="432" height="292" rx="23.2517" fill="url(#paint1_radial_277_7121)" fill-opacity="0.6"/>
<rect x="72.1938" y="40.1938" width="431.612" height="291.612" rx="23.0579" stroke="white" stroke-opacity="0.3" stroke-width="0.387528"/>
</g>
<g filter="url(#filter2_d_277_7121)">
<g clip-path="url(#clip0_277_7121)">
<g filter="url(#filter3_bd_277_7121)">
<rect x="68.5539" y="40.2015" width="506.184" height="291.597" stroke="white" stroke-opacity="0.3" stroke-width="0.403061"/>
</g>
</g>
</g>
<path d="M459.721 88.7433L466.656 106.181C464.612 105.904 462.569 105.556 460.488 105.245L456.581 95.6079L452.567 104.448C450.596 104.136 448.66 104.031 446.689 103.789L453.735 88.5354L447.346 72.9014H453.261L456.837 81.6365L460.67 72.9014H466.656L459.721 88.7433ZM442.675 72.9014H437.309V103.131C439.061 103.235 440.886 103.303 442.675 103.511V72.9014ZM432.672 102.783C427.782 102.471 422.89 102.195 417.89 102.09V72.9014H423.364V97.1676C426.504 97.2372 429.643 97.4795 432.672 97.6178V102.783ZM412.049 84.7225V89.9224H404.567V101.744H399.164V72.9014H414.495V78.1013H404.567V84.7225H412.049ZM389.965 78.1013V102.021C388.14 102.021 386.279 102.021 384.49 102.09V78.1013H378.831V72.9014H395.659V78.1013H389.965ZM372.918 90.199C370.51 90.199 367.662 90.199 365.618 90.304V98.0347C368.83 97.8258 372.042 97.5835 375.291 97.4795V102.471L360.143 103.616V72.9014H375.291V78.1013H365.618V85.1031C367.735 85.1031 370.984 84.9991 372.918 84.9991V90.199ZM342.585 87.2877V105.452C340.614 105.661 338.861 105.904 337 106.181V72.9014H342.22L349.338 91.7951V72.9014H354.813V104.031C352.878 104.344 350.908 104.448 348.826 104.725L342.585 87.2877Z" fill="#E50914"/>
<defs>
<filter id="filter0_bd_277_7121" x="0" y="-10" width="576" height="441" filterUnits="userSpaceOnUse" color-interpolation-filters="sRGB">
<feFlood flood-opacity="0" result="BackgroundImageFix"/>
<feGaussianBlur in="BackgroundImageFix" stdDeviation="20"/>
<feComposite in2="SourceAlpha" operator="in" result="effect1_backgroundBlur_277_7121"/>
<feColorMatrix in="SourceAlpha" type="matrix" values="0 0 0 0 0 0 0 0 0 0 0 0 0 0 0 0 0 0 127 0" result="hardAlpha"/>
<feOffset dy="30"/>
<feGaussianBlur stdDeviation="30"/>
<feColorMatrix type="matrix" values="0 0 0 0 0.1525 0 0 0 0 0.301667 0 0 0 0 0.6 0 0 0 0.1 0"/>
<feBlend mode="normal" in2="effect1_backgroundBlur_277_7121" result="effect2_dropShadow_277_7121"/>
<feBlend mode="normal" in="SourceGraphic" in2="effect2_dropShadow_277_7121" result="shape"/>
</filter>
<filter id="filter1_bd_277_7121" x="25.4966" y="8.99774" width="525.007" height="392.757" filterUnits="userSpaceOnUse" color-interpolation-filters="sRGB">
<feFlood flood-opacity="0" result="BackgroundImageFix"/>
<feGaussianBlur in="BackgroundImageFix" stdDeviation="15.5011"/>
<feComposite in2="SourceAlpha" operator="in" result="effect1_backgroundBlur_277_7121"/>
<feColorMatrix in="SourceAlpha" type="matrix" values="0 0 0 0 0 0 0 0 0 0 0 0 0 0 0 0 0 0 127 0" result="hardAlpha"/>
<feOffset dy="23.2517"/>
<feGaussianBlur stdDeviation="23.2517"/>
<feColorMatrix type="matrix" values="0 0 0 0 0 0 0 0 0 0 0 0 0 0 0 0 0 0 0.41 0"/>
<feBlend mode="normal" in2="effect1_backgroundBlur_277_7121" result="effect2_dropShadow_277_7121"/>
<feBlend mode="normal" in="SourceGraphic" in2="effect2_dropShadow_277_7121" result="shape"/>
</filter>
<filter id="filter2_d_277_7121" x="69" y="40" width="441" height="300" filterUnits="userSpaceOnUse" color-interpolation-filters="sRGB">
<feFlood flood-opacity="0" result="BackgroundImageFix"/>
<feColorMatrix in="SourceAlpha" type="matrix" values="0 0 0 0 0 0 0 0 0 0 0 0 0 0 0 0 0 0 127 0" result="hardAlpha"/>
<feOffset dy="4"/>
<feGaussianBlur stdDeviation="2"/>
<feComposite in2="hardAlpha" operator="out"/>
<feColorMatrix type="matrix" values="0 0 0 0 0 0 0 0 0 0 0 0 0 0 0 0 0 0 0.25 0"/>
<feBlend mode="normal" in2="BackgroundImageFix" result="effect1_dropShadow_277_7121"/>
<feBlend mode="normal" in="SourceGraphic" in2="effect1_dropShadow_277_7121" result="shape"/>
</filter>
<filter id="filter3_bd_277_7121" x="19.9851" y="7.75515" width="603.321" height="396.796" filterUnits="userSpaceOnUse" color-interpolation-filters="sRGB">
<feFlood flood-opacity="0" result="BackgroundImageFix"/>
<feGaussianBlur in="BackgroundImageFix" stdDeviation="16.1224"/>
<feComposite in2="SourceAlpha" operator="in" result="effect1_backgroundBlur_277_7121"/>
<feColorMatrix in="SourceAlpha" type="matrix" values="0 0 0 0 0 0 0 0 0 0 0 0 0 0 0 0 0 0 127 0" result="hardAlpha"/>
<feOffset dy="24.1836"/>
<feGaussianBlur stdDeviation="24.1836"/>
<feColorMatrix type="matrix" values="0 0 0 0 0 0 0 0 0 0 0 0 0 0 0 0 0 0 0.41 0"/>
<feBlend mode="normal" in2="effect1_backgroundBlur_277_7121" result="effect2_dropShadow_277_7121"/>
<feBlend mode="normal" in="SourceGraphic" in2="effect2_dropShadow_277_7121" result="shape"/>
</filter>
<radialGradient id="paint0_radial_277_7121" cx="0" cy="0" r="1" gradientUnits="userSpaceOnUse" gradientTransform="translate(298 24) rotate(88.7614) scale(370.086 488.658)">
<stop stop-color="#414141"/>
<stop offset="0.463542" stop-color="#2E0608" stop-opacity="0.72"/>
<stop offset="1" stop-color="white" stop-opacity="0"/>
</radialGradient>
<radialGradient id="paint1_radial_277_7121" cx="0" cy="0" r="1" gradientUnits="userSpaceOnUse" gradientTransform="translate(504 332) rotate(-167.714) scale(966.077 848.351)">
<stop/>
<stop offset="0.430208" stop-color="#8A0509"/>
<stop offset="1" stop-color="#D1090F"/>
</radialGradient>
<clipPath id="clip0_277_7121">
<rect x="73" y="40" width="433" height="292" rx="23.35" fill="white"/>
</clipPath>
</defs>
</svg>
