<svg width="576" height="431" viewBox="0 0 576 431" fill="none" xmlns="http://www.w3.org/2000/svg">
<g filter="url(#filter0_bd_252_2381)">
<rect x="60" y="30" width="456" height="311" rx="27.2727" fill="url(#paint0_radial_252_2381)" fill-opacity="0.8"/>
<rect x="60.25" y="30.25" width="455.5" height="310.5" rx="27.0227" stroke="black" stroke-opacity="0.2" stroke-width="0.5"/>
</g>
<g filter="url(#filter1_bd_252_2381)">
<rect x="72" y="40" width="432" height="213" rx="23.2517" fill="url(#paint1_radial_252_2381)" fill-opacity="0.6"/>
<rect x="72.1938" y="40.1938" width="431.612" height="212.612" rx="23.0579" stroke="white" stroke-opacity="0.3" stroke-width="0.387528"/>
</g>
<g clip-path="url(#clip0_252_2381)">
<g filter="url(#filter2_bd_252_2381)">
<rect x="68.3524" y="40" width="506.587" height="213" fill="url(#paint2_radial_252_2381)" fill-opacity="0.6"/>
<rect x="68.5539" y="40.2015" width="506.184" height="212.597" stroke="white" stroke-opacity="0.3" stroke-width="0.403061"/>
</g>
<path d="M72.6377 271.879H146.588V193.337L91.971 40.1206H72.6377V271.879Z" fill="#B1060F"/>
<path d="M266.092 40.2417L192.142 40.2417L192.142 118.783L246.758 272H266.092L266.092 40.2417Z" fill="#B1060F"/>
<g filter="url(#filter3_d_252_2381)">
<path d="M86.6542 25.3792L181.267 292.542H255.217L160.242 25.3792H86.6542Z" fill="#E50914"/>
</g>
</g>
<path d="M459.721 79.8426L466.656 97.2812C464.612 97.0036 462.569 96.6563 460.488 96.3444L456.581 86.7074L452.567 95.5479C450.596 95.2359 448.66 95.1309 446.689 94.8886L453.735 79.6346L447.346 64H453.261L456.837 72.7355L460.67 64H466.656L459.721 79.8426ZM442.675 64H437.309V94.2304C439.061 94.3344 440.886 94.403 442.675 94.611V64ZM432.672 93.8831C427.782 93.5712 422.89 93.2946 417.89 93.1896V64H423.364V88.2671C426.504 88.3368 429.643 88.5791 432.672 88.7174V93.8831ZM412.049 75.8216V81.0217H404.567V92.8433H399.164V64H414.495V69.2001H404.567V75.8216H412.049ZM389.965 69.2001V93.121C388.14 93.121 386.279 93.121 384.49 93.1896V69.2001H378.831V64H395.659V69.2001H389.965ZM372.918 81.2983C370.51 81.2983 367.662 81.2983 365.618 81.4033V89.1343C368.83 88.9253 372.042 88.683 375.291 88.5791V93.5712L360.143 94.716V64H375.291V69.2001H365.618V76.2022C367.735 76.2022 370.984 76.0982 372.918 76.0982V81.2983ZM342.585 78.3868V96.5523C340.614 96.7613 338.861 97.0036 337 97.2812V64H342.22L349.338 82.8944V64H354.813V95.1309C352.878 95.4439 350.908 95.5479 348.826 95.8245L342.585 78.3868Z" fill="#E50914"/>
<path d="M143.447 317H141.335V312.687H137.377V317H135.258V307.006H137.377V310.923H141.335V307.006H143.447V317ZM152.758 313.165C152.758 313.803 152.671 314.368 152.498 314.86C152.329 315.353 152.081 315.77 151.753 316.111C151.429 316.449 151.037 316.704 150.577 316.877C150.121 317.05 149.606 317.137 149.032 317.137C148.494 317.137 148 317.05 147.549 316.877C147.102 316.704 146.713 316.449 146.38 316.111C146.052 315.77 145.797 315.353 145.614 314.86C145.437 314.368 145.348 313.803 145.348 313.165C145.348 312.317 145.498 311.6 145.799 311.012C146.1 310.424 146.528 309.977 147.084 309.672C147.64 309.367 148.303 309.214 149.073 309.214C149.789 309.214 150.422 309.367 150.974 309.672C151.53 309.977 151.965 310.424 152.279 311.012C152.598 311.6 152.758 312.317 152.758 313.165ZM147.474 313.165C147.474 313.666 147.528 314.088 147.638 314.43C147.747 314.771 147.918 315.029 148.15 315.202C148.383 315.375 148.686 315.462 149.06 315.462C149.429 315.462 149.727 315.375 149.955 315.202C150.188 315.029 150.356 314.771 150.461 314.43C150.57 314.088 150.625 313.666 150.625 313.165C150.625 312.659 150.57 312.24 150.461 311.907C150.356 311.57 150.188 311.317 149.955 311.148C149.723 310.98 149.42 310.896 149.046 310.896C148.494 310.896 148.093 311.085 147.843 311.463C147.597 311.841 147.474 312.409 147.474 313.165ZM156.299 317L153.387 309.357H155.567L157.044 313.712C157.126 313.967 157.19 314.236 157.235 314.519C157.285 314.801 157.32 315.054 157.338 315.277H157.393C157.406 315.036 157.438 314.778 157.488 314.505C157.543 314.231 157.614 313.967 157.7 313.712L159.17 309.357H161.351L158.438 317H156.299ZM165.603 309.214C166.309 309.214 166.917 309.351 167.428 309.624C167.938 309.893 168.332 310.285 168.61 310.8C168.888 311.315 169.027 311.944 169.027 312.687V313.698H164.099C164.121 314.286 164.297 314.749 164.625 315.086C164.958 315.419 165.418 315.585 166.006 315.585C166.493 315.585 166.94 315.535 167.346 315.435C167.751 315.334 168.168 315.184 168.597 314.983V316.597C168.218 316.784 167.822 316.92 167.407 317.007C166.997 317.093 166.498 317.137 165.91 317.137C165.145 317.137 164.465 316.995 163.873 316.713C163.285 316.43 162.823 316 162.485 315.421C162.153 314.842 161.986 314.113 161.986 313.233C161.986 312.34 162.137 311.597 162.438 311.005C162.743 310.408 163.167 309.961 163.709 309.665C164.251 309.364 164.882 309.214 165.603 309.214ZM165.616 310.697C165.211 310.697 164.873 310.827 164.604 311.087C164.34 311.347 164.188 311.755 164.146 312.311H167.072C167.068 312.001 167.011 311.725 166.901 311.483C166.797 311.242 166.637 311.05 166.423 310.909C166.213 310.768 165.944 310.697 165.616 310.697ZM174.988 309.214C175.093 309.214 175.214 309.221 175.351 309.234C175.492 309.243 175.606 309.257 175.692 309.275L175.535 311.23C175.467 311.208 175.369 311.192 175.241 311.183C175.118 311.169 175.011 311.162 174.92 311.162C174.651 311.162 174.389 311.196 174.134 311.265C173.883 311.333 173.658 311.445 173.457 311.6C173.257 311.75 173.097 311.951 172.979 312.201C172.865 312.447 172.808 312.75 172.808 313.11V317H170.723V309.357H172.302L172.609 310.643H172.712C172.862 310.383 173.049 310.146 173.272 309.932C173.5 309.713 173.758 309.54 174.045 309.412C174.337 309.28 174.651 309.214 174.988 309.214ZM183.937 315.476C184.164 315.476 184.385 315.453 184.6 315.407C184.818 315.362 185.035 315.305 185.249 315.236V316.788C185.026 316.888 184.748 316.97 184.415 317.034C184.087 317.103 183.727 317.137 183.335 317.137C182.879 317.137 182.469 317.064 182.104 316.918C181.744 316.768 181.46 316.51 181.25 316.146C181.045 315.776 180.942 315.264 180.942 314.607V310.923H179.944V310.041L181.093 309.344L181.694 307.73H183.027V309.357H185.167V310.923H183.027V314.607C183.027 314.899 183.109 315.118 183.273 315.264C183.442 315.405 183.663 315.476 183.937 315.476ZM193.746 313.165C193.746 313.803 193.66 314.368 193.486 314.86C193.318 315.353 193.069 315.77 192.741 316.111C192.418 316.449 192.026 316.704 191.565 316.877C191.11 317.05 190.595 317.137 190.021 317.137C189.483 317.137 188.988 317.05 188.537 316.877C188.09 316.704 187.701 316.449 187.368 316.111C187.04 315.77 186.785 315.353 186.603 314.86C186.425 314.368 186.336 313.803 186.336 313.165C186.336 312.317 186.486 311.6 186.787 311.012C187.088 310.424 187.516 309.977 188.072 309.672C188.628 309.367 189.291 309.214 190.062 309.214C190.777 309.214 191.41 309.367 191.962 309.672C192.518 309.977 192.953 310.424 193.268 311.012C193.587 311.6 193.746 312.317 193.746 313.165ZM188.462 313.165C188.462 313.666 188.517 314.088 188.626 314.43C188.735 314.771 188.906 315.029 189.139 315.202C189.371 315.375 189.674 315.462 190.048 315.462C190.417 315.462 190.715 315.375 190.943 315.202C191.176 315.029 191.344 314.771 191.449 314.43C191.559 314.088 191.613 313.666 191.613 313.165C191.613 312.659 191.559 312.24 191.449 311.907C191.344 311.57 191.176 311.317 190.943 311.148C190.711 310.98 190.408 310.896 190.034 310.896C189.483 310.896 189.082 311.085 188.831 311.463C188.585 311.841 188.462 312.409 188.462 313.165ZM204.438 314.73C204.438 315.25 204.314 315.69 204.068 316.05C203.827 316.405 203.465 316.676 202.981 316.863C202.498 317.046 201.897 317.137 201.177 317.137C200.644 317.137 200.186 317.103 199.803 317.034C199.424 316.966 199.042 316.852 198.654 316.692V314.97C199.069 315.157 199.513 315.312 199.987 315.435C200.466 315.553 200.885 315.612 201.245 315.612C201.651 315.612 201.94 315.553 202.113 315.435C202.291 315.312 202.38 315.152 202.38 314.956C202.38 314.828 202.343 314.715 202.271 314.614C202.202 314.509 202.052 314.393 201.819 314.266C201.587 314.133 201.222 313.963 200.726 313.753C200.247 313.552 199.853 313.35 199.543 313.145C199.238 312.939 199.01 312.698 198.859 312.42C198.714 312.137 198.641 311.78 198.641 311.347C198.641 310.64 198.914 310.109 199.461 309.754C200.012 309.394 200.748 309.214 201.669 309.214C202.143 309.214 202.594 309.262 203.022 309.357C203.455 309.453 203.9 309.606 204.355 309.815L203.727 311.319C203.348 311.155 202.991 311.021 202.653 310.916C202.321 310.811 201.981 310.759 201.635 310.759C201.329 310.759 201.099 310.8 200.944 310.882C200.789 310.964 200.712 311.089 200.712 311.258C200.712 311.381 200.751 311.49 200.828 311.586C200.91 311.682 201.065 311.789 201.293 311.907C201.525 312.021 201.865 312.169 202.312 312.352C202.744 312.529 203.12 312.716 203.439 312.912C203.758 313.104 204.005 313.343 204.178 313.63C204.351 313.912 204.438 314.279 204.438 314.73ZM209.216 309.214C209.922 309.214 210.531 309.351 211.041 309.624C211.551 309.893 211.946 310.285 212.224 310.8C212.502 311.315 212.641 311.944 212.641 312.687V313.698H207.712C207.735 314.286 207.91 314.749 208.238 315.086C208.571 315.419 209.031 315.585 209.619 315.585C210.107 315.585 210.553 315.535 210.959 315.435C211.365 315.334 211.782 315.184 212.21 314.983V316.597C211.832 316.784 211.435 316.92 211.021 317.007C210.61 317.093 210.111 317.137 209.523 317.137C208.758 317.137 208.079 316.995 207.486 316.713C206.898 316.43 206.436 316 206.099 315.421C205.766 314.842 205.6 314.113 205.6 313.233C205.6 312.34 205.75 311.597 206.051 311.005C206.356 310.408 206.78 309.961 207.322 309.665C207.865 309.364 208.496 309.214 209.216 309.214ZM209.229 310.697C208.824 310.697 208.487 310.827 208.218 311.087C207.953 311.347 207.801 311.755 207.76 312.311H210.686C210.681 312.001 210.624 311.725 210.515 311.483C210.41 311.242 210.25 311.05 210.036 310.909C209.826 310.768 209.558 310.697 209.229 310.697ZM217.487 309.214C218.194 309.214 218.802 309.351 219.312 309.624C219.823 309.893 220.217 310.285 220.495 310.8C220.773 311.315 220.912 311.944 220.912 312.687V313.698H215.983C216.006 314.286 216.182 314.749 216.51 315.086C216.842 315.419 217.303 315.585 217.891 315.585C218.378 315.585 218.825 315.535 219.23 315.435C219.636 315.334 220.053 315.184 220.481 314.983V316.597C220.103 316.784 219.707 316.92 219.292 317.007C218.882 317.093 218.383 317.137 217.795 317.137C217.029 317.137 216.35 316.995 215.758 316.713C215.17 316.43 214.707 316 214.37 315.421C214.037 314.842 213.871 314.113 213.871 313.233C213.871 312.34 214.021 311.597 214.322 311.005C214.628 310.408 215.051 309.961 215.594 309.665C216.136 309.364 216.767 309.214 217.487 309.214ZM217.501 310.697C217.095 310.697 216.758 310.827 216.489 311.087C216.225 311.347 216.072 311.755 216.031 312.311H218.957C218.952 312.001 218.896 311.725 218.786 311.483C218.681 311.242 218.522 311.05 218.308 310.909C218.098 310.768 217.829 310.697 217.501 310.697ZM229.464 315.476C229.692 315.476 229.913 315.453 230.127 315.407C230.346 315.362 230.562 315.305 230.776 315.236V316.788C230.553 316.888 230.275 316.97 229.942 317.034C229.614 317.103 229.254 317.137 228.862 317.137C228.407 317.137 227.996 317.064 227.632 316.918C227.272 316.768 226.987 316.51 226.777 316.146C226.572 315.776 226.47 315.264 226.47 314.607V310.923H225.472V310.041L226.62 309.344L227.222 307.73H228.555V309.357H230.694V310.923H228.555V314.607C228.555 314.899 228.637 315.118 228.801 315.264C228.969 315.405 229.19 315.476 229.464 315.476ZM234.413 306.363V308.53C234.413 308.909 234.399 309.269 234.372 309.61C234.349 309.952 234.331 310.194 234.317 310.335H234.427C234.591 310.071 234.785 309.856 235.008 309.692C235.236 309.528 235.486 309.408 235.76 309.33C236.033 309.253 236.327 309.214 236.642 309.214C237.193 309.214 237.674 309.312 238.084 309.508C238.494 309.699 238.813 310.002 239.041 310.417C239.269 310.827 239.383 311.36 239.383 312.017V317H237.298V312.536C237.298 311.989 237.198 311.577 236.997 311.299C236.797 311.021 236.487 310.882 236.067 310.882C235.648 310.882 235.318 310.98 235.076 311.176C234.835 311.367 234.664 311.652 234.563 312.03C234.463 312.404 234.413 312.862 234.413 313.404V317H232.328V306.363H234.413ZM244.681 309.214C245.387 309.214 245.995 309.351 246.506 309.624C247.016 309.893 247.41 310.285 247.688 310.8C247.966 311.315 248.105 311.944 248.105 312.687V313.698H243.177C243.2 314.286 243.375 314.749 243.703 315.086C244.036 315.419 244.496 315.585 245.084 315.585C245.572 315.585 246.018 315.535 246.424 315.435C246.829 315.334 247.246 315.184 247.675 314.983V316.597C247.297 316.784 246.9 316.92 246.485 317.007C246.075 317.093 245.576 317.137 244.988 317.137C244.223 317.137 243.544 316.995 242.951 316.713C242.363 316.43 241.901 316 241.563 315.421C241.231 314.842 241.064 314.113 241.064 313.233C241.064 312.34 241.215 311.597 241.516 311.005C241.821 310.408 242.245 309.961 242.787 309.665C243.329 309.364 243.961 309.214 244.681 309.214ZM244.694 310.697C244.289 310.697 243.951 310.827 243.683 311.087C243.418 311.347 243.266 311.755 243.225 312.311H246.15C246.146 312.001 246.089 311.725 245.979 311.483C245.875 311.242 245.715 311.05 245.501 310.909C245.291 310.768 245.022 310.697 244.694 310.697ZM256.657 315.476C256.885 315.476 257.106 315.453 257.32 315.407C257.539 315.362 257.756 315.305 257.97 315.236V316.788C257.746 316.888 257.468 316.97 257.136 317.034C256.808 317.103 256.448 317.137 256.056 317.137C255.6 317.137 255.19 317.064 254.825 316.918C254.465 316.768 254.18 316.51 253.971 316.146C253.766 315.776 253.663 315.264 253.663 314.607V310.923H252.665V310.041L253.813 309.344L254.415 307.73H255.748V309.357H257.888V310.923H255.748V314.607C255.748 314.899 255.83 315.118 255.994 315.264C256.163 315.405 256.384 315.476 256.657 315.476ZM266.467 313.165C266.467 313.803 266.38 314.368 266.207 314.86C266.038 315.353 265.79 315.77 265.462 316.111C265.138 316.449 264.746 316.704 264.286 316.877C263.83 317.05 263.315 317.137 262.741 317.137C262.203 317.137 261.709 317.05 261.258 316.877C260.811 316.704 260.422 316.449 260.089 316.111C259.761 315.77 259.506 315.353 259.323 314.86C259.146 314.368 259.057 313.803 259.057 313.165C259.057 312.317 259.207 311.6 259.508 311.012C259.809 310.424 260.237 309.977 260.793 309.672C261.349 309.367 262.012 309.214 262.782 309.214C263.498 309.214 264.131 309.367 264.683 309.672C265.239 309.977 265.674 310.424 265.988 311.012C266.307 311.6 266.467 312.317 266.467 313.165ZM261.183 313.165C261.183 313.666 261.237 314.088 261.347 314.43C261.456 314.771 261.627 315.029 261.859 315.202C262.092 315.375 262.395 315.462 262.769 315.462C263.138 315.462 263.436 315.375 263.664 315.202C263.896 315.029 264.065 314.771 264.17 314.43C264.279 314.088 264.334 313.666 264.334 313.165C264.334 312.659 264.279 312.24 264.17 311.907C264.065 311.57 263.896 311.317 263.664 311.148C263.432 310.98 263.129 310.896 262.755 310.896C262.203 310.896 261.802 311.085 261.552 311.463C261.306 311.841 261.183 312.409 261.183 313.165ZM275.135 313.165C275.135 313.803 275.048 314.368 274.875 314.86C274.706 315.353 274.458 315.77 274.13 316.111C273.806 316.449 273.414 316.704 272.954 316.877C272.498 317.05 271.983 317.137 271.409 317.137C270.871 317.137 270.377 317.05 269.926 316.877C269.479 316.704 269.09 316.449 268.757 316.111C268.429 315.77 268.174 315.353 267.991 314.86C267.813 314.368 267.725 313.803 267.725 313.165C267.725 312.317 267.875 311.6 268.176 311.012C268.477 310.424 268.905 309.977 269.461 309.672C270.017 309.367 270.68 309.214 271.45 309.214C272.166 309.214 272.799 309.367 273.351 309.672C273.907 309.977 274.342 310.424 274.656 311.012C274.975 311.6 275.135 312.317 275.135 313.165ZM269.851 313.165C269.851 313.666 269.905 314.088 270.015 314.43C270.124 314.771 270.295 315.029 270.527 315.202C270.76 315.375 271.063 315.462 271.437 315.462C271.806 315.462 272.104 315.375 272.332 315.202C272.564 315.029 272.733 314.771 272.838 314.43C272.947 314.088 273.002 313.666 273.002 313.165C273.002 312.659 272.947 312.24 272.838 311.907C272.733 311.57 272.564 311.317 272.332 311.148C272.1 310.98 271.797 310.896 271.423 310.896C270.871 310.896 270.47 311.085 270.22 311.463C269.974 311.841 269.851 312.409 269.851 313.165ZM278.942 317H276.857V306.363H278.942V317ZM286.469 314.73C286.469 315.25 286.346 315.69 286.1 316.05C285.858 316.405 285.496 316.676 285.013 316.863C284.53 317.046 283.928 317.137 283.208 317.137C282.675 317.137 282.217 317.103 281.834 317.034C281.456 316.966 281.073 316.852 280.686 316.692V314.97C281.1 315.157 281.545 315.312 282.019 315.435C282.497 315.553 282.916 315.612 283.276 315.612C283.682 315.612 283.971 315.553 284.145 315.435C284.322 315.312 284.411 315.152 284.411 314.956C284.411 314.828 284.375 314.715 284.302 314.614C284.233 314.509 284.083 314.393 283.851 314.266C283.618 314.133 283.254 313.963 282.757 313.753C282.278 313.552 281.884 313.35 281.574 313.145C281.269 312.939 281.041 312.698 280.891 312.42C280.745 312.137 280.672 311.78 280.672 311.347C280.672 310.64 280.945 310.109 281.492 309.754C282.044 309.394 282.78 309.214 283.7 309.214C284.174 309.214 284.625 309.262 285.054 309.357C285.487 309.453 285.931 309.606 286.387 309.815L285.758 311.319C285.38 311.155 285.022 311.021 284.685 310.916C284.352 310.811 284.012 310.759 283.666 310.759C283.361 310.759 283.131 310.8 282.976 310.882C282.821 310.964 282.743 311.089 282.743 311.258C282.743 311.381 282.782 311.49 282.859 311.586C282.941 311.682 283.096 311.789 283.324 311.907C283.557 312.021 283.896 312.169 284.343 312.352C284.776 312.529 285.152 312.716 285.471 312.912C285.79 313.104 286.036 313.343 286.209 313.63C286.382 313.912 286.469 314.279 286.469 314.73ZM298.746 309.357V317H297.146L296.866 316.022H296.757C296.593 316.282 296.388 316.494 296.142 316.658C295.896 316.822 295.624 316.943 295.328 317.021C295.032 317.098 294.724 317.137 294.405 317.137C293.858 317.137 293.382 317.041 292.977 316.85C292.571 316.654 292.254 316.351 292.026 315.94C291.803 315.53 291.691 314.997 291.691 314.341V309.357H293.776V313.821C293.776 314.368 293.874 314.781 294.07 315.059C294.266 315.337 294.578 315.476 295.007 315.476C295.431 315.476 295.763 315.38 296.005 315.188C296.246 314.993 296.415 314.708 296.511 314.334C296.611 313.956 296.661 313.495 296.661 312.953V309.357H298.746ZM306.266 314.73C306.266 315.25 306.143 315.69 305.896 316.05C305.655 316.405 305.293 316.676 304.81 316.863C304.326 317.046 303.725 317.137 303.005 317.137C302.472 317.137 302.014 317.103 301.631 317.034C301.253 316.966 300.87 316.852 300.482 316.692V314.97C300.897 315.157 301.341 315.312 301.815 315.435C302.294 315.553 302.713 315.612 303.073 315.612C303.479 315.612 303.768 315.553 303.941 315.435C304.119 315.312 304.208 315.152 304.208 314.956C304.208 314.828 304.172 314.715 304.099 314.614C304.03 314.509 303.88 314.393 303.647 314.266C303.415 314.133 303.05 313.963 302.554 313.753C302.075 313.552 301.681 313.35 301.371 313.145C301.066 312.939 300.838 312.698 300.688 312.42C300.542 312.137 300.469 311.78 300.469 311.347C300.469 310.64 300.742 310.109 301.289 309.754C301.84 309.394 302.576 309.214 303.497 309.214C303.971 309.214 304.422 309.262 304.851 309.357C305.284 309.453 305.728 309.606 306.184 309.815L305.555 311.319C305.176 311.155 304.819 311.021 304.481 310.916C304.149 310.811 303.809 310.759 303.463 310.759C303.158 310.759 302.927 310.8 302.772 310.882C302.618 310.964 302.54 311.089 302.54 311.258C302.54 311.381 302.579 311.49 302.656 311.586C302.738 311.682 302.893 311.789 303.121 311.907C303.354 312.021 303.693 312.169 304.14 312.352C304.573 312.529 304.949 312.716 305.268 312.912C305.587 313.104 305.833 313.343 306.006 313.63C306.179 313.912 306.266 314.279 306.266 314.73ZM311.044 309.214C311.75 309.214 312.359 309.351 312.869 309.624C313.38 309.893 313.774 310.285 314.052 310.8C314.33 311.315 314.469 311.944 314.469 312.687V313.698H309.54C309.563 314.286 309.738 314.749 310.066 315.086C310.399 315.419 310.859 315.585 311.447 315.585C311.935 315.585 312.382 315.535 312.787 315.435C313.193 315.334 313.61 315.184 314.038 314.983V316.597C313.66 316.784 313.263 316.92 312.849 317.007C312.438 317.093 311.939 317.137 311.352 317.137C310.586 317.137 309.907 316.995 309.314 316.713C308.727 316.43 308.264 316 307.927 315.421C307.594 314.842 307.428 314.113 307.428 313.233C307.428 312.34 307.578 311.597 307.879 311.005C308.184 310.408 308.608 309.961 309.15 309.665C309.693 309.364 310.324 309.214 311.044 309.214ZM311.058 310.697C310.652 310.697 310.315 310.827 310.046 311.087C309.782 311.347 309.629 311.755 309.588 312.311H312.514C312.509 312.001 312.452 311.725 312.343 311.483C312.238 311.242 312.078 311.05 311.864 310.909C311.655 310.768 311.386 310.697 311.058 310.697ZM318.584 317.137C317.732 317.137 317.037 316.804 316.499 316.139C315.966 315.469 315.699 314.487 315.699 313.192C315.699 311.884 315.97 310.896 316.513 310.226C317.055 309.551 317.764 309.214 318.639 309.214C319.003 309.214 319.325 309.264 319.603 309.364C319.881 309.465 320.12 309.599 320.32 309.768C320.525 309.936 320.699 310.125 320.84 310.335H320.908C320.881 310.189 320.847 309.975 320.806 309.692C320.769 309.405 320.751 309.111 320.751 308.811V306.363H322.843V317H321.243L320.84 316.009H320.751C320.619 316.218 320.452 316.41 320.252 316.583C320.056 316.752 319.821 316.886 319.548 316.986C319.274 317.087 318.953 317.137 318.584 317.137ZM319.315 315.476C319.885 315.476 320.286 315.307 320.519 314.97C320.756 314.628 320.881 314.115 320.895 313.432V313.206C320.895 312.463 320.781 311.896 320.553 311.504C320.325 311.107 319.901 310.909 319.281 310.909C318.821 310.909 318.461 311.107 318.201 311.504C317.941 311.9 317.812 312.472 317.812 313.22C317.812 313.967 317.941 314.53 318.201 314.908C318.465 315.286 318.837 315.476 319.315 315.476ZM331.88 315.476C332.108 315.476 332.329 315.453 332.543 315.407C332.762 315.362 332.978 315.305 333.192 315.236V316.788C332.969 316.888 332.691 316.97 332.358 317.034C332.03 317.103 331.67 317.137 331.278 317.137C330.823 317.137 330.412 317.064 330.048 316.918C329.688 316.768 329.403 316.51 329.193 316.146C328.988 315.776 328.886 315.264 328.886 314.607V310.923H327.888V310.041L329.036 309.344L329.638 307.73H330.971V309.357H333.11V310.923H330.971V314.607C330.971 314.899 331.053 315.118 331.217 315.264C331.385 315.405 331.606 315.476 331.88 315.476ZM341.689 313.165C341.689 313.803 341.603 314.368 341.43 314.86C341.261 315.353 341.013 315.77 340.685 316.111C340.361 316.449 339.969 316.704 339.509 316.877C339.053 317.05 338.538 317.137 337.964 317.137C337.426 317.137 336.932 317.05 336.48 316.877C336.034 316.704 335.644 316.449 335.312 316.111C334.983 315.77 334.728 315.353 334.546 314.86C334.368 314.368 334.279 313.803 334.279 313.165C334.279 312.317 334.43 311.6 334.73 311.012C335.031 310.424 335.46 309.977 336.016 309.672C336.572 309.367 337.235 309.214 338.005 309.214C338.72 309.214 339.354 309.367 339.905 309.672C340.461 309.977 340.896 310.424 341.211 311.012C341.53 311.6 341.689 312.317 341.689 313.165ZM336.405 313.165C336.405 313.666 336.46 314.088 336.569 314.43C336.679 314.771 336.85 315.029 337.082 315.202C337.314 315.375 337.618 315.462 337.991 315.462C338.36 315.462 338.659 315.375 338.887 315.202C339.119 315.029 339.288 314.771 339.393 314.43C339.502 314.088 339.557 313.666 339.557 313.165C339.557 312.659 339.502 312.24 339.393 311.907C339.288 311.57 339.119 311.317 338.887 311.148C338.654 310.98 338.351 310.896 337.978 310.896C337.426 310.896 337.025 311.085 336.774 311.463C336.528 311.841 336.405 312.409 336.405 313.165ZM349.134 306.363V308.838C349.134 309.125 349.125 309.41 349.106 309.692C349.093 309.975 349.075 310.194 349.052 310.349H349.134C349.334 310.034 349.608 309.768 349.954 309.549C350.3 309.326 350.749 309.214 351.301 309.214C352.158 309.214 352.853 309.549 353.386 310.219C353.919 310.889 354.186 311.871 354.186 313.165C354.186 314.035 354.062 314.767 353.816 315.359C353.57 315.947 353.226 316.392 352.784 316.692C352.342 316.989 351.829 317.137 351.246 317.137C350.686 317.137 350.243 317.036 349.92 316.836C349.596 316.635 349.334 316.41 349.134 316.159H348.99L348.642 317H347.049V306.363H349.134ZM350.631 310.882C350.266 310.882 349.977 310.957 349.763 311.107C349.549 311.258 349.391 311.483 349.291 311.784C349.195 312.085 349.143 312.465 349.134 312.926V313.151C349.134 313.894 349.243 314.464 349.462 314.86C349.681 315.252 350.079 315.448 350.658 315.448C351.087 315.448 351.426 315.25 351.677 314.854C351.932 314.457 352.06 313.885 352.06 313.138C352.06 312.39 351.932 311.827 351.677 311.449C351.422 311.071 351.073 310.882 350.631 310.882ZM362.922 309.357V317H361.322L361.042 316.022H360.933C360.769 316.282 360.563 316.494 360.317 316.658C360.071 316.822 359.8 316.943 359.504 317.021C359.208 317.098 358.9 317.137 358.581 317.137C358.034 317.137 357.558 317.041 357.152 316.85C356.747 316.654 356.43 316.351 356.202 315.94C355.979 315.53 355.867 314.997 355.867 314.341V309.357H357.952V313.821C357.952 314.368 358.05 314.781 358.246 315.059C358.442 315.337 358.754 315.476 359.183 315.476C359.606 315.476 359.939 315.38 360.181 315.188C360.422 314.993 360.591 314.708 360.687 314.334C360.787 313.956 360.837 313.495 360.837 312.953V309.357H362.922ZM367.194 309.357V317H365.109V309.357H367.194ZM366.155 306.363C366.465 306.363 366.732 306.436 366.955 306.582C367.178 306.723 367.29 306.99 367.29 307.382C367.29 307.769 367.178 308.038 366.955 308.188C366.732 308.334 366.465 308.407 366.155 308.407C365.841 308.407 365.572 308.334 365.349 308.188C365.13 308.038 365.021 307.769 365.021 307.382C365.021 306.99 365.13 306.723 365.349 306.582C365.572 306.436 365.841 306.363 366.155 306.363ZM371.474 317H369.389V306.363H371.474V317ZM376.088 317.137C375.236 317.137 374.541 316.804 374.003 316.139C373.47 315.469 373.203 314.487 373.203 313.192C373.203 311.884 373.474 310.896 374.017 310.226C374.559 309.551 375.268 309.214 376.143 309.214C376.507 309.214 376.828 309.264 377.106 309.364C377.384 309.465 377.624 309.599 377.824 309.768C378.029 309.936 378.202 310.125 378.344 310.335H378.412C378.385 310.189 378.351 309.975 378.31 309.692C378.273 309.405 378.255 309.111 378.255 308.811V306.363H380.347V317H378.747L378.344 316.009H378.255C378.123 316.218 377.956 316.41 377.756 316.583C377.56 316.752 377.325 316.886 377.052 316.986C376.778 317.087 376.457 317.137 376.088 317.137ZM376.819 315.476C377.389 315.476 377.79 315.307 378.022 314.97C378.259 314.628 378.385 314.115 378.398 313.432V313.206C378.398 312.463 378.285 311.896 378.057 311.504C377.829 311.107 377.405 310.909 376.785 310.909C376.325 310.909 375.965 311.107 375.705 311.504C375.445 311.9 375.315 312.472 375.315 313.22C375.315 313.967 375.445 314.53 375.705 314.908C375.969 315.286 376.341 315.476 376.819 315.476ZM389.384 315.476C389.612 315.476 389.833 315.453 390.047 315.407C390.266 315.362 390.482 315.305 390.696 315.236V316.788C390.473 316.888 390.195 316.97 389.862 317.034C389.534 317.103 389.174 317.137 388.782 317.137C388.326 317.137 387.916 317.064 387.552 316.918C387.192 316.768 386.907 316.51 386.697 316.146C386.492 315.776 386.39 315.264 386.39 314.607V310.923H385.392V310.041L386.54 309.344L387.142 307.73H388.475V309.357H390.614V310.923H388.475V314.607C388.475 314.899 388.557 315.118 388.721 315.264C388.889 315.405 389.11 315.476 389.384 315.476ZM394.333 306.363V308.53C394.333 308.909 394.319 309.269 394.292 309.61C394.269 309.952 394.251 310.194 394.237 310.335H394.347C394.511 310.071 394.704 309.856 394.928 309.692C395.156 309.528 395.406 309.408 395.68 309.33C395.953 309.253 396.247 309.214 396.562 309.214C397.113 309.214 397.594 309.312 398.004 309.508C398.414 309.699 398.733 310.002 398.961 310.417C399.189 310.827 399.303 311.36 399.303 312.017V317H397.218V312.536C397.218 311.989 397.118 311.577 396.917 311.299C396.716 311.021 396.407 310.882 395.987 310.882C395.568 310.882 395.238 310.98 394.996 311.176C394.755 311.367 394.584 311.652 394.483 312.03C394.383 312.404 394.333 312.862 394.333 313.404V317H392.248V306.363H394.333ZM403.534 309.357V317H401.449V309.357H403.534ZM402.495 306.363C402.805 306.363 403.072 306.436 403.295 306.582C403.518 306.723 403.63 306.99 403.63 307.382C403.63 307.769 403.518 308.038 403.295 308.188C403.072 308.334 402.805 308.407 402.495 308.407C402.181 308.407 401.912 308.334 401.688 308.188C401.47 308.038 401.36 307.769 401.36 307.382C401.36 306.99 401.47 306.723 401.688 306.582C401.912 306.436 402.181 306.363 402.495 306.363ZM411.061 314.73C411.061 315.25 410.938 315.69 410.691 316.05C410.45 316.405 410.088 316.676 409.604 316.863C409.121 317.046 408.52 317.137 407.8 317.137C407.267 317.137 406.809 317.103 406.426 317.034C406.048 316.966 405.665 316.852 405.277 316.692V314.97C405.692 315.157 406.136 315.312 406.61 315.435C407.089 315.553 407.508 315.612 407.868 315.612C408.274 315.612 408.563 315.553 408.736 315.435C408.914 315.312 409.003 315.152 409.003 314.956C409.003 314.828 408.966 314.715 408.894 314.614C408.825 314.509 408.675 314.393 408.442 314.266C408.21 314.133 407.845 313.963 407.349 313.753C406.87 313.552 406.476 313.35 406.166 313.145C405.861 312.939 405.633 312.698 405.482 312.42C405.337 312.137 405.264 311.78 405.264 311.347C405.264 310.64 405.537 310.109 406.084 309.754C406.635 309.394 407.371 309.214 408.292 309.214C408.766 309.214 409.217 309.262 409.646 309.357C410.078 309.453 410.523 309.606 410.979 309.815L410.35 311.319C409.971 311.155 409.614 311.021 409.276 310.916C408.944 310.811 408.604 310.759 408.258 310.759C407.952 310.759 407.722 310.8 407.567 310.882C407.412 310.964 407.335 311.089 407.335 311.258C407.335 311.381 407.374 311.49 407.451 311.586C407.533 311.682 407.688 311.789 407.916 311.907C408.148 312.021 408.488 312.169 408.935 312.352C409.368 312.529 409.743 312.716 410.062 312.912C410.382 313.104 410.628 313.343 410.801 313.63C410.974 313.912 411.061 314.279 411.061 314.73ZM419.681 307.006C420.97 307.006 421.911 307.284 422.504 307.84C423.096 308.391 423.393 309.152 423.393 310.123C423.393 310.561 423.326 310.98 423.194 311.381C423.062 311.777 422.846 312.131 422.545 312.44C422.249 312.75 421.852 312.996 421.355 313.179C420.859 313.356 420.246 313.445 419.517 313.445H418.607V317H416.488V307.006H419.681ZM419.571 308.742H418.607V311.709H419.305C419.701 311.709 420.045 311.657 420.337 311.552C420.629 311.447 420.854 311.283 421.014 311.06C421.173 310.836 421.253 310.549 421.253 310.198C421.253 309.706 421.116 309.341 420.843 309.104C420.569 308.863 420.146 308.742 419.571 308.742ZM429.381 309.214C429.486 309.214 429.606 309.221 429.743 309.234C429.884 309.243 429.998 309.257 430.085 309.275L429.928 311.23C429.859 311.208 429.761 311.192 429.634 311.183C429.511 311.169 429.404 311.162 429.312 311.162C429.044 311.162 428.782 311.196 428.526 311.265C428.276 311.333 428.05 311.445 427.85 311.6C427.649 311.75 427.49 311.951 427.371 312.201C427.257 312.447 427.2 312.75 427.2 313.11V317H425.115V309.357H426.694L427.002 310.643H427.104C427.255 310.383 427.442 310.146 427.665 309.932C427.893 309.713 428.15 309.54 428.438 309.412C428.729 309.28 429.044 309.214 429.381 309.214ZM438.418 313.165C438.418 313.803 438.331 314.368 438.158 314.86C437.99 315.353 437.741 315.77 437.413 316.111C437.09 316.449 436.698 316.704 436.237 316.877C435.782 317.05 435.267 317.137 434.692 317.137C434.155 317.137 433.66 317.05 433.209 316.877C432.762 316.704 432.373 316.449 432.04 316.111C431.712 315.77 431.457 315.353 431.274 314.86C431.097 314.368 431.008 313.803 431.008 313.165C431.008 312.317 431.158 311.6 431.459 311.012C431.76 310.424 432.188 309.977 432.744 309.672C433.3 309.367 433.963 309.214 434.733 309.214C435.449 309.214 436.082 309.367 436.634 309.672C437.19 309.977 437.625 310.424 437.939 311.012C438.258 311.6 438.418 312.317 438.418 313.165ZM433.134 313.165C433.134 313.666 433.188 314.088 433.298 314.43C433.407 314.771 433.578 315.029 433.811 315.202C434.043 315.375 434.346 315.462 434.72 315.462C435.089 315.462 435.387 315.375 435.615 315.202C435.848 315.029 436.016 314.771 436.121 314.43C436.23 314.088 436.285 313.666 436.285 313.165C436.285 312.659 436.23 312.24 436.121 311.907C436.016 311.57 435.848 311.317 435.615 311.148C435.383 310.98 435.08 310.896 434.706 310.896C434.155 310.896 433.754 311.085 433.503 311.463C433.257 311.841 433.134 312.409 433.134 313.165ZM439.525 320.363C439.288 320.363 439.042 320.345 438.787 320.309C438.532 320.277 438.32 320.238 438.151 320.192V318.552C438.32 318.597 438.479 318.629 438.63 318.647C438.776 318.67 438.942 318.682 439.129 318.682C439.411 318.682 439.651 318.602 439.847 318.442C440.043 318.287 440.141 317.98 440.141 317.52V309.357H442.226V317.827C442.226 318.292 442.137 318.716 441.959 319.099C441.781 319.486 441.494 319.794 441.098 320.021C440.701 320.249 440.177 320.363 439.525 320.363ZM440.052 307.382C440.052 306.99 440.161 306.723 440.38 306.582C440.603 306.436 440.872 306.363 441.187 306.363C441.496 306.363 441.763 306.436 441.986 306.582C442.21 306.723 442.321 306.99 442.321 307.382C442.321 307.769 442.21 308.038 441.986 308.188C441.763 308.334 441.496 308.407 441.187 308.407C440.872 308.407 440.603 308.334 440.38 308.188C440.161 308.038 440.052 307.769 440.052 307.382ZM447.571 309.214C448.278 309.214 448.886 309.351 449.396 309.624C449.907 309.893 450.301 310.285 450.579 310.8C450.857 311.315 450.996 311.944 450.996 312.687V313.698H446.067C446.09 314.286 446.266 314.749 446.594 315.086C446.926 315.419 447.387 315.585 447.975 315.585C448.462 315.585 448.909 315.535 449.314 315.435C449.72 315.334 450.137 315.184 450.565 314.983V316.597C450.187 316.784 449.791 316.92 449.376 317.007C448.966 317.093 448.467 317.137 447.879 317.137C447.113 317.137 446.434 316.995 445.842 316.713C445.254 316.43 444.791 316 444.454 315.421C444.121 314.842 443.955 314.113 443.955 313.233C443.955 312.34 444.105 311.597 444.406 311.005C444.712 310.408 445.135 309.961 445.678 309.665C446.22 309.364 446.851 309.214 447.571 309.214ZM447.585 310.697C447.179 310.697 446.842 310.827 446.573 311.087C446.309 311.347 446.156 311.755 446.115 312.311H449.041C449.036 312.001 448.979 311.725 448.87 311.483C448.765 311.242 448.606 311.05 448.392 310.909C448.182 310.768 447.913 310.697 447.585 310.697ZM455.795 317.137C455.038 317.137 454.394 317 453.86 316.727C453.327 316.449 452.922 316.02 452.644 315.441C452.366 314.863 452.227 314.122 452.227 313.22C452.227 312.285 452.384 311.524 452.698 310.937C453.017 310.344 453.457 309.909 454.018 309.631C454.583 309.353 455.237 309.214 455.979 309.214C456.508 309.214 456.964 309.266 457.347 309.371C457.734 309.471 458.071 309.592 458.358 309.733L457.743 311.347C457.415 311.215 457.11 311.107 456.827 311.025C456.545 310.939 456.262 310.896 455.979 310.896C455.615 310.896 455.312 310.982 455.07 311.155C454.829 311.324 454.649 311.579 454.53 311.921C454.412 312.263 454.353 312.691 454.353 313.206C454.353 313.712 454.416 314.131 454.544 314.464C454.672 314.797 454.856 315.045 455.098 315.209C455.339 315.368 455.633 315.448 455.979 315.448C456.412 315.448 456.798 315.391 457.135 315.277C457.472 315.159 457.8 314.995 458.119 314.785V316.569C457.8 316.77 457.465 316.913 457.114 317C456.768 317.091 456.328 317.137 455.795 317.137ZM463.116 315.476C463.344 315.476 463.565 315.453 463.779 315.407C463.998 315.362 464.215 315.305 464.429 315.236V316.788C464.205 316.888 463.927 316.97 463.595 317.034C463.267 317.103 462.907 317.137 462.515 317.137C462.059 317.137 461.649 317.064 461.284 316.918C460.924 316.768 460.639 316.51 460.43 316.146C460.225 315.776 460.122 315.264 460.122 314.607V310.923H459.124V310.041L460.272 309.344L460.874 307.73H462.207V309.357H464.347V310.923H462.207V314.607C462.207 314.899 462.289 315.118 462.453 315.264C462.622 315.405 462.843 315.476 463.116 315.476Z" fill="#747474"/>
<defs>
<filter id="filter0_bd_252_2381" x="0" y="-10" width="576" height="441" filterUnits="userSpaceOnUse" color-interpolation-filters="sRGB">
<feFlood flood-opacity="0" result="BackgroundImageFix"/>
<feGaussianBlur in="BackgroundImageFix" stdDeviation="20"/>
<feComposite in2="SourceAlpha" operator="in" result="effect1_backgroundBlur_252_2381"/>
<feColorMatrix in="SourceAlpha" type="matrix" values="0 0 0 0 0 0 0 0 0 0 0 0 0 0 0 0 0 0 127 0" result="hardAlpha"/>
<feOffset dy="30"/>
<feGaussianBlur stdDeviation="30"/>
<feColorMatrix type="matrix" values="0 0 0 0 0.1525 0 0 0 0 0.301667 0 0 0 0 0.6 0 0 0 0.1 0"/>
<feBlend mode="normal" in2="effect1_backgroundBlur_252_2381" result="effect2_dropShadow_252_2381"/>
<feBlend mode="normal" in="SourceGraphic" in2="effect2_dropShadow_252_2381" result="shape"/>
</filter>
<filter id="filter1_bd_252_2381" x="25.4966" y="8.99774" width="525.007" height="313.757" filterUnits="userSpaceOnUse" color-interpolation-filters="sRGB">
<feFlood flood-opacity="0" result="BackgroundImageFix"/>
<feGaussianBlur in="BackgroundImageFix" stdDeviation="15.5011"/>
<feComposite in2="SourceAlpha" operator="in" result="effect1_backgroundBlur_252_2381"/>
<feColorMatrix in="SourceAlpha" type="matrix" values="0 0 0 0 0 0 0 0 0 0 0 0 0 0 0 0 0 0 127 0" result="hardAlpha"/>
<feOffset dy="23.2517"/>
<feGaussianBlur stdDeviation="23.2517"/>
<feColorMatrix type="matrix" values="0 0 0 0 0 0 0 0 0 0 0 0 0 0 0 0 0 0 0.41 0"/>
<feBlend mode="normal" in2="effect1_backgroundBlur_252_2381" result="effect2_dropShadow_252_2381"/>
<feBlend mode="normal" in="SourceGraphic" in2="effect2_dropShadow_252_2381" result="shape"/>
</filter>
<filter id="filter2_bd_252_2381" x="19.9851" y="7.75515" width="603.321" height="317.796" filterUnits="userSpaceOnUse" color-interpolation-filters="sRGB">
<feFlood flood-opacity="0" result="BackgroundImageFix"/>
<feGaussianBlur in="BackgroundImageFix" stdDeviation="16.1224"/>
<feComposite in2="SourceAlpha" operator="in" result="effect1_backgroundBlur_252_2381"/>
<feColorMatrix in="SourceAlpha" type="matrix" values="0 0 0 0 0 0 0 0 0 0 0 0 0 0 0 0 0 0 127 0" result="hardAlpha"/>
<feOffset dy="24.1836"/>
<feGaussianBlur stdDeviation="24.1836"/>
<feColorMatrix type="matrix" values="0 0 0 0 0 0 0 0 0 0 0 0 0 0 0 0 0 0 0.41 0"/>
<feBlend mode="normal" in2="effect1_backgroundBlur_252_2381" result="effect2_dropShadow_252_2381"/>
<feBlend mode="normal" in="SourceGraphic" in2="effect2_dropShadow_252_2381" result="shape"/>
</filter>
<filter id="filter3_d_252_2381" x="57.6542" y="7.97915" width="226.562" height="325.162" filterUnits="userSpaceOnUse" color-interpolation-filters="sRGB">
<feFlood flood-opacity="0" result="BackgroundImageFix"/>
<feColorMatrix in="SourceAlpha" type="matrix" values="0 0 0 0 0 0 0 0 0 0 0 0 0 0 0 0 0 0 127 0" result="hardAlpha"/>
<feOffset dy="11.6"/>
<feGaussianBlur stdDeviation="14.5"/>
<feComposite in2="hardAlpha" operator="out"/>
<feColorMatrix type="matrix" values="0 0 0 0 0 0 0 0 0 0 0 0 0 0 0 0 0 0 0.25 0"/>
<feBlend mode="normal" in2="BackgroundImageFix" result="effect1_dropShadow_252_2381"/>
<feBlend mode="normal" in="SourceGraphic" in2="effect1_dropShadow_252_2381" result="shape"/>
</filter>
<radialGradient id="paint0_radial_252_2381" cx="0" cy="0" r="1" gradientUnits="userSpaceOnUse" gradientTransform="translate(298 24) rotate(88.7614) scale(370.086 488.658)">
<stop stop-color="#414141"/>
<stop offset="0.463542" stop-color="#2E0608" stop-opacity="0.72"/>
<stop offset="1" stop-color="white" stop-opacity="0"/>
</radialGradient>
<radialGradient id="paint1_radial_252_2381" cx="0" cy="0" r="1" gradientUnits="userSpaceOnUse" gradientTransform="translate(504 253) rotate(-170.974) scale(955.788 625.492)">
<stop/>
<stop offset="0.430208" stop-color="#8A0509"/>
<stop offset="1" stop-color="#D1090F"/>
</radialGradient>
<radialGradient id="paint2_radial_252_2381" cx="0" cy="0" r="1" gradientUnits="userSpaceOnUse" gradientTransform="translate(574.939 253) rotate(-172.285) scale(1117.04 627.603)">
<stop/>
<stop offset="0.430208" stop-color="#8A0509"/>
<stop offset="1" stop-color="#D1090F"/>
</radialGradient>
<clipPath id="clip0_252_2381">
<rect x="73" y="40" width="433" height="213" rx="23.35" fill="white"/>
</clipPath>
</defs>
</svg>
