<svg width="576" height="431" viewBox="0 0 576 431" fill="none" xmlns="http://www.w3.org/2000/svg">
<g filter="url(#filter0_bd_278_7479)">
<rect x="60" y="30" width="456" height="311" rx="27.2727" fill="url(#paint0_radial_278_7479)" fill-opacity="0.8"/>
<rect x="60.25" y="30.25" width="455.5" height="310.5" rx="27.0227" stroke="black" stroke-opacity="0.2" stroke-width="0.5"/>
</g>
<g filter="url(#filter1_bd_278_7479)">
<rect x="72" y="40" width="432" height="213" rx="23.2517" fill="url(#paint1_radial_278_7479)" fill-opacity="0.6"/>
<rect x="72.1938" y="40.1938" width="431.612" height="212.612" rx="23.0579" stroke="white" stroke-opacity="0.3" stroke-width="0.387528"/>
</g>
<g clip-path="url(#clip0_278_7479)">
<g filter="url(#filter2_bd_278_7479)">
<rect x="68.3524" y="40" width="506.587" height="290" fill="url(#paint2_radial_278_7479)" fill-opacity="0.6"/>
<rect x="68.5539" y="40.2015" width="506.184" height="289.597" stroke="white" stroke-opacity="0.3" stroke-width="0.403061"/>
</g>
<path d="M72.6377 343.117H167.959V241.877L97.5583 44.3809H72.6377V343.117Z" fill="#B1060F"/>
<path d="M318 25L223 25L223 132.769L293.163 343H318L318 25Z" fill="#B1060F"/>
<g filter="url(#filter3_d_278_7479)">
<path d="M90.7049 25.3792L212.66 369.752H307.982L185.559 25.3792H90.7049Z" fill="#E50914"/>
</g>
<g filter="url(#filter4_bd_278_7479)">
<rect x="87" y="266" width="405" height="43" rx="21.5" fill="url(#paint3_linear_278_7479)" fill-opacity="0.5"/>
<g clip-path="url(#clip1_278_7479)">
<path d="M112.613 293V282.431H114.825V286.723H119.585V282.431H121.797V293H119.585V288.547H114.825V293H112.613ZM127.73 293.168C125.247 293.168 123.753 291.594 123.753 288.972V288.957C123.753 286.357 125.269 284.76 127.73 284.76C130.191 284.76 131.707 286.35 131.707 288.957V288.972C131.707 291.601 130.213 293.168 127.73 293.168ZM127.73 291.491C128.865 291.491 129.517 290.561 129.517 288.972V288.957C129.517 287.382 128.858 286.438 127.73 286.438C126.595 286.438 125.943 287.382 125.943 288.957V288.972C125.943 290.561 126.587 291.491 127.73 291.491ZM135.223 293L132.417 284.936H134.71L136.38 291H136.512L138.167 284.936H140.416L137.625 293H135.223ZM145.066 293.168C142.613 293.168 141.126 291.564 141.126 288.979V288.972C141.126 286.408 142.627 284.76 144.979 284.76C147.33 284.76 148.794 286.372 148.794 288.811V289.477H143.243C143.265 290.803 143.975 291.572 145.11 291.572C146.048 291.572 146.568 291.074 146.714 290.766L146.736 290.722H148.729L148.714 290.795C148.465 291.806 147.425 293.168 145.066 293.168ZM145.015 286.364C144.085 286.364 143.396 286.994 143.265 288.137H146.744C146.612 286.965 145.945 286.364 145.015 286.364ZM150.545 293V284.936H152.684V286.188H152.815C153.072 285.317 153.804 284.804 154.852 284.804C155.137 284.804 155.438 284.848 155.65 284.907V286.774C155.328 286.701 154.998 286.65 154.668 286.65C153.453 286.65 152.684 287.346 152.684 288.488V293H150.545ZM164.292 293.029C162.33 293.029 161.539 292.392 161.539 290.825V286.547H160.293V284.936H161.539V283.01H163.699V284.936H165.362V286.547H163.699V290.334C163.699 291.059 164.007 291.381 164.732 291.381C165.01 291.381 165.157 291.367 165.362 291.345V292.934C165.098 292.985 164.703 293.029 164.292 293.029ZM170.665 293.168C168.182 293.168 166.688 291.594 166.688 288.972V288.957C166.688 286.357 168.204 284.76 170.665 284.76C173.125 284.76 174.642 286.35 174.642 288.957V288.972C174.642 291.601 173.147 293.168 170.665 293.168ZM170.665 291.491C171.8 291.491 172.452 290.561 172.452 288.972V288.957C172.452 287.382 171.792 286.438 170.665 286.438C169.529 286.438 168.877 287.382 168.877 288.957V288.972C168.877 290.561 169.522 291.491 170.665 291.491ZM183.46 293.168C181.27 293.168 180.025 292.187 179.871 290.803L179.864 290.773H181.966L181.98 290.803C182.149 291.301 182.64 291.66 183.482 291.66C184.302 291.66 184.859 291.308 184.859 290.773V290.759C184.859 290.327 184.537 290.056 183.716 289.873L182.369 289.587C180.831 289.257 180.069 288.503 180.069 287.294V287.287C180.069 285.771 181.417 284.76 183.431 284.76C185.547 284.76 186.719 285.815 186.807 287.111V287.141H184.822L184.815 287.104C184.698 286.672 184.222 286.269 183.423 286.269C182.684 286.269 182.156 286.613 182.156 287.155V287.163C182.156 287.595 182.457 287.844 183.292 288.027L184.632 288.312C186.243 288.657 186.998 289.331 186.998 290.524V290.532C186.998 292.128 185.525 293.168 183.46 293.168ZM192.293 293.168C189.839 293.168 188.353 291.564 188.353 288.979V288.972C188.353 286.408 189.854 284.76 192.205 284.76C194.556 284.76 196.021 286.372 196.021 288.811V289.477H190.469C190.491 290.803 191.202 291.572 192.337 291.572C193.274 291.572 193.794 291.074 193.941 290.766L193.963 290.722H195.955L195.94 290.795C195.691 291.806 194.651 293.168 192.293 293.168ZM192.242 286.364C191.312 286.364 190.623 286.994 190.491 288.137H193.97C193.838 286.965 193.172 286.364 192.242 286.364ZM201.316 293.168C198.863 293.168 197.376 291.564 197.376 288.979V288.972C197.376 286.408 198.877 284.76 201.229 284.76C203.58 284.76 205.044 286.372 205.044 288.811V289.477H199.493C199.515 290.803 200.225 291.572 201.36 291.572C202.298 291.572 202.818 291.074 202.964 290.766L202.986 290.722H204.979L204.964 290.795C204.715 291.806 203.675 293.168 201.316 293.168ZM201.265 286.364C200.335 286.364 199.646 286.994 199.515 288.137H202.994C202.862 286.965 202.195 286.364 201.265 286.364ZM214.009 293.029C212.046 293.029 211.255 292.392 211.255 290.825V286.547H210.01V284.936H211.255V283.01H213.416V284.936H215.079V286.547H213.416V290.334C213.416 291.059 213.724 291.381 214.449 291.381C214.727 291.381 214.874 291.367 215.079 291.345V292.934C214.815 292.985 214.419 293.029 214.009 293.029ZM216.932 293V281.853H219.07V286.181H219.202C219.568 285.31 220.367 284.76 221.517 284.76C223.311 284.76 224.278 285.859 224.278 287.785V293H222.139V288.269C222.139 287.133 221.67 286.533 220.66 286.533C219.671 286.533 219.07 287.243 219.07 288.334V293H216.932ZM229.896 293.168C227.442 293.168 225.955 291.564 225.955 288.979V288.972C225.955 286.408 227.457 284.76 229.808 284.76C232.159 284.76 233.624 286.372 233.624 288.811V289.477H228.072C228.094 290.803 228.804 291.572 229.939 291.572C230.877 291.572 231.397 291.074 231.543 290.766L231.565 290.722H233.558L233.543 290.795C233.294 291.806 232.254 293.168 229.896 293.168ZM229.844 286.364C228.914 286.364 228.226 286.994 228.094 288.137H231.573C231.441 286.965 230.774 286.364 229.844 286.364ZM242.588 293.029C240.625 293.029 239.834 292.392 239.834 290.825V286.547H238.589V284.936H239.834V283.01H241.995V284.936H243.658V286.547H241.995V290.334C241.995 291.059 242.303 291.381 243.028 291.381C243.306 291.381 243.453 291.367 243.658 291.345V292.934C243.394 292.985 242.999 293.029 242.588 293.029ZM248.96 293.168C246.478 293.168 244.983 291.594 244.983 288.972V288.957C244.983 286.357 246.5 284.76 248.96 284.76C251.421 284.76 252.938 286.35 252.938 288.957V288.972C252.938 291.601 251.443 293.168 248.96 293.168ZM248.96 291.491C250.096 291.491 250.748 290.561 250.748 288.972V288.957C250.748 287.382 250.088 286.438 248.96 286.438C247.825 286.438 247.173 287.382 247.173 288.957V288.972C247.173 290.561 247.818 291.491 248.96 291.491ZM258.262 293.168C255.779 293.168 254.285 291.594 254.285 288.972V288.957C254.285 286.357 255.801 284.76 258.262 284.76C260.723 284.76 262.239 286.35 262.239 288.957V288.972C262.239 291.601 260.745 293.168 258.262 293.168ZM258.262 291.491C259.397 291.491 260.049 290.561 260.049 288.972V288.957C260.049 287.382 259.39 286.438 258.262 286.438C257.127 286.438 256.475 287.382 256.475 288.957V288.972C256.475 290.561 257.12 291.491 258.262 291.491ZM264.056 293V281.853H266.194V293H264.056ZM271.614 293.168C269.424 293.168 268.179 292.187 268.025 290.803L268.018 290.773H270.12L270.135 290.803C270.303 291.301 270.794 291.66 271.636 291.66C272.457 291.66 273.013 291.308 273.013 290.773V290.759C273.013 290.327 272.691 290.056 271.871 289.873L270.523 289.587C268.985 289.257 268.223 288.503 268.223 287.294V287.287C268.223 285.771 269.571 284.76 271.585 284.76C273.702 284.76 274.874 285.815 274.961 287.111V287.141H272.977L272.969 287.104C272.852 286.672 272.376 286.269 271.578 286.269C270.838 286.269 270.311 286.613 270.311 287.155V287.163C270.311 287.595 270.611 287.844 271.446 288.027L272.786 288.312C274.397 288.657 275.152 289.331 275.152 290.524V290.532C275.152 292.128 273.68 293.168 271.614 293.168ZM283.436 293.168C281.626 293.168 280.696 292.07 280.696 290.151V284.936H282.835V289.66C282.835 290.803 283.267 291.396 284.278 291.396C285.333 291.396 285.904 290.686 285.904 289.594V284.936H288.042V293H285.904V291.755H285.772C285.406 292.634 284.585 293.168 283.436 293.168ZM293.396 293.168C291.207 293.168 289.961 292.187 289.808 290.803L289.8 290.773H291.902L291.917 290.803C292.085 291.301 292.576 291.66 293.418 291.66C294.239 291.66 294.795 291.308 294.795 290.773V290.759C294.795 290.327 294.473 290.056 293.653 289.873L292.305 289.587C290.767 289.257 290.005 288.503 290.005 287.294V287.287C290.005 285.771 291.353 284.76 293.367 284.76C295.484 284.76 296.656 285.815 296.744 287.111V287.141H294.759L294.751 287.104C294.634 286.672 294.158 286.269 293.36 286.269C292.62 286.269 292.093 286.613 292.093 287.155V287.163C292.093 287.595 292.393 287.844 293.228 288.027L294.568 288.312C296.18 288.657 296.934 289.331 296.934 290.524V290.532C296.934 292.128 295.462 293.168 293.396 293.168ZM302.229 293.168C299.776 293.168 298.289 291.564 298.289 288.979V288.972C298.289 286.408 299.791 284.76 302.142 284.76C304.493 284.76 305.958 286.372 305.958 288.811V289.477H300.406C300.428 290.803 301.138 291.572 302.273 291.572C303.211 291.572 303.731 291.074 303.877 290.766L303.899 290.722H305.892L305.877 290.795C305.628 291.806 304.588 293.168 302.229 293.168ZM302.178 286.364C301.248 286.364 300.56 286.994 300.428 288.137H303.907C303.775 286.965 303.108 286.364 302.178 286.364ZM310.586 293.125C308.572 293.125 307.312 291.55 307.312 288.972V288.957C307.312 286.364 308.543 284.804 310.586 284.804C311.692 284.804 312.593 285.346 312.996 286.225H313.128V281.853H315.267V293H313.128V291.748H312.996C312.579 292.619 311.722 293.125 310.586 293.125ZM311.312 291.352C312.447 291.352 313.15 290.458 313.15 288.979V288.964C313.15 287.485 312.439 286.577 311.312 286.577C310.184 286.577 309.488 287.485 309.488 288.957V288.972C309.488 290.458 310.184 291.352 311.312 291.352ZM324.693 293.029C322.73 293.029 321.939 292.392 321.939 290.825V286.547H320.694V284.936H321.939V283.01H324.1V284.936H325.762V286.547H324.1V290.334C324.1 291.059 324.407 291.381 325.132 291.381C325.411 291.381 325.557 291.367 325.762 291.345V292.934C325.499 292.985 325.103 293.029 324.693 293.029ZM331.065 293.168C328.582 293.168 327.088 291.594 327.088 288.972V288.957C327.088 286.357 328.604 284.76 331.065 284.76C333.526 284.76 335.042 286.35 335.042 288.957V288.972C335.042 291.601 333.548 293.168 331.065 293.168ZM331.065 291.491C332.2 291.491 332.852 290.561 332.852 288.972V288.957C332.852 287.382 332.193 286.438 331.065 286.438C329.93 286.438 329.278 287.382 329.278 288.957V288.972C329.278 290.561 329.922 291.491 331.065 291.491ZM345.413 293.125C344.271 293.125 343.414 292.619 342.996 291.748H342.864V293H340.726V281.853H342.864V286.225H342.996C343.406 285.346 344.307 284.804 345.413 284.804C347.457 284.804 348.687 286.364 348.687 288.957V288.972C348.687 291.55 347.427 293.125 345.413 293.125ZM344.681 291.352C345.816 291.352 346.512 290.458 346.512 288.972V288.957C346.512 287.485 345.809 286.577 344.681 286.577C343.56 286.577 342.842 287.485 342.842 288.964V288.979C342.842 290.458 343.553 291.352 344.681 291.352ZM353.089 293.168C351.28 293.168 350.35 292.07 350.35 290.151V284.936H352.488V289.66C352.488 290.803 352.92 291.396 353.931 291.396C354.986 291.396 355.557 290.686 355.557 289.594V284.936H357.696V293H355.557V291.755H355.425C355.059 292.634 354.239 293.168 353.089 293.168ZM360.933 283.698C360.274 283.698 359.725 283.171 359.725 282.512C359.725 281.845 360.274 281.318 360.933 281.318C361.592 281.318 362.134 281.845 362.134 282.512C362.134 283.171 361.592 283.698 360.933 283.698ZM359.856 293V284.936H361.995V293H359.856ZM364.222 293V281.853H366.36V293H364.222ZM371.451 293.125C369.437 293.125 368.177 291.55 368.177 288.972V288.957C368.177 286.364 369.407 284.804 371.451 284.804C372.557 284.804 373.458 285.346 373.86 286.225H373.992V281.853H376.131V293H373.992V291.748H373.86C373.443 292.619 372.586 293.125 371.451 293.125ZM372.176 291.352C373.311 291.352 374.014 290.458 374.014 288.979V288.964C374.014 287.485 373.304 286.577 372.176 286.577C371.048 286.577 370.352 287.485 370.352 288.957V288.972C370.352 290.458 371.048 291.352 372.176 291.352ZM385.557 293.029C383.594 293.029 382.803 292.392 382.803 290.825V286.547H381.558V284.936H382.803V283.01H384.964V284.936H386.626V286.547H384.964V290.334C384.964 291.059 385.271 291.381 385.997 291.381C386.275 291.381 386.421 291.367 386.626 291.345V292.934C386.363 292.985 385.967 293.029 385.557 293.029ZM388.479 293V281.853H390.618V286.181H390.75C391.116 285.31 391.915 284.76 393.064 284.76C394.859 284.76 395.826 285.859 395.826 287.785V293H393.687V288.269C393.687 287.133 393.218 286.533 392.208 286.533C391.219 286.533 390.618 287.243 390.618 288.334V293H388.479ZM398.99 283.698C398.331 283.698 397.781 283.171 397.781 282.512C397.781 281.845 398.331 281.318 398.99 281.318C399.649 281.318 400.191 281.845 400.191 282.512C400.191 283.171 399.649 283.698 398.99 283.698ZM397.913 293V284.936H400.052V293H397.913ZM405.413 293.168C403.223 293.168 401.978 292.187 401.824 290.803L401.817 290.773H403.919L403.934 290.803C404.102 291.301 404.593 291.66 405.435 291.66C406.255 291.66 406.812 291.308 406.812 290.773V290.759C406.812 290.327 406.49 290.056 405.669 289.873L404.322 289.587C402.784 289.257 402.022 288.503 402.022 287.294V287.287C402.022 285.771 403.37 284.76 405.384 284.76C407.5 284.76 408.672 285.815 408.76 287.111V287.141H406.775L406.768 287.104C406.651 286.672 406.175 286.269 405.376 286.269C404.637 286.269 404.109 286.613 404.109 287.155V287.163C404.109 287.595 404.41 287.844 405.245 288.027L406.585 288.312C408.196 288.657 408.951 289.331 408.951 290.524V290.532C408.951 292.128 407.479 293.168 405.413 293.168ZM414.781 293V282.431H419.139C421.365 282.431 422.852 283.867 422.852 286.042V286.057C422.852 288.232 421.365 289.667 419.139 289.667H416.993V293H414.781ZM418.597 284.182H416.993V287.939H418.597C419.864 287.939 420.611 287.265 420.611 286.064V286.049C420.611 284.848 419.864 284.182 418.597 284.182ZM424.676 293V284.936H426.814V286.188H426.946C427.203 285.317 427.935 284.804 428.982 284.804C429.268 284.804 429.568 284.848 429.781 284.907V286.774C429.458 286.701 429.129 286.65 428.799 286.65C427.583 286.65 426.814 287.346 426.814 288.488V293H424.676ZM434.6 293.168C432.117 293.168 430.623 291.594 430.623 288.972V288.957C430.623 286.357 432.139 284.76 434.6 284.76C437.061 284.76 438.577 286.35 438.577 288.957V288.972C438.577 291.601 437.083 293.168 434.6 293.168ZM434.6 291.491C435.735 291.491 436.387 290.561 436.387 288.972V288.957C436.387 287.382 435.728 286.438 434.6 286.438C433.465 286.438 432.813 287.382 432.813 288.957V288.972C432.813 290.561 433.458 291.491 434.6 291.491ZM441.404 283.698C440.745 283.698 440.196 283.171 440.196 282.512C440.196 281.845 440.745 281.318 441.404 281.318C442.063 281.318 442.605 281.845 442.605 282.512C442.605 283.171 442.063 283.698 441.404 283.698ZM439.61 295.747C439.419 295.747 439.163 295.732 439.039 295.725V294.113C439.119 294.121 439.214 294.121 439.31 294.121C440.042 294.121 440.335 293.872 440.335 293.205V284.936H442.474V293.264C442.474 294.912 441.478 295.747 439.61 295.747ZM448.172 293.168C445.718 293.168 444.231 291.564 444.231 288.979V288.972C444.231 286.408 445.733 284.76 448.084 284.76C450.435 284.76 451.9 286.372 451.9 288.811V289.477H446.348C446.37 290.803 447.081 291.572 448.216 291.572C449.153 291.572 449.673 291.074 449.82 290.766L449.842 290.722H451.834L451.819 290.795C451.57 291.806 450.53 293.168 448.172 293.168ZM448.121 286.364C447.19 286.364 446.502 286.994 446.37 288.137H449.849C449.717 286.965 449.051 286.364 448.121 286.364ZM457.203 293.168C454.683 293.168 453.255 291.638 453.255 288.957V288.942C453.255 286.291 454.676 284.76 457.203 284.76C459.341 284.76 460.608 285.925 460.799 287.727V287.749H458.807L458.799 287.734C458.66 286.95 458.125 286.438 457.21 286.438C456.06 286.438 455.43 287.331 455.43 288.942V288.957C455.43 290.59 456.067 291.491 457.21 291.491C458.089 291.491 458.609 291.074 458.799 290.268L458.814 290.239H460.792L460.784 290.283C460.564 292.041 459.305 293.168 457.203 293.168ZM465.889 293.029C463.926 293.029 463.135 292.392 463.135 290.825V286.547H461.89V284.936H463.135V283.01H465.296V284.936H466.958V286.547H465.296V290.334C465.296 291.059 465.604 291.381 466.329 291.381C466.607 291.381 466.753 291.367 466.958 291.345V292.934C466.695 292.985 466.299 293.029 465.889 293.029Z" fill="white"/>
</g>
<rect x="87.25" y="266.25" width="404.5" height="42.5" rx="21.25" stroke="white" stroke-opacity="0.3" stroke-width="0.5"/>
</g>
</g>
<path d="M472.721 79.8426L479.656 97.2812C477.612 97.0036 475.569 96.6563 473.488 96.3444L469.581 86.7074L465.567 95.5479C463.596 95.2359 461.66 95.1309 459.689 94.8886L466.735 79.6346L460.346 64H466.261L469.837 72.7355L473.67 64H479.656L472.721 79.8426ZM455.675 64H450.309V94.2304C452.061 94.3344 453.886 94.403 455.675 94.611V64ZM445.672 93.8831C440.782 93.5712 435.89 93.2946 430.89 93.1896V64H436.364V88.2671C439.504 88.3368 442.643 88.5791 445.672 88.7174V93.8831ZM425.049 75.8216V81.0217H417.567V92.8433H412.164V64H427.495V69.2001H417.567V75.8216H425.049ZM402.965 69.2001V93.121C401.14 93.121 399.279 93.121 397.49 93.1896V69.2001H391.831V64H408.659V69.2001H402.965ZM385.918 81.2983C383.51 81.2983 380.662 81.2983 378.618 81.4033V89.1343C381.83 88.9253 385.042 88.683 388.291 88.5791V93.5712L373.143 94.716V64H388.291V69.2001H378.618V76.2022C380.735 76.2022 383.984 76.0982 385.918 76.0982V81.2983ZM355.585 78.3868V96.5523C353.614 96.7613 351.861 97.0036 350 97.2812V64H355.22L362.338 82.8944V64H367.813V95.1309C365.878 95.4439 363.908 95.5479 361.826 95.8245L355.585 78.3868Z" fill="#E50914"/>
<defs>
<filter id="filter0_bd_278_7479" x="0" y="-10" width="576" height="441" filterUnits="userSpaceOnUse" color-interpolation-filters="sRGB">
<feFlood flood-opacity="0" result="BackgroundImageFix"/>
<feGaussianBlur in="BackgroundImageFix" stdDeviation="20"/>
<feComposite in2="SourceAlpha" operator="in" result="effect1_backgroundBlur_278_7479"/>
<feColorMatrix in="SourceAlpha" type="matrix" values="0 0 0 0 0 0 0 0 0 0 0 0 0 0 0 0 0 0 127 0" result="hardAlpha"/>
<feOffset dy="30"/>
<feGaussianBlur stdDeviation="30"/>
<feColorMatrix type="matrix" values="0 0 0 0 0.1525 0 0 0 0 0.301667 0 0 0 0 0.6 0 0 0 0.1 0"/>
<feBlend mode="normal" in2="effect1_backgroundBlur_278_7479" result="effect2_dropShadow_278_7479"/>
<feBlend mode="normal" in="SourceGraphic" in2="effect2_dropShadow_278_7479" result="shape"/>
</filter>
<filter id="filter1_bd_278_7479" x="25.4966" y="8.99774" width="525.007" height="313.757" filterUnits="userSpaceOnUse" color-interpolation-filters="sRGB">
<feFlood flood-opacity="0" result="BackgroundImageFix"/>
<feGaussianBlur in="BackgroundImageFix" stdDeviation="15.5011"/>
<feComposite in2="SourceAlpha" operator="in" result="effect1_backgroundBlur_278_7479"/>
<feColorMatrix in="SourceAlpha" type="matrix" values="0 0 0 0 0 0 0 0 0 0 0 0 0 0 0 0 0 0 127 0" result="hardAlpha"/>
<feOffset dy="23.2517"/>
<feGaussianBlur stdDeviation="23.2517"/>
<feColorMatrix type="matrix" values="0 0 0 0 0 0 0 0 0 0 0 0 0 0 0 0 0 0 0.41 0"/>
<feBlend mode="normal" in2="effect1_backgroundBlur_278_7479" result="effect2_dropShadow_278_7479"/>
<feBlend mode="normal" in="SourceGraphic" in2="effect2_dropShadow_278_7479" result="shape"/>
</filter>
<filter id="filter2_bd_278_7479" x="19.9851" y="7.75515" width="603.321" height="394.796" filterUnits="userSpaceOnUse" color-interpolation-filters="sRGB">
<feFlood flood-opacity="0" result="BackgroundImageFix"/>
<feGaussianBlur in="BackgroundImageFix" stdDeviation="16.1224"/>
<feComposite in2="SourceAlpha" operator="in" result="effect1_backgroundBlur_278_7479"/>
<feColorMatrix in="SourceAlpha" type="matrix" values="0 0 0 0 0 0 0 0 0 0 0 0 0 0 0 0 0 0 127 0" result="hardAlpha"/>
<feOffset dy="24.1836"/>
<feGaussianBlur stdDeviation="24.1836"/>
<feColorMatrix type="matrix" values="0 0 0 0 0 0 0 0 0 0 0 0 0 0 0 0 0 0 0.41 0"/>
<feBlend mode="normal" in2="effect1_backgroundBlur_278_7479" result="effect2_dropShadow_278_7479"/>
<feBlend mode="normal" in="SourceGraphic" in2="effect2_dropShadow_278_7479" result="shape"/>
</filter>
<filter id="filter3_d_278_7479" x="53.3239" y="2.95056" width="292.039" height="419.134" filterUnits="userSpaceOnUse" color-interpolation-filters="sRGB">
<feFlood flood-opacity="0" result="BackgroundImageFix"/>
<feColorMatrix in="SourceAlpha" type="matrix" values="0 0 0 0 0 0 0 0 0 0 0 0 0 0 0 0 0 0 127 0" result="hardAlpha"/>
<feOffset dy="14.9524"/>
<feGaussianBlur stdDeviation="18.6905"/>
<feComposite in2="hardAlpha" operator="out"/>
<feColorMatrix type="matrix" values="0 0 0 0 0 0 0 0 0 0 0 0 0 0 0 0 0 0 0.25 0"/>
<feBlend mode="normal" in2="BackgroundImageFix" result="effect1_dropShadow_278_7479"/>
<feBlend mode="normal" in="SourceGraphic" in2="effect1_dropShadow_278_7479" result="shape"/>
</filter>
<filter id="filter4_bd_278_7479" x="47" y="226" width="485" height="143" filterUnits="userSpaceOnUse" color-interpolation-filters="sRGB">
<feFlood flood-opacity="0" result="BackgroundImageFix"/>
<feGaussianBlur in="BackgroundImageFix" stdDeviation="20"/>
<feComposite in2="SourceAlpha" operator="in" result="effect1_backgroundBlur_278_7479"/>
<feColorMatrix in="SourceAlpha" type="matrix" values="0 0 0 0 0 0 0 0 0 0 0 0 0 0 0 0 0 0 127 0" result="hardAlpha"/>
<feOffset dy="20"/>
<feGaussianBlur stdDeviation="20"/>
<feColorMatrix type="matrix" values="0 0 0 0 0 0 0 0 0 0 0 0 0 0 0 0 0 0 0.15 0"/>
<feBlend mode="normal" in2="effect1_backgroundBlur_278_7479" result="effect2_dropShadow_278_7479"/>
<feBlend mode="normal" in="SourceGraphic" in2="effect2_dropShadow_278_7479" result="shape"/>
</filter>
<radialGradient id="paint0_radial_278_7479" cx="0" cy="0" r="1" gradientUnits="userSpaceOnUse" gradientTransform="translate(298 24) rotate(88.7614) scale(370.086 488.658)">
<stop stop-color="#414141"/>
<stop offset="0.463542" stop-color="#2E0608" stop-opacity="0.72"/>
<stop offset="1" stop-color="white" stop-opacity="0"/>
</radialGradient>
<radialGradient id="paint1_radial_278_7479" cx="0" cy="0" r="1" gradientUnits="userSpaceOnUse" gradientTransform="translate(504 253) rotate(-170.974) scale(955.788 625.492)">
<stop/>
<stop offset="0.430208" stop-color="#8A0509"/>
<stop offset="1" stop-color="#D1090F"/>
</radialGradient>
<radialGradient id="paint2_radial_278_7479" cx="0" cy="0" r="1" gradientUnits="userSpaceOnUse" gradientTransform="translate(574.939 330) rotate(-169.55) scale(1125.6 847.985)">
<stop/>
<stop offset="0.430208" stop-color="#8A0509"/>
<stop offset="1" stop-color="#D1090F"/>
</radialGradient>
<linearGradient id="paint3_linear_278_7479" x1="289.5" y1="266" x2="289.5" y2="309" gradientUnits="userSpaceOnUse">
<stop stop-color="#18204F" stop-opacity="0.8"/>
<stop offset="1" stop-color="#18204F" stop-opacity="0.5"/>
</linearGradient>
<clipPath id="clip0_278_7479">
<rect x="73" y="40" width="433" height="290" rx="23.35" fill="white"/>
</clipPath>
<clipPath id="clip1_278_7479">
<rect width="397" height="35" fill="white" transform="translate(91 270)"/>
</clipPath>
</defs>
</svg>
